<?xml version="1.0" encoding="UTF-8"?>
<svg width="103px" height="106px" viewBox="0 0 103 106" version="1.1" xmlns="http://www.w3.org/2000/svg" xmlns:xlink="http://www.w3.org/1999/xlink">
    <!-- Generator: Sketch 47.1 (45422) - http://www.bohemiancoding.com/sketch -->
    <title>Coin@2x</title>
    <desc>Created with Sketch.</desc>
    <defs>
        <polygon id="path-1" points="58.147 0.1955 58.147 90 0.5467 90 0.5467 0.1955 58.147 0.1955"></polygon>
        <polygon id="path-3" points="0.000654472252 0.887 57.6016 0.887 57.6016 104.666769 0.000654472252 104.666769"></polygon>
    </defs>
    <g id="Page-1" stroke="none" stroke-width="1" fill="none" fill-rule="evenodd">
        <g id="Redaktionell-sida-Copy" transform="translate(-569.000000, -781.000000)">
            <g id="Coin" transform="translate(569.000000, 780.000000)">
                <g id="Group-3" transform="translate(44.000000, 16.113000)">
                    <mask id="mask-2" fill="white">
                        <use xlink:href="#path-1"></use>
                    </mask>
                    <g id="Clip-2"></g>
                    <path d="M44.6207,0.1955 L44.2887,2.8065 L43.2037,2.6685 C44.1967,3.7965 45.1377,4.9805 46.0237,6.2165 L48.2887,6.5045 L47.9557,9.1165 C48.7077,10.3455 49.4067,11.6185 50.0547,12.9275 L51.7567,13.1445 L51.4147,15.8275 L51.3707,15.8225 C51.9237,17.1455 52.4277,18.4985 52.8737,19.8835 L55.4177,20.2075 L55.0757,22.8905 L53.6897,22.7145 C54.2317,24.7895 54.6577,26.9185 54.9507,29.0935 L55.9297,29.2185 L55.5877,31.9025 L55.2447,31.8585 C55.4227,34.0035 55.4827,36.1835 55.4047,38.3925 L56.6317,38.5485 L56.2897,41.2315 L55.2447,41.0985 C55.1767,41.9125 55.0927,42.7295 54.9877,43.5495 C54.7727,45.2365 54.4847,46.8945 54.1287,48.5195 L55.3417,48.6735 L54.9997,51.3565 L53.4767,51.1625 C52.9217,53.2135 52.2507,55.2015 51.4837,57.1275 L52.5857,57.2685 L52.2437,59.9515 L50.3807,59.7145 C49.8077,60.9585 49.1877,62.1675 48.5317,63.3475 L48.9477,63.4005 L48.6047,66.0835 L47.0327,65.8835 C46.3377,66.9835 45.6007,68.0445 44.8347,69.0745 L44.8917,69.0825 L44.5487,71.7655 L42.8797,71.5525 C42.0397,72.5465 41.1597,73.4935 40.2547,74.4065 L41.2987,74.5395 L40.9567,77.2225 L37.6967,76.8075 C36.7087,77.6665 35.6937,78.4865 34.6477,79.2505 L34.9257,79.2855 L34.5837,81.9685 L31.1857,81.5365 C29.7637,82.3845 28.2987,83.1445 26.7997,83.8165 L27.3917,83.8915 L27.0497,86.5745 L21.2547,85.8365 C17.9377,86.7735 14.4997,87.2665 10.9987,87.2825 C7.6117,88.1845 4.1097,88.6585 0.5467,88.6665 C2.2217,89.1045 3.9327,89.4495 5.6867,89.6735 C30.7267,92.8635 54.0477,72.3255 57.6707,43.8905 C59.8257,26.9765 54.5327,11.0215 44.6207,0.1955" id="Fill-1" fill="#52A558" mask="url(#mask-2)"></path>
                </g>
                <path d="M74.2584,8.8466 L80.6894,9.6656 L80.3474,12.3496 L80.0904,12.3166 C81.5184,13.3416 82.8794,14.4626 84.1764,15.6686 L88.5404,16.2246 C81.7984,8.8986 72.9364,3.9356 62.8294,2.6476 C61.0754,2.4246 59.3324,2.3286 57.6014,2.3326 C61.0494,3.2346 64.3204,4.5716 67.3724,6.2936 C69.7654,6.9256 72.0654,7.7846 74.2584,8.8466" id="Fill-4" fill="#52A558"></path>
                <path d="M60.4986,101.3437 L60.8406,98.6607 L65.2006,99.2167 C66.4846,98.4927 67.7376,97.7047 68.9586,96.8557 L68.4896,96.7957 L68.8326,94.1127 L72.0436,94.5217 C73.0016,93.7347 73.9366,92.9117 74.8426,92.0467 L74.2336,91.9687 L74.5756,89.2857 L77.2096,89.6217 C78.0576,88.6967 78.8786,87.7407 79.6656,86.7467 L78.9316,86.6527 L79.2726,83.9697 L81.5206,84.2567 C82.2486,83.2187 82.9396,82.1477 83.6006,81.0497 L82.7446,80.9407 L83.0866,78.2577 L85.0456,78.5067 C85.6756,77.3227 86.2576,76.1047 86.8076,74.8617 L85.8196,74.7357 L86.1616,72.0527 L87.8776,72.2717 C88.6206,70.3387 89.2746,68.3487 89.8156,66.2997 L88.6326,66.1487 L88.9746,63.4657 L90.4466,63.6537 C90.7966,62.0257 91.0866,60.3687 91.3016,58.6827 C91.4056,57.8637 91.4876,57.0467 91.5586,56.2317 L90.2706,56.0687 L90.6126,53.3857 L91.7286,53.5277 C91.8156,51.3227 91.7676,49.1457 91.6106,46.9987 L89.2206,46.6937 L89.5626,44.0107 L91.3436,44.2377 C91.0796,42.0737 90.7036,39.9477 90.2046,37.8737 L88.6506,37.6757 L88.9926,34.9917 L89.4406,35.0497 C89.0326,33.6767 88.5816,32.3247 88.0736,31.0057 L85.5546,30.6847 L85.8956,28.0017 L86.8566,28.1237 C86.2826,26.8577 85.6686,25.6177 85.0036,24.4157 L82.3296,24.0747 L82.6716,21.3917 L83.2246,21.4627 C82.4436,20.2527 81.6156,19.0827 80.7416,17.9577 L77.5656,17.5527 L77.9076,14.8697 L78.1716,14.9037 C77.1186,13.7597 76.0136,12.6737 74.8606,11.6507 L70.2536,11.0627 L70.5956,8.3797 L70.7076,8.3947 C69.6266,7.6447 68.5176,6.9397 67.3726,6.2937 C65.7816,5.8737 64.1556,5.5437 62.4876,5.3307 C60.7316,5.1077 58.9866,5.0227 57.2566,5.0427 C78.0046,10.6737 91.7966,33.3937 88.6176,58.3407 C85.4386,83.2877 66.3896,101.8227 44.8916,102.0697 C46.5616,102.5227 48.2726,102.8797 50.0286,103.1027 C51.6956,103.3157 53.3526,103.4037 54.9986,103.3957 C56.9786,102.8687 58.9166,102.1897 60.8076,101.3827 L60.4986,101.3437 Z" id="Fill-6" fill="#52A558"></path>
                <g id="Group-10" transform="translate(0.000000, 0.113000)">
                    <mask id="mask-4" fill="white">
                        <use xlink:href="#path-3"></use>
                    </mask>
                    <g id="Clip-9"></g>
                    <path d="M27.8336,98.1267 L27.7036,99.1427 C26.9626,99.0477 26.4386,98.3707 26.5336,97.6297 C26.5396,97.5787 26.5556,97.5307 26.5676,97.4807 C10.3786,88.8637 0.4076,68.9357 3.1596,47.3367 C6.3526,22.2887 25.5436,3.7017 47.1486,3.6037 C50.5346,2.7017 54.0366,2.2287 57.6016,2.2197 C55.9266,1.7827 54.2146,1.4367 52.4606,1.2127 C27.4206,-1.9773 4.1006,18.5607 0.4776,46.9957 C-3.1464,75.4307 14.2766,101.1607 39.3166,104.3517 C41.0706,104.5757 42.8146,104.6697 44.5466,104.6667 C41.0986,103.7647 37.8266,102.4277 34.7746,100.7057 C32.3616,100.0687 30.0446,99.2017 27.8336,98.1267" id="Fill-8" fill="#52A558" mask="url(#mask-4)"></path>
                </g>
                <path d="M26.5338,97.7426 C26.4388,98.4836 26.9628,99.1606 27.7038,99.2556 L27.8338,98.2396 C27.4068,98.0326 26.9858,97.8166 26.5678,97.5946 C26.5548,97.6436 26.5398,97.6916 26.5338,97.7426" id="Fill-11" fill="#52A558"></path>
                <path d="M50.0289,103.103 C48.2729,102.879 46.5619,102.523 44.8909,102.07 C43.1609,102.089 41.4159,102.005 39.6589,101.782 C37.9919,101.569 36.3659,101.238 34.7749,100.819 C37.8269,102.541 41.0979,103.878 44.5469,104.779 C48.1099,104.771 51.6119,104.297 54.9989,103.396 C53.3529,103.403 51.6959,103.315 50.0289,103.103" id="Fill-13" fill="#52A558"></path>
                <path d="M52.1187,4.0092 C53.8747,4.2332 55.5847,4.5892 57.2567,5.0432 C58.9867,5.0232 60.7317,5.1072 62.4877,5.3312 C64.1557,5.5432 65.7817,5.8742 67.3727,6.2942 C64.3207,4.5712 61.0497,3.2352 57.6007,2.3332 C54.0367,2.3412 50.5347,2.8152 47.1487,3.7172 C48.7937,3.7092 50.4517,3.7972 52.1187,4.0092" id="Fill-15" fill="#52A558"></path>
                <path d="M6.107,61.7895 C6.848,61.7025 7.379,61.0305 7.292,60.2885 C7.257,59.9985 7.226,59.7095 7.197,59.4185 C7.123,58.6745 6.458,58.1335 5.716,58.2075 C4.973,58.2815 4.431,58.9445 4.505,59.6875 C4.536,59.9945 4.57,60.3005 4.606,60.6045 C4.68,61.2335 5.175,61.7115 5.777,61.7885 C5.883,61.8025 5.995,61.8025 6.107,61.7895" id="Fill-17" fill="#52A558"></path>
                <path d="M5.8394,49.2421 C6.5804,49.3361 7.2574,48.8121 7.3524,48.0711 L7.3624,47.9861 C7.4004,47.6951 7.4404,47.4061 7.4814,47.1171 C7.5874,46.3781 7.0744,45.6921 6.3354,45.5861 C5.6094,45.4751 4.9104,45.9921 4.8034,46.7321 C4.7604,47.0351 4.7184,47.3391 4.6804,47.6441 L4.6694,47.7291 C4.5744,48.4701 5.0984,49.1471 5.8394,49.2421" id="Fill-19" fill="#52A558"></path>
                <path d="M8.3882,66.3027 C8.3182,66.0207 8.2502,65.7377 8.1852,65.4537 C8.0182,64.7247 7.2912,64.2717 6.5652,64.4367 C5.8362,64.6037 5.3812,65.3287 5.5482,66.0577 C5.6172,66.3587 5.6892,66.6577 5.7632,66.9557 C5.9022,67.5127 6.3672,67.9027 6.9052,67.9707 C7.0672,67.9917 7.2352,67.9837 7.4032,67.9417 C8.1272,67.7607 8.5692,67.0277 8.3882,66.3027" id="Fill-21" fill="#52A558"></path>
                <path d="M5.4263,55.5131 C5.4803,55.5201 5.5353,55.5231 5.5913,55.5241 C6.3383,55.5281 6.9473,54.9261 6.9513,54.1791 C6.9523,53.8881 6.9573,53.5961 6.9633,53.3041 C6.9813,52.5571 6.3903,51.9391 5.6423,51.9211 C4.8953,51.9051 4.2773,52.4961 4.2593,53.2431 C4.2523,53.5511 4.2473,53.8571 4.2463,54.1641 C4.2423,54.8551 4.7573,55.4281 5.4263,55.5131" id="Fill-23" fill="#52A558"></path>
                <path d="M12.4351,76.8706 C12.0821,76.2126 11.2631,75.9646 10.6041,76.3166 C9.9461,76.6696 9.6981,77.4896 10.0511,78.1476 C10.1971,78.4196 10.3441,78.6896 10.4951,78.9576 C10.7111,79.3476 11.0931,79.5866 11.5041,79.6396 C11.7821,79.6746 12.0731,79.6246 12.3341,79.4776 C12.9871,79.1126 13.2191,78.2886 12.8541,77.6366 C12.7121,77.3836 12.5731,77.1276 12.4351,76.8706" id="Fill-25" fill="#52A558"></path>
                <path d="M10.2457,72.1235 C10.1387,71.8525 10.0347,71.5795 9.9327,71.3055 C9.6707,70.6055 8.8927,70.2495 8.1927,70.5115 C7.4927,70.7715 7.1377,71.5515 7.3977,72.2505 C7.5067,72.5385 7.6157,72.8255 7.7267,73.1105 C7.9137,73.5875 8.3417,73.8985 8.8157,73.9595 C9.0337,73.9875 9.2617,73.9615 9.4797,73.8765 C10.1757,73.6035 10.5177,72.8185 10.2457,72.1235" id="Fill-27" fill="#52A558"></path>
                <path d="M84.1549,65.8466 C83.4429,65.6196 82.6819,66.0146 82.4569,66.7276 C82.3689,67.0066 82.2779,67.2836 82.1849,67.5596 C81.9479,68.2676 82.3289,69.0346 83.0369,69.2726 C83.1239,69.3016 83.2109,69.3216 83.2979,69.3316 C83.9249,69.4116 84.5409,69.0416 84.7499,68.4206 C84.8469,68.1296 84.9419,67.8376 85.0359,67.5446 C85.2609,66.8316 84.8669,66.0716 84.1549,65.8466" id="Fill-29" fill="#52A558"></path>
                <path d="M85.524,59.7109 C84.8,59.5679 84.084,60.0559 83.946,60.7909 C83.891,61.0779 83.835,61.3649 83.777,61.6499 C83.627,62.3819 84.098,63.0969 84.831,63.2469 C84.865,63.2529 84.898,63.2589 84.932,63.2629 C85.628,63.3519 86.284,62.8909 86.426,62.1929 C86.488,61.8929 86.547,61.5919 86.604,61.2899 C86.742,60.5549 86.258,59.8489 85.524,59.7109" id="Fill-31" fill="#52A558"></path>
                <path d="M15.6773,82.0292 C15.2363,81.4272 14.3903,81.2962 13.7863,81.7382 C13.1843,82.1802 13.0543,83.0272 13.4963,83.6292 C13.6793,83.8782 13.8653,84.1252 14.0513,84.3702 C14.2813,84.6692 14.6103,84.8452 14.9543,84.8892 C15.2963,84.9332 15.6543,84.8472 15.9483,84.6212 C16.5413,84.1672 16.6543,83.3192 16.1993,82.7262 C16.0233,82.4952 15.8493,82.2632 15.6773,82.0292" id="Fill-33" fill="#52A558"></path>
                <path d="M82.0474,71.77 C81.3694,71.458 80.5654,71.755 80.2534,72.434 C80.1314,72.698 80.0074,72.961 79.8814,73.223 C79.5564,73.895 79.8384,74.704 80.5104,75.029 C80.6464,75.094 80.7864,75.135 80.9284,75.153 C81.4884,75.225 82.0574,74.937 82.3174,74.4 C82.4504,74.123 82.5814,73.844 82.7104,73.563 C83.0234,72.885 82.7264,72.082 82.0474,71.77" id="Fill-35" fill="#52A558"></path>
                <path d="M86.1539,53.455 C85.4089,53.406 84.7639,53.97 84.7159,54.715 C84.6959,55.005 84.6749,55.296 84.6489,55.587 C84.5889,56.311 85.1099,56.951 85.8249,57.042 C85.8439,57.044 85.8639,57.046 85.8829,57.048 C86.6279,57.111 87.2819,56.559 87.3439,55.814 C87.3709,55.507 87.3929,55.2 87.4139,54.894 C87.4639,54.149 86.9059,53.511 86.1539,53.455" id="Fill-37" fill="#52A558"></path>
                <path d="M41.8248,97.1542 C41.5398,97.1312 41.2528,97.1042 40.9668,97.0732 C40.2228,96.9942 39.5568,97.5322 39.4778,98.2752 C39.3998,99.0082 39.9238,99.6672 40.6518,99.7592 C40.6608,99.7602 40.6708,99.7622 40.6798,99.7622 C40.9888,99.7962 41.2988,99.8252 41.6068,99.8502 C42.3508,99.9102 43.0038,99.3562 43.0638,98.6112 C43.1248,97.8662 42.5798,97.2182 41.8248,97.1542" id="Fill-39" fill="#52A558"></path>
                <path d="M18.9068,21.1284 C19.3188,21.1804 19.7498,21.0434 20.0568,20.7204 C20.2578,20.5104 20.4598,20.3024 20.6648,20.0974 C21.1908,19.5684 21.1888,18.7114 20.6608,18.1844 C20.1318,17.6574 19.2748,17.6594 18.7478,18.1894 C18.5298,18.4074 18.3138,18.6294 18.0998,18.8534 C17.5848,19.3944 17.6048,20.2504 18.1458,20.7654 C18.3628,20.9724 18.6308,21.0924 18.9068,21.1284" id="Fill-41" fill="#52A558"></path>
                <path d="M30.9332,10.9902 C30.5812,10.3322 29.7632,10.0822 29.1032,10.4342 C28.8292,10.5802 28.5572,10.7302 28.2862,10.8832 C27.6352,11.2502 27.4062,12.0752 27.7742,12.7262 C27.9922,13.1132 28.3722,13.3502 28.7812,13.4032 C28.9022,13.4182 29.0262,13.4092 29.1492,13.3912 C29.7802,12.8462 30.4232,12.3202 31.0772,11.8102 C31.1142,11.5382 31.0732,11.2522 30.9332,10.9902" id="Fill-43" fill="#52A558"></path>
                <path d="M23.5582,16.9018 C23.9052,16.9458 24.2682,16.8568 24.5642,16.6238 C24.7922,16.4438 25.0222,16.2688 25.2532,16.0938 C25.8512,15.6468 25.9712,14.7988 25.5242,14.2008 C25.0752,13.6028 24.2272,13.4828 23.6302,13.9308 C23.3822,14.1158 23.1372,14.3048 22.8932,14.4968 C22.3062,14.9578 22.2042,15.8078 22.6652,16.3958 C22.8942,16.6868 23.2172,16.8588 23.5582,16.9018" id="Fill-45" fill="#52A558"></path>
                <path d="M36.8365,97.791 C37.0265,97.069 36.5965,96.329 35.8735,96.138 C35.5945,96.064 35.3155,95.987 35.0395,95.907 C34.3415,95.706 33.6125,96.095 33.3845,96.78 C34.3275,97.416 35.2955,98.011 36.2885,98.564 C36.5495,98.387 36.7495,98.119 36.8365,97.791" id="Fill-47" fill="#52A558"></path>
                <path d="M22.3394,90.893 C21.9024,91.498 22.0374,92.343 22.6424,92.781 C22.8934,92.963 23.1454,93.142 23.3994,93.317 C23.5834,93.444 23.7874,93.519 23.9954,93.546 C24.3484,93.591 24.7074,93.491 24.9934,93.27 C24.1644,92.424 23.3624,91.546 22.5954,90.633 C22.5014,90.708 22.4134,90.791 22.3394,90.893" id="Fill-49" fill="#52A558"></path>
                <path d="M8.5992,36.9101 C8.7032,36.9511 8.8112,36.9771 8.9172,36.9911 C9.5202,37.0681 10.1202,36.7291 10.3492,36.1381 C10.4542,35.8651 10.5622,35.5941 10.6712,35.3251 C10.9532,34.6331 10.6222,33.8441 9.9302,33.5611 C9.2402,33.2811 8.4502,33.6121 8.1672,34.3031 C8.0512,34.5871 7.9382,34.8731 7.8272,35.1601 C7.5572,35.8571 7.9032,36.6401 8.5992,36.9101" id="Fill-51" fill="#52A558"></path>
                <path d="M35.066,7.8398 C34.772,7.9398 34.479,8.0438 34.188,8.1508 C33.487,8.4078 33.128,9.1848 33.384,9.8858 C33.408,9.9488 33.446,10.0018 33.477,10.0588 C34.451,9.3918 35.44,8.7548 36.454,8.1678 C36.1,7.8158 35.569,7.6688 35.066,7.8398" id="Fill-53" fill="#52A558"></path>
                <path d="M17.7154,86.6459 C17.1864,87.1729 17.1844,88.0289 17.7114,88.5589 C17.9284,88.7769 18.1494,88.9939 18.3704,89.2069 C18.5884,89.4159 18.8584,89.5379 19.1364,89.5729 C19.5464,89.6249 19.9754,89.4899 20.2824,89.1689 C20.5494,88.8919 20.6724,88.5299 20.6564,88.1739 C20.2624,87.6379 19.8714,87.0969 19.4974,86.5429 C18.9674,86.1289 18.2034,86.1599 17.7154,86.6459" id="Fill-55" fill="#52A558"></path>
                <path d="M45.6031,7.1796 C45.6081,7.8656 46.1221,8.4286 46.7831,8.5126 C46.8421,8.5206 46.9031,8.5246 46.9641,8.5236 C47.2511,8.5216 47.5401,8.5236 47.8281,8.5296 C48.5751,8.5436 49.1921,7.9506 49.2071,7.2036 C49.2151,6.7636 49.0091,6.3736 48.6901,6.1196 C47.6571,6.3696 46.6311,6.6546 45.6221,6.9876 C45.6131,7.0506 45.6031,7.1136 45.6031,7.1796" id="Fill-57" fill="#52A558"></path>
                <path d="M11.0757,31.1313 C11.2277,31.2133 11.3877,31.2633 11.5487,31.2833 C12.0867,31.3523 12.6357,31.0903 12.9097,30.5853 C13.0487,30.3283 13.1887,30.0733 13.3327,29.8193 C13.6987,29.1683 13.4697,28.3433 12.8177,27.9773 C12.1697,27.6103 11.3437,27.8403 10.9757,28.4913 C10.8257,28.7583 10.6777,29.0273 10.5307,29.2983 C10.1757,29.9543 10.4197,30.7753 11.0757,31.1313" id="Fill-59" fill="#52A558"></path>
                <path d="M30.1861,94.0913 C29.9251,93.9703 29.6651,93.8463 29.4071,93.7193 C29.4051,93.7183 29.4031,93.7183 29.4021,93.7173 C29.9001,94.1503 30.4061,94.5713 30.9221,94.9793 C30.8241,94.6023 30.5691,94.2683 30.1861,94.0913" id="Fill-61" fill="#52A558"></path>
                <path d="M40.5367,9.1025 C40.6717,9.1195 40.8107,9.1165 40.9517,9.0905 C41.2347,9.0395 41.5177,8.9905 41.8027,8.9455 C42.3277,8.8615 42.7297,8.4845 42.8777,8.0085 C42.0697,8.3415 41.2727,8.7035 40.4847,9.0875 C40.5027,9.0905 40.5177,9.1005 40.5367,9.1025" id="Fill-63" fill="#52A558"></path>
                <path d="M14.2691,25.7148 C14.4581,25.8518 14.6711,25.9328 14.8881,25.9608 C15.3641,26.0208 15.8571,25.8268 16.1571,25.4108 C16.3281,25.1748 16.5001,24.9418 16.6751,24.7088 C17.1241,24.1118 17.0041,23.2648 16.4091,22.8158 C15.8111,22.3648 14.9631,22.4858 14.5141,23.0828 C14.3291,23.3278 14.1461,23.5758 13.9651,23.8268 C13.5281,24.4318 13.6641,25.2778 14.2691,25.7148" id="Fill-65" fill="#52A558"></path>
                <path d="M6.856,42.9506 C6.91,42.9646 6.962,42.9736 7.016,42.9806 C7.685,43.0666 8.329,42.6386 8.497,41.9686 C8.568,41.6846 8.642,41.4036 8.717,41.1226 C8.913,40.4016 8.486,39.6586 7.765,39.4636 C7.042,39.2656 6.301,39.6956 6.106,40.4166 C6.026,40.7126 5.949,41.0106 5.874,41.3096 C5.692,42.0336 6.131,42.7686 6.856,42.9506" id="Fill-67" fill="#52A558"></path>
                <path d="M66.4605,11.2333 C66.1955,11.0723 65.9285,10.9143 65.6585,10.7603 C65.0125,10.3893 64.1845,10.6123 63.8135,11.2603 C63.4405,11.9083 63.6645,12.7343 64.3135,13.1073 C64.5635,13.2503 64.8115,13.3963 65.0575,13.5453 C65.2245,13.6473 65.4045,13.7083 65.5875,13.7313 C66.1015,13.7963 66.6285,13.5623 66.9145,13.0913 C67.3025,12.4523 67.0995,11.6213 66.4605,11.2333" id="Fill-69" fill="#52A558"></path>
                <path d="M60.6216,8.3486 C60.3316,8.2356 60.0396,8.1256 59.7466,8.0196 C59.0426,7.7666 58.2686,8.1296 58.0146,8.8316 C57.7606,9.5346 58.1246,10.3096 58.8266,10.5636 C59.0986,10.6616 59.3686,10.7636 59.6376,10.8686 C59.7436,10.9096 59.8506,10.9366 59.9596,10.9506 C60.5596,11.0266 61.1586,10.6896 61.3896,10.1006 C61.6606,9.4046 61.3166,8.6206 60.6216,8.3486" id="Fill-71" fill="#52A558"></path>
                <path d="M64.7818,90.9355 C64.5408,91.0975 64.2988,91.2565 64.0538,91.4135 C63.4258,91.8155 63.2418,92.6525 63.6438,93.2815 C63.8688,93.6325 64.2288,93.8445 64.6138,93.8935 C64.9168,93.9325 65.2348,93.8695 65.5118,93.6905 C65.7738,93.5235 66.0338,93.3525 66.2928,93.1795 C66.9118,92.7625 67.0758,91.9215 66.6588,91.3025 C66.2418,90.6835 65.4008,90.5175 64.7818,90.9355" id="Fill-73" fill="#52A558"></path>
                <path d="M53.8082,96.0161 C53.5312,96.0931 53.2522,96.1651 52.9732,96.2351 C52.2482,96.4151 51.8072,97.1491 51.9882,97.8741 C52.1262,98.4311 52.5922,98.8211 53.1292,98.8901 C53.2912,98.9101 53.4592,98.9011 53.6262,98.8591 C53.9282,98.7851 54.2282,98.7061 54.5272,98.6231 C55.2472,98.4251 55.6702,97.6801 55.4712,96.9601 C55.2732,96.2401 54.5282,95.8181 53.8082,96.0161" id="Fill-75" fill="#52A558"></path>
                <path d="M59.4927,93.9233 C59.2297,94.0453 58.9667,94.1643 58.7007,94.2803 C58.0167,94.5793 57.7047,95.3763 58.0037,96.0613 C58.2007,96.5133 58.6157,96.8023 59.0727,96.8613 C59.3067,96.8913 59.5527,96.8603 59.7837,96.7583 C60.0677,96.6343 60.3507,96.5073 60.6327,96.3763 C61.3097,96.0623 61.6037,95.2573 61.2897,94.5803 C60.9737,93.9023 60.1707,93.6083 59.4927,93.9233" id="Fill-77" fill="#52A558"></path>
                <path d="M74.064,85.6513 C74.499,85.7073 74.952,85.5503 75.259,85.1943 C75.461,84.9613 75.661,84.7253 75.858,84.4873 C76.335,83.9123 76.255,83.0603 75.68,82.5833 C75.106,82.1063 74.253,82.1863 73.776,82.7613 C73.59,82.9843 73.403,83.2063 73.213,83.4253 C72.725,83.9903 72.787,84.8443 73.352,85.3333 C73.561,85.5133 73.809,85.6193 74.064,85.6513" id="Fill-79" fill="#52A558"></path>
                <path d="M84.7535,48.5947 C84.7695,48.8847 84.7825,49.1757 84.7935,49.4677 C84.8175,50.1377 85.3275,50.6767 85.9725,50.7597 C86.0445,50.7677 86.1185,50.7717 86.1945,50.7687 C86.9415,50.7407 87.5245,50.1147 87.4965,49.3677 C87.4845,49.0597 87.4715,48.7517 87.4535,48.4457 C87.4125,47.6987 86.7745,47.1277 86.0285,47.1697 C85.2825,47.2107 84.7115,47.8487 84.7535,48.5947" id="Fill-81" fill="#52A558"></path>
                <path d="M71.0084,14.4545 C70.4324,13.9815 69.5794,14.0645 69.1064,14.6425 C68.6314,15.2205 68.7154,16.0725 69.2934,16.5455 C69.5164,16.7285 69.7374,16.9145 69.9564,17.1025 C70.1654,17.2815 70.4114,17.3855 70.6654,17.4175 C71.1014,17.4735 71.5564,17.3155 71.8634,16.9565 C72.3504,16.3905 72.2854,15.5365 71.7184,15.0495 C71.4844,14.8485 71.2474,14.6495 71.0084,14.4545" id="Fill-83" fill="#52A558"></path>
                <path d="M69.5689,87.1738 C69.3549,87.3688 69.1389,87.5618 68.9219,87.7518 C68.3589,88.2418 68.2999,89.0968 68.7909,89.6588 C69.0179,89.9198 69.3219,90.0718 69.6389,90.1118 C70.0079,90.1588 70.3959,90.0538 70.6989,89.7898 C70.9319,89.5868 71.1629,89.3808 71.3919,89.1718 C71.9439,88.6678 71.9829,87.8128 71.4789,87.2608 C70.9759,86.7098 70.1209,86.6708 69.5689,87.1738" id="Fill-85" fill="#52A558"></path>
                <path d="M85.1295,40.9472 C84.3945,41.0812 83.9065,41.7852 84.0405,42.5192 C84.0925,42.8062 84.1425,43.0932 84.1895,43.3812 C84.2875,43.9862 84.7745,44.4312 85.3525,44.5052 C85.4785,44.5212 85.6095,44.5192 85.7415,44.4982 C86.4795,44.3782 86.9795,43.6822 86.8585,42.9452 C86.8095,42.6412 86.7565,42.3382 86.7015,42.0362 C86.5675,41.3012 85.8625,40.8132 85.1295,40.9472" id="Fill-87" fill="#52A558"></path>
                <path d="M80.3394,30.9038 C80.4634,31.1668 80.5854,31.4318 80.7054,31.6978 C80.9054,32.1438 81.3184,32.4278 81.7694,32.4858 C82.0084,32.5158 82.2574,32.4828 82.4934,32.3768 C83.1754,32.0708 83.4794,31.2698 83.1724,30.5888 C83.0454,30.3078 82.9174,30.0288 82.7864,29.7508 C82.4684,29.0748 81.6624,28.7848 80.9864,29.1038 C80.3114,29.4228 80.0214,30.2278 80.3394,30.9038" id="Fill-89" fill="#52A558"></path>
                <path d="M82.5689,36.5878 C82.6569,36.8648 82.7429,37.1428 82.8259,37.4218 C82.9829,37.9518 83.4359,38.3138 83.9519,38.3788 C84.1329,38.4018 84.3219,38.3888 84.5069,38.3338 C85.2229,38.1208 85.6319,37.3678 85.4189,36.6518 C85.3309,36.3558 85.2399,36.0618 85.1469,35.7678 C84.9209,35.0568 84.1609,34.6638 83.4479,34.8888 C82.7359,35.1158 82.3429,35.8768 82.5689,36.5878" id="Fill-91" fill="#52A558"></path>
                <path d="M52.9849,9.02 C53.2689,9.069 53.5519,9.121 53.8349,9.177 C53.8649,9.183 53.8959,9.188 53.9269,9.192 C54.6269,9.281 55.2839,8.814 55.4229,8.113 C55.5679,7.38 55.0909,6.668 54.3589,6.523 C54.0549,6.463 53.7499,6.407 53.4419,6.354 C52.7129,6.224 52.0059,6.722 51.8809,7.458 C51.7539,8.194 52.2489,8.894 52.9849,9.02" id="Fill-93" fill="#52A558"></path>
                <path d="M77.8345,26.3178 C78.0595,26.6748 78.4225,26.8908 78.8105,26.9408 C79.1095,26.9788 79.4235,26.9178 79.6995,26.7448 C80.3315,26.3478 80.5225,25.5128 80.1265,24.8808 C79.9625,24.6188 79.7955,24.3588 79.6265,24.1018 C79.2175,23.4768 78.3795,23.3028 77.7545,23.7118 C77.1295,24.1208 76.9545,24.9588 77.3645,25.5838 C77.5225,25.8268 77.6805,26.0708 77.8345,26.3178" id="Fill-95" fill="#52A558"></path>
                <path d="M74.2388,21.4082 C74.4668,21.6742 74.7748,21.8302 75.0958,21.8712 C75.4618,21.9182 75.8438,21.8162 76.1458,21.5592 C76.7148,21.0742 76.7818,20.2212 76.2968,19.6522 C76.0958,19.4172 75.8928,19.1842 75.6888,18.9542 C75.1928,18.3962 74.3378,18.3452 73.7788,18.8422 C73.2208,19.3382 73.1718,20.1932 73.6678,20.7512 C73.8598,20.9682 74.0518,21.1872 74.2388,21.4082" id="Fill-97" fill="#52A558"></path>
                <path d="M47.8648,97.1132 C47.5788,97.1402 47.2928,97.1642 47.0058,97.1842 C46.2608,97.2362 45.6978,97.8822 45.7508,98.6272 C45.7958,99.2812 46.2998,99.7952 46.9278,99.8752 C47.0138,99.8862 47.1028,99.8882 47.1938,99.8822 C47.5048,99.8612 47.8138,99.8352 48.1238,99.8052 C48.8678,99.7342 49.4128,99.0732 49.3408,98.3292 C49.2688,97.5862 48.6058,97.0392 47.8648,97.1132" id="Fill-99" fill="#52A558"></path>
                <path d="M77.274,80.4194 C77.451,80.5344 77.644,80.6034 77.84,80.6284 C78.338,80.6914 78.853,80.4744 79.146,80.0244 C79.313,79.7674 79.479,79.5084 79.643,79.2474 C80.04,78.6134 79.848,77.7794 79.214,77.3824 C78.58,76.9874 77.747,77.1784 77.35,77.8114 C77.196,78.0584 77.039,78.3044 76.879,78.5474 C76.472,79.1734 76.648,80.0114 77.274,80.4194" id="Fill-101" fill="#52A558"></path>
                <path d="M20.2457,87.2568 C20.0377,87.0568 19.8317,86.8548 19.6287,86.6508 C19.5877,86.6098 19.5417,86.5778 19.4977,86.5428 C19.8717,87.0968 20.2627,87.6378 20.6567,88.1738 C20.6427,87.8388 20.5067,87.5078 20.2457,87.2568" id="Fill-103" fill="#52A558"></path>
                <path d="M29.6158,13.2387 C29.8688,13.0957 30.1218,12.9567 30.3778,12.8207 C30.7738,12.6077 31.0188,12.2247 31.0768,11.8107 C30.4238,12.3207 29.7798,12.8457 29.1488,13.3917 C29.3088,13.3677 29.4678,13.3227 29.6158,13.2387" id="Fill-105" fill="#52A558"></path>
                <path d="M25.2808,92.9726 C25.7048,92.3576 25.5508,91.5146 24.9358,91.0916 C24.6978,90.9266 24.4628,90.7606 24.2278,90.5906 C23.7248,90.2246 23.0578,90.2636 22.5948,90.6336 C23.3628,91.5466 24.1648,92.4246 24.9938,93.2696 C25.0998,93.1866 25.1988,93.0896 25.2808,92.9726" id="Fill-107" fill="#52A558"></path>
                <path d="M42.9263,7.3979 C42.8093,6.6599 42.1183,6.1569 41.3793,6.2739 C41.0733,6.3219 40.7683,6.3749 40.4643,6.4299 C39.7293,6.5649 39.2423,7.2699 39.3783,8.0039 C39.4833,8.5799 39.9403,8.9959 40.4853,9.0869 C41.2733,8.7029 42.0703,8.3409 42.8773,8.0079 C42.9373,7.8159 42.9603,7.6099 42.9263,7.3979" id="Fill-109" fill="#52A558"></path>
                <path d="M27.5963,94.333 C27.2653,95.003 27.5393,95.813 28.2093,96.145 C28.4893,96.282 28.7693,96.416 29.0523,96.547 C29.1813,96.607 29.3153,96.644 29.4493,96.661 C30.0183,96.734 30.5933,96.435 30.8473,95.886 C30.9843,95.59 30.9983,95.272 30.9223,94.979 C30.4063,94.572 29.9003,94.15 29.4023,93.717 C28.7333,93.389 27.9253,93.665 27.5963,94.333" id="Fill-111" fill="#52A558"></path>
                <path d="M46.9478,5.8188 C46.2658,5.8228 45.7118,6.3318 45.6218,6.9878 C46.6318,6.6548 47.6568,6.3698 48.6898,6.1198 C48.4668,5.9428 48.1878,5.8308 47.8808,5.8248 C47.5688,5.8188 47.2588,5.8168 46.9478,5.8188" id="Fill-113" fill="#52A558"></path>
                <path d="M34.4839,10.7617 C34.6919,10.7887 34.9099,10.7667 35.1199,10.6897 C35.3909,10.5897 35.6639,10.4937 35.9359,10.4007 C36.6439,10.1597 37.0219,9.3917 36.7819,8.6847 C36.7129,8.4817 36.5959,8.3097 36.4539,8.1677 C35.4399,8.7547 34.4509,9.3917 33.4769,10.0587 C33.6879,10.4477 34.0619,10.7077 34.4839,10.7617" id="Fill-115" fill="#52A558"></path>
                <path d="M34.2867,98.5053 C34.5847,98.5913 34.8837,98.6743 35.1837,98.7533 C35.2427,98.7693 35.3017,98.7803 35.3597,98.7873 C35.6937,98.8303 36.0217,98.7443 36.2887,98.5643 C35.2957,98.0113 34.3277,97.4163 33.3847,96.7793 C33.3787,96.7973 33.3697,96.8123 33.3637,96.8303 C33.1567,97.5473 33.5697,98.2973 34.2867,98.5053" id="Fill-117" fill="#52A558"></path>
                <path d="M60.8072,101.3828 L65.2542,101.9498 C67.1472,101.4158 68.9972,100.7368 70.7992,99.9298 L65.2012,99.2158 C63.7712,100.0208 62.3052,100.7428 60.8072,101.3828" id="Fill-119" fill="#52A558"></path>
                <path d="M71.0494,102.6879 L71.3914,100.0049 L70.7994,99.9299 C68.9974,100.7369 67.1474,101.4159 65.2544,101.9499 L71.0494,102.6879 Z" id="Fill-121" fill="#52A558"></path>
                <path d="M60.4986,101.3437 L60.8076,101.3827 C62.3056,100.7427 63.7706,100.0207 65.2006,99.2167 L60.8406,98.6607 L60.4986,101.3437 Z" id="Fill-123" fill="#52A558"></path>
                <path d="M68.9586,96.8554 L75.1866,97.6494 C76.3686,96.9434 77.5246,96.1844 78.6476,95.3634 L72.0436,94.5224 C71.0426,95.3444 70.0126,96.1224 68.9586,96.8554" id="Fill-125" fill="#52A558"></path>
                <path d="M78.5836,98.082 L78.9256,95.399 L78.6476,95.364 C77.5246,96.184 76.3686,96.944 75.1866,97.649 L78.5836,98.082 Z" id="Fill-127" fill="#52A558"></path>
                <path d="M68.4898,96.7958 L68.9588,96.8558 C70.0118,96.1218 71.0428,95.3448 72.0438,94.5218 L68.8328,94.1128 L68.4898,96.7958 Z" id="Fill-129" fill="#52A558"></path>
                <path d="M74.8424,92.0468 L81.6964,92.9208 C82.5744,92.1568 83.4264,91.3548 84.2544,90.5198 L77.2094,89.6218 C76.4424,90.4588 75.6544,91.2698 74.8424,92.0468" id="Fill-131" fill="#52A558"></path>
                <path d="M81.6969,92.9204 L84.9569,93.3354 L85.2989,90.6524 L84.2549,90.5194 C83.4259,91.3544 82.5749,92.1564 81.6969,92.9204" id="Fill-133" fill="#52A558"></path>
                <path d="M74.234,91.9692 L74.842,92.0472 C75.655,91.2692 76.442,90.4582 77.21,89.6212 L74.576,89.2862 L74.234,91.9692 Z" id="Fill-135" fill="#52A558"></path>
                <path d="M79.6656,86.7465 L86.8796,87.6655 C87.5566,86.8675 88.2036,86.0365 88.8346,85.1875 L81.5206,84.2565 C80.9236,85.1075 80.3056,85.9385 79.6656,86.7465" id="Fill-137" fill="#52A558"></path>
                <path d="M88.5484,87.8784 L88.8914,85.1954 L88.8344,85.1884 C88.2034,86.0364 87.5564,86.8674 86.8794,87.6664 L88.5484,87.8784 Z" id="Fill-139" fill="#52A558"></path>
                <path d="M78.9312,86.6528 L79.6652,86.7468 C80.3052,85.9388 80.9232,85.1078 81.5212,84.2568 L79.2732,83.9698 L78.9312,86.6528 Z" id="Fill-141" fill="#52A558"></path>
                <path d="M83.6002,81.0493 L91.0332,81.9963 C91.5552,81.1713 92.0512,80.3233 92.5322,79.4613 L85.0452,78.5073 C84.5852,79.3723 84.1012,80.2173 83.6002,81.0493" id="Fill-143" fill="#52A558"></path>
                <path d="M92.6051,82.1967 L92.9481,79.5137 L92.5321,79.4607 C92.0511,80.3227 91.5551,81.1707 91.0331,81.9967 L92.6051,82.1967 Z" id="Fill-145" fill="#52A558"></path>
                <path d="M82.7447,80.9404 L83.5997,81.0494 C84.1007,80.2174 84.5857,79.3724 85.0457,78.5064 L83.0867,78.2574 L82.7447,80.9404 Z" id="Fill-147" fill="#52A558"></path>
                <path d="M86.8072,74.8618 L94.3802,75.8268 C94.7702,74.9798 95.1352,74.1158 95.4842,73.2408 L87.8772,72.2718 C87.5402,73.1478 87.1832,74.0108 86.8072,74.8618" id="Fill-149" fill="#52A558"></path>
                <path d="M96.2437,76.0644 L96.5857,73.3814 L95.4837,73.2404 C95.1357,74.1154 94.7697,74.9804 94.3807,75.8274 L96.2437,76.0644 Z" id="Fill-151" fill="#52A558"></path>
                <path d="M85.8199,74.7358 L86.8069,74.8618 C87.1829,74.0108 87.5409,73.1478 87.8779,72.2718 L86.1619,72.0528 L85.8199,74.7358 Z" id="Fill-153" fill="#52A558"></path>
                <path d="M89.816,66.2998 L97.477,67.2758 C97.712,66.4038 97.933,65.5248 98.129,64.6328 L90.447,63.6538 C90.255,64.5448 90.046,65.4268 89.816,66.2998" id="Fill-155" fill="#52A558"></path>
                <path d="M98.9996,67.4697 L99.3416,64.7867 L98.1286,64.6327 C97.9336,65.5247 97.7126,66.4047 97.4776,67.2757 L98.9996,67.4697 Z" id="Fill-157" fill="#52A558"></path>
                <path d="M88.6324,66.1489 L89.8164,66.2999 C90.0464,65.4269 90.2554,64.5449 90.4464,63.6529 L88.9744,63.4649 L88.6324,66.1489 Z" id="Fill-159" fill="#52A558"></path>
                <path d="M74.8609,11.6503 L80.0899,12.3173 C78.2479,10.9943 76.2979,9.8353 74.2579,8.8463 L70.7079,8.3943 C72.1499,9.3953 73.5399,10.4773 74.8609,11.6503" id="Fill-161" fill="#52A558"></path>
                <path d="M80.3472,12.3496 L80.6892,9.6656 L74.2582,8.8466 C76.2982,9.8346 78.2472,10.9946 80.0902,12.3166 L80.3472,12.3496 Z" id="Fill-163" fill="#52A558"></path>
                <path d="M70.5953,8.3798 L70.2533,11.0628 L74.8613,11.6508 C73.5393,10.4778 72.1503,9.3948 70.7073,8.3948 L70.5953,8.3798 Z" id="Fill-165" fill="#52A558"></path>
                <path d="M88.6304,16.2363 L88.5404,16.2253 C88.5674,16.2533 88.5954,16.2803 88.6204,16.3083 L88.6304,16.2363 Z" id="Fill-167" fill="#52A558"></path>
                <path d="M84.1763,15.6689 L78.1713,14.9029 C79.0693,15.8789 79.9223,16.9019 80.7413,17.9579 L87.2033,18.7809 C86.2413,17.6889 85.2323,16.6509 84.1763,15.6689" id="Fill-169" fill="#52A558"></path>
                <path d="M87.2037,18.7812 L88.2887,18.9192 L88.6207,16.3082 C88.5957,16.2802 88.5667,16.2532 88.5407,16.2252 L84.1767,15.6692 C85.2317,16.6512 86.2417,17.6892 87.2037,18.7812" id="Fill-171" fill="#52A558"></path>
                <path d="M77.566,17.5532 L80.742,17.9582 C79.922,16.9022 79.069,15.8792 78.171,14.9032 L77.908,14.8702 L77.566,17.5532 Z" id="Fill-173" fill="#52A558"></path>
                <path d="M85.0035,24.416 L91.9465,25.301 L91.9555,25.229 C91.3465,24.232 90.6985,23.269 90.0245,22.329 L83.2245,21.462 C83.8455,22.424 84.4435,23.405 85.0035,24.416" id="Fill-175" fill="#52A558"></path>
                <path d="M92.2887,22.6176 L90.0237,22.3286 C90.6987,23.2686 91.3467,24.2326 91.9557,25.2296 L92.2887,22.6176 Z" id="Fill-177" fill="#52A558"></path>
                <path d="M82.3297,24.0751 L85.0037,24.4161 C84.4437,23.4051 83.8457,22.4241 83.2247,21.4621 L82.6717,21.3921 L82.3297,24.0751 Z" id="Fill-179" fill="#52A558"></path>
                <path d="M88.0738,31.0058 L95.3708,31.9358 C94.9598,30.9528 94.5218,29.9858 94.0538,29.0408 L86.8568,28.1238 C87.2858,29.0698 87.6978,30.0268 88.0738,31.0058" id="Fill-181" fill="#52A558"></path>
                <path d="M95.4146,31.9409 L95.7566,29.2579 L94.0546,29.0409 C94.5216,29.9859 94.9596,30.9529 95.3706,31.9359 L95.4146,31.9409 Z" id="Fill-183" fill="#52A558"></path>
                <path d="M85.5543,30.6845 L88.0743,31.0055 C87.6983,30.0275 87.2853,29.0695 86.8573,28.1235 L85.8963,28.0015 L85.5543,30.6845 Z" id="Fill-185" fill="#52A558"></path>
                <path d="M90.2047,37.8735 L97.6897,38.8275 C97.4407,37.8725 97.1727,36.9265 96.8737,35.9965 L89.4407,35.0495 C89.7177,35.9805 89.9757,36.9195 90.2047,37.8735" id="Fill-187" fill="#52A558"></path>
                <path d="M99.0758,39.0039 L99.4178,36.3209 L96.8738,35.9969 C97.1728,36.9259 97.4408,37.8719 97.6898,38.8269 L99.0758,39.0039 Z" id="Fill-189" fill="#52A558"></path>
                <path d="M88.651,37.6752 L90.205,37.8732 C89.975,36.9202 89.717,35.9802 89.441,35.0492 L88.993,34.9922 L88.651,37.6752 Z" id="Fill-191" fill="#52A558"></path>
                <path d="M91.6109,46.9985 L99.2449,47.9715 C99.1689,47.0425 99.0729,46.1205 98.9509,45.2065 L91.3429,44.2375 C91.4549,45.1515 91.5439,46.0715 91.6109,46.9985" id="Fill-193" fill="#52A558"></path>
                <path d="M99.5875,48.0151 L99.9295,45.3321 L98.9505,45.2071 C99.0725,46.1201 99.1685,47.0431 99.2445,47.9711 L99.5875,48.0151 Z" id="Fill-195" fill="#52A558"></path>
                <path d="M89.2203,46.6938 L91.6113,46.9988 C91.5433,46.0718 91.4543,45.1518 91.3433,44.2378 L89.5633,44.0108 L89.2203,46.6938 Z" id="Fill-197" fill="#52A558"></path>
                <path d="M91.5582,56.2319 L99.2452,57.2119 C99.3212,56.3059 99.3722,55.4029 99.4052,54.5049 L91.7292,53.5269 C91.6932,54.4249 91.6352,55.3269 91.5582,56.2319" id="Fill-199" fill="#52A558"></path>
                <path d="M100.2896,57.3447 L100.6316,54.6617 L99.4046,54.5057 C99.3726,55.4037 99.3206,56.3057 99.2446,57.2117 L100.2896,57.3447 Z" id="Fill-201" fill="#52A558"></path>
                <path d="M90.2711,56.0683 L91.5581,56.2323 C91.6351,55.3273 91.6931,54.4253 91.7291,53.5273 L90.6131,53.3853 L90.2711,56.0683 Z" id="Fill-203" fill="#52A558"></path>
            </g>
        </g>
    </g>
</svg>