<?xml version="1.0" encoding="UTF-8"?>
<svg width="28px" height="28px" viewBox="0 0 28 28" version="1.1" xmlns="http://www.w3.org/2000/svg" xmlns:xlink="http://www.w3.org/1999/xlink">
    <!-- Generator: Sketch 47.1 (45422) - http://www.bohemiancoding.com/sketch -->
    <title>globe</title>
    <desc>Created with Sketch.</desc>
    <defs></defs>
    <g id="Page-1" stroke="none" stroke-width="1" fill="none" fill-rule="evenodd" opacity="0.7">
        <g id="Startsida" transform="translate(-692.000000, -770.000000)" fill-rule="nonzero" fill="#000000">
            <g id="globe" transform="translate(692.000000, 770.000000)">
                <path d="M14,0 C6.28053125,0 0,6.28053125 0,14 C0,21.7194687 6.28053125,28 14,28 C21.7194687,28 28,21.7194687 28,14 C28,6.28053125 21.7194687,0 14,0 Z M25.6955234,8.74475 C24.9177031,9.67028125 24.0311641,10.4832656 23.6671641,10.5951563 C23.1881016,10.147375 22.0299297,9.3043125 21.2888047,9.77314844 C20.9937109,9.96001563 20.7100469,10.3730156 21.0341797,11.2793516 C21.4523203,12.4505938 22.4845469,13.5118594 23.0923437,14.0632734 C22.5152812,14.7650781 21.5832969,16.0337188 21.5832969,16.9167031 C21.5832969,17.0670938 21.5548047,17.1092578 21.3041719,17.3263125 C20.951,17.6333828 20.4166484,18.0970781 20.4166484,19.2500547 C20.4166484,19.9923281 19.1491562,20.624625 18.2878281,20.9134844 C17.9608516,20.4867578 17.5,19.7706797 17.5,19.25 C17.5,18.9173359 17.560375,18.8398438 17.6800312,18.6843125 C17.8924922,18.4091797 18.0833516,18.1112422 18.0833516,17.5 C18.0833516,16.9155 17.9079141,16.5127813 17.7529297,16.1573125 C17.6116719,15.8331797 17.5,15.5768047 17.5,15.1666484 C17.5,13.6439297 14.5759141,13.4166484 12.8333516,13.4166484 C12.3628203,13.4166484 11.6667031,13.2315313 11.6667031,12.8332969 C11.6667031,12.6515703 11.6501875,12.4533281 11.631375,12.2437109 C11.5703984,11.5504375 11.5123203,10.8958828 12.0791562,10.3291016 C12.9781094,9.43014844 14.5377969,9.33335156 15.1667031,9.33335156 C15.7944609,9.33335156 16.0012344,9.43135156 16.2638984,9.55494531 C16.6980078,9.76002344 17.1075625,9.91670313 18.0834062,9.91670313 L18.7567734,9.9246875 C20.0037578,9.94235156 21.0804453,9.96400781 21.7150391,9.33964062 C22.0146719,9.04514844 22.1667578,8.65035937 22.1667578,8.16670312 C22.1667578,6.0606875 18.4953125,5.83335156 16.9167578,5.83335156 C15.8195625,5.83335156 15.0505469,6.20079687 14.3720937,6.52492969 C13.9528047,6.72546875 13.5785781,6.90435156 13.1729609,6.9715625 C13.1735078,6.95504687 13.1752578,6.93683594 13.1786484,6.916875 C13.2618281,6.39564844 14.0257578,5.60322656 14.8471641,5.18683594 C15.4276719,4.89234375 16.1055234,4.46736719 16.1938437,3.78776562 C16.2291719,3.516625 16.1579687,3.27507031 16.0497422,3.07283594 C16.8228594,2.78359375 18.2865156,2.54903906 19.572875,2.45776562 C22.27925,3.76988281 24.4560859,5.9976875 25.6955234,8.74475 Z M4.66664844,20.4166484 L4.66664844,22.7808984 C2.51617187,20.4964375 1.18535156,17.4338281 1.16971094,14.0598828 C2.17038281,14.2598203 2.57342969,14.9755703 2.98954687,15.7323359 C3.19807031,16.1117578 3.39516406,16.4700703 3.67084375,16.74575 C4.16871875,17.243625 4.83749219,17.3188203 5.3256875,17.3735078 C5.5085625,17.3940156 5.78539062,17.4253516 5.83324219,17.5 C5.83324219,17.8024766 5.68055469,18.0371953 5.4105625,18.4256953 C5.07910156,18.9025156 4.66664844,19.4966406 4.66664844,20.4166484 Z M14,26.8333516 C10.9000937,26.8333516 8.05382812,25.7281172 5.83335156,23.8917109 L5.83335156,20.4167031 C5.83335156,19.8618437 6.08174219,19.5046797 6.36885156,19.0910781 C6.66449219,18.6655547 7,18.1830469 7,17.5 C7,16.3874375 5.99566406,16.2746719 5.455625,16.2142969 C5.06936719,16.1709844 4.70482031,16.1299687 4.49575,15.9208984 C4.337375,15.7625234 4.179,15.4748672 4.01154687,15.1706406 C3.55517969,14.3401562 2.883125,13.1380703 1.22303125,12.887 C1.79003125,6.33084375 7.29935937,1.16664844 14,1.16664844 C15.1020078,1.16664844 16.1661172,1.32108594 17.1874062,1.58358594 C16.1982734,1.76903125 15.2023594,2.05614062 14.75425,2.50425 C14.6408828,2.61761719 14.5788125,2.77314844 14.5833516,2.93376562 C14.5884922,3.09383594 14.6590937,3.245375 14.77875,3.35245312 C14.9883672,3.53871875 15.0288359,3.63272656 15.0368203,3.63272656 C15.0236953,3.66061719 14.9166172,3.84349219 14.3195937,4.14657031 C13.3340703,4.64614062 12.1959141,5.6686875 12.0267109,6.73285156 C11.9492187,7.21590625 12.0893828,7.66423437 12.4208984,7.99580469 C12.5302734,8.10517969 12.6783672,8.16670312 12.8333516,8.16670312 C13.6434375,8.16670312 14.2694453,7.86707031 14.875,7.57766406 C15.4965234,7.28082031 16.0838125,7 16.9166484,7 C19.2061406,7 21,7.51269531 21,8.16664844 C21,8.40645312 20.9253516,8.47995312 20.8969141,8.50729687 C20.6103516,8.78926562 19.6345625,8.77105469 18.776625,8.75792969 C18.5493437,8.7539375 18.3169219,8.74994531 18.0833516,8.74994531 C17.2915312,8.74994531 17.0459844,8.63428125 16.7617187,8.49985937 C16.43075,8.34378125 16.0559219,8.16659375 15.1666484,8.16659375 C14.2050781,8.16659375 12.4180547,8.34033594 11.2541953,9.50414062 C10.3023047,10.4554844 10.4030937,11.5936406 10.4692109,12.3461953 C10.4845781,12.5193906 10.5,12.6834531 10.5,12.8332422 C10.5,13.9822266 11.6740859,14.5832422 12.8333516,14.5832422 C14.6163828,14.5832422 16.1579141,14.9159062 16.3333516,15.1665937 C16.3333516,15.8194531 16.5276016,16.2654844 16.6836797,16.6231953 C16.8135625,16.9222812 16.9166484,17.1580937 16.9166484,17.4998906 C16.9166484,17.7641953 16.8733359,17.8206328 16.7565781,17.9710234 C16.5338359,18.2604297 16.3332969,18.5754297 16.3332969,19.2498906 C16.3332969,20.4775156 17.5153672,21.8241953 17.6497891,21.9740391 C17.7620078,22.0982344 17.9203828,22.1665937 18.0832969,22.1665937 C18.1316953,22.1665937 18.1801484,22.1609062 18.228,22.1483828 C18.5714922,22.0600625 21.5832969,21.2312187 21.5832969,19.2499453 C21.5832969,18.6290234 21.7763984,18.4615156 22.0691953,18.2074375 C22.3563047,17.9578984 22.7499453,17.6167031 22.7499453,16.9165937 C22.7499453,16.4489062 23.5799375,15.2417891 24.3490078,14.3912891 C24.4578359,14.2710859 24.5119219,14.1104687 24.4977031,13.9486484 C24.4834844,13.7868828 24.4025469,13.6381875 24.2744141,13.5390391 C23.8209453,13.1875625 22.5688203,12.0431172 22.1495859,10.9328516 C22.3871484,11.0570469 22.6844844,11.2592812 22.9208984,11.4956953 C23.1151484,11.6910937 23.3755156,11.7845 23.6717031,11.7725781 C24.4429609,11.7285 25.4522734,10.7784687 26.1767734,9.97352344 C26.5972656,11.2415078 26.8332969,12.5926719 26.8332969,13.9999453 C26.8333516,21.0763437 21.0763437,26.8333516 14,26.8333516 Z" id="Shape"></path>
            </g>
        </g>
    </g>
</svg>