<?xml version="1.0" encoding="UTF-8"?>
<svg width="1440px" height="556px" viewBox="0 0 1440 556" version="1.1" xmlns="http://www.w3.org/2000/svg" xmlns:xlink="http://www.w3.org/1999/xlink">
    <!-- Generator: Sketch 47.1 (45422) - http://www.bohemiancoding.com/sketch -->
    <title>Group@2x</title>
    <desc>Created with Sketch.</desc>
    <defs>
        <polygon id="path-1" points="184.459259 727 668.441845 727 668.441845 0 0 0 0 727 184.459259 727 184.459259 709.936406 166.702065 709.936406 166.702065 727.000079 184.459259 727.000079"></polygon>
        <polygon id="path-3" points="184.459259 727 668.441845 727 668.441845 0 0 0 0 727 184.459259 727 184.459259 709.936406 166.702065 709.936406 166.702065 727.000079 184.459259 727.000079"></polygon>
        <polygon id="path-5" points="184.459259 727 668.441845 727 668.441845 0 0 0 0 727 184.459259 727 184.459259 709.936406 166.702065 709.936406 166.702065 727.000079 184.459259 727.000079"></polygon>
    </defs>
    <g id="Page-1" stroke="none" stroke-width="1" fill="none" fill-rule="evenodd">
        <g id="Startsida" transform="translate(0.000000, -148.000000)">
            <g id="Page-1-+-Page-1-Copy-Mask" transform="translate(0.000000, 148.000000)">
                <g id="Group" transform="translate(-284.000000, -85.000000)">
                    <g id="Page-1">
                        <polygon id="Fill-3" fill="#020303" points="465.294509 486.15619 539.875208 495.42879 514.617383 439.762634"></polygon>
                        <polygon id="Fill-5" fill="#B5C89F" points="445.653727 131.372129 456.389351 83.4992343 386.261231 108.185254"></polygon>
                        <polygon id="Fill-6" fill="#FBCD88" points="608.196486 395.229709 626.700499 331.770291 559.911814 347.12373"></polygon>
                        <g id="Group-170">
                            <path d="M569.542419,538.346958 C567.728022,540.160135 567.728022,543.099573 569.542419,544.912751 C571.35603,546.725142 574.295385,546.725142 576.108996,544.912751 C577.922607,543.099573 577.922607,540.160135 576.108996,538.346958 C574.295385,536.533781 571.35603,536.533781 569.542419,538.346958" id="Fill-15" fill="#FEFEFE"></path>
                            <path d="M524.332012,310.008126 C521.822673,310.008126 519.788158,312.041368 519.788158,314.550894 C519.788158,317.060419 521.822673,319.094447 524.332012,319.094447 C526.841352,319.094447 528.875867,317.060419 528.875867,314.550894 C528.875867,312.041368 526.841352,310.008126 524.332012,310.008126" id="Fill-19" fill="#FEFEFE"></path>
                            <path d="M329.462532,300.922198 C326.953193,300.922198 324.918678,302.95544 324.918678,305.464965 C324.918678,307.974491 326.953193,310.008519 329.462532,310.008519 C331.971872,310.008519 334.006386,307.974491 334.006386,305.464965 C334.006386,302.95544 331.971872,300.922198 329.462532,300.922198" id="Fill-21" fill="#FEFEFE"></path>
                            <path d="M498.219944,573.480392 C495.710604,573.480392 493.67609,575.513635 493.67609,578.02316 C493.67609,580.532685 495.710604,582.566714 498.219944,582.566714 C500.729284,582.566714 502.763798,580.532685 502.763798,578.02316 C502.763798,575.513635 500.729284,573.480392 498.219944,573.480392" id="Fill-29" fill="#020303"></path>
                            <path d="M315.997708,526.219262 C313.488369,526.219262 311.453854,528.121251 311.453854,530.468086 C311.453854,532.815706 313.488369,534.717696 315.997708,534.717696 C318.507048,534.717696 320.541563,532.815706 320.541563,530.468086 C320.541563,528.121251 318.507048,526.219262 315.997708,526.219262" id="Fill-33" fill="#FEFEFE"></path>
                            <path d="M461.260878,336.056418 C458.751538,336.056418 456.717024,337.958407 456.717024,340.305242 C456.717024,342.652862 458.751538,344.554852 461.260878,344.554852 C463.770218,344.554852 465.804732,342.652862 465.804732,340.305242 C465.804732,337.958407 463.770218,336.056418 461.260878,336.056418" id="Fill-39" fill="#FEFEFE"></path>
                            <path d="M363.951094,502.140472 C348.113639,502.140472 335.273713,514.823282 335.273713,530.468322 C335.273713,546.113362 348.113639,558.796171 363.951094,558.796171 C379.788549,558.796171 392.629261,546.113362 392.629261,530.468322 C392.629261,514.823282 379.788549,502.140472 363.951094,502.140472" id="Fill-41" fill="#E69283"></path>
                            <g id="Group-45">
                                <mask id="mask-2" fill="white">
                                    <use xlink:href="#path-1"></use>
                                </mask>
                                <g id="Clip-44"></g>
                            </g>
                            <path d="M570.07133,86.4905219 C553.530286,86.4905219 540.121199,99.8979738 540.121199,116.434277 C540.121199,132.972151 553.530286,146.376459 570.07133,146.376459 C586.613161,146.376459 600.022248,132.972151 600.022248,116.434277 C600.022248,99.8979738 586.613161,86.4905219 570.07133,86.4905219" id="Fill-48" fill="#98B0DC"></path>
                            <path d="M551.194917,123.360975 C551.194917,123.360975 547.080292,109.140069 556.803197,101.532899 C566.526102,93.9249418 578.038248,97.1158824 578.038248,97.1158824" id="Fill-50" fill="#98B0DC"></path>
                            <path d="M578.027871,118.735055 C576.457175,118.735055 575.184424,120.007501 575.184424,121.577821 C575.184424,123.149713 576.457175,124.42216 578.027871,124.42216 C579.598566,124.42216 580.872889,123.149713 580.872889,121.577821 C580.872889,120.007501 579.598566,118.735055 578.027871,118.735055" id="Fill-52" fill="#98B0DC"></path>
                            <path d="M585.268951,114.375491 C584.455302,114.375491 583.793377,115.035686 583.793377,115.84914 C583.793377,116.664952 584.455302,117.325146 585.268951,117.325146 C586.084171,117.325146 586.744524,116.664952 586.744524,115.84914 C586.744524,115.035686 586.084171,114.375491 585.268951,114.375491" id="Fill-54" fill="#98B0DC"></path>
                            <path d="M586.744445,121.249453 C585.930797,121.249453 585.268872,121.910434 585.268872,122.726245 C585.268872,123.539699 585.930797,124.199894 586.744445,124.199894 C587.561239,124.199894 588.221591,123.539699 588.221591,122.726245 C588.221591,121.910434 587.561239,121.249453 586.744445,121.249453" id="Fill-56" fill="#98B0DC"></path>
                            <path d="M472.341986,218.187161 C467.398776,218.187161 465.490043,215.15734 462.543613,209.801118 C459.714317,204.657102 456.194009,198.25793 447.642443,198.25793 C438.812587,198.25793 434.77972,205.015493 431.834862,209.949662 C428.895507,214.872827 427.288649,217.030249 424.239235,217.030249 C421.664647,217.030249 420.733078,215.642268 418.639603,210.511613 C416.649898,205.631675 413.64215,198.25793 404.342185,198.25793 C395.385761,198.25793 391.978656,205.024925 389.489756,209.966953 C386.908092,215.093678 385.613329,217.030249 382.227451,217.030249 C379.330547,217.030249 378.409198,215.765662 376.281133,210.736394 C374.179011,205.766858 371.002244,198.25793 360.527009,198.25793 C350.201139,198.25793 346.672184,205.366025 344.093664,210.556412 C341.712465,215.352254 340.604016,217.030249 337.510579,217.030249 C335.288178,217.030249 333.487145,218.831637 333.487145,221.05272 C333.487145,223.276161 335.288178,225.076764 337.510579,225.076764 C345.868755,225.076764 349.010146,218.752257 351.302513,214.134824 C353.857448,208.987664 355.428144,206.304445 360.527009,206.304445 C365.448207,206.304445 366.706022,208.760526 368.868676,213.871532 C370.870173,218.599783 373.609064,225.076764 382.227451,225.076764 C390.891433,225.076764 394.236433,218.433948 396.678951,213.585448 C399.282627,208.41078 400.706315,206.304445 404.342185,206.304445 C407.896297,206.304445 409.041694,208.29053 411.187053,213.551652 C413.171255,218.415086 415.888134,225.076764 424.239235,225.076764 C432.17683,225.076764 435.818989,218.975465 438.744979,214.071948 C441.707132,209.110272 443.579703,206.304445 447.642443,206.304445 C451.092785,206.304445 452.608452,208.438288 455.491205,213.677404 C458.405404,218.976251 462.398178,226.233676 472.341986,226.233676 C474.564387,226.233676 476.36542,224.433074 476.36542,222.210419 C476.36542,219.98855 474.564387,218.187161 472.341986,218.187161" id="Fill-58" fill="#E69283"></path>
                            <path d="M614.790403,620.461412 C585.518705,620.461412 565.855923,610.709394 565.855923,601.600281 C565.855923,592.491167 585.518705,582.73915 614.790403,582.73915 C644.062101,582.73915 663.724884,592.491167 663.724884,601.600281 C663.724884,610.709394 644.062101,620.461412 614.790403,620.461412 M614.790403,578.023474 C584.705057,578.023474 561.139119,588.379884 561.139119,601.600281 C561.139119,614.820678 584.705057,625.177087 614.790403,625.177087 C644.87575,625.177087 668.441688,614.820678 668.441688,601.600281 C668.441688,588.379884 644.87575,578.023474 614.790403,578.023474" id="Fill-60" fill="#FEFEFE"></path>
                            <path d="M666.087924,604.61737 C665.035291,603.847929 663.559717,604.077425 662.791664,605.127449 L614.790325,670.698133 L566.788985,605.127449 C566.018574,604.075853 564.543,603.847929 563.492725,604.61737 C562.440878,605.386811 562.212899,606.861246 562.982524,607.912056 L612.887094,676.082649 C613.33126,676.689399 614.038781,677.047791 614.790325,677.047791 C615.541869,677.047791 616.250175,676.689399 616.693555,676.082649 L666.597339,607.912056 C667.366964,606.861246 667.138199,605.386811 666.087924,604.61737" id="Fill-62" fill="#FEFEFE"></path>
                            <path d="M576.129357,598.548531 C574.711958,598.548531 573.561844,599.69837 573.561844,601.115431 C573.561844,602.533277 574.711958,603.681544 576.129357,603.681544 C577.548329,603.681544 578.698443,602.533277 578.698443,601.115431 C578.698443,599.69837 577.548329,598.548531 576.129357,598.548531" id="Fill-64" fill="#FEFEFE"></path>
                            <path d="M586.118761,598.548531 C584.700576,598.548531 583.551248,599.69837 583.551248,601.115431 C583.551248,602.533277 584.700576,603.681544 586.118761,603.681544 C587.536947,603.681544 588.686275,602.533277 588.686275,601.115431 C588.686275,599.69837 587.536947,598.548531 586.118761,598.548531" id="Fill-66" fill="#FEFEFE"></path>
                            <path d="M596.106672,598.548531 C594.689272,598.548531 593.539158,599.69837 593.539158,601.115431 C593.539158,602.533277 594.689272,603.681544 596.106672,603.681544 C597.525644,603.681544 598.675758,602.533277 598.675758,601.115431 C598.675758,599.69837 597.525644,598.548531 596.106672,598.548531" id="Fill-68" fill="#FEFEFE"></path>
                            <path d="M606.096076,598.548531 C604.67789,598.548531 603.528563,599.69837 603.528563,601.115431 C603.528563,602.533277 604.67789,603.681544 606.096076,603.681544 C607.514262,603.681544 608.66359,602.533277 608.66359,601.115431 C608.66359,599.69837 607.514262,598.548531 606.096076,598.548531" id="Fill-70" fill="#FEFEFE"></path>
                            <path d="M616.083987,598.548531 C614.666587,598.548531 613.516473,599.69837 613.516473,601.115431 C613.516473,602.533277 614.666587,603.681544 616.083987,603.681544 C617.502959,603.681544 618.653073,602.533277 618.653073,601.115431 C618.653073,599.69837 617.502959,598.548531 616.083987,598.548531" id="Fill-72" fill="#FEFEFE"></path>
                            <path d="M626.073391,598.548531 C624.655205,598.548531 623.505877,599.69837 623.505877,601.115431 C623.505877,602.533277 624.655205,603.681544 626.073391,603.681544 C627.491577,603.681544 628.640904,602.533277 628.640904,601.115431 C628.640904,599.69837 627.491577,598.548531 626.073391,598.548531" id="Fill-74" fill="#FEFEFE"></path>
                            <path d="M586.118761,590.79038 C584.700576,590.79038 583.551248,591.940219 583.551248,593.35728 C583.551248,594.775126 584.700576,595.923393 586.118761,595.923393 C587.536947,595.923393 588.686275,594.775126 588.686275,593.35728 C588.686275,591.940219 587.536947,590.79038 586.118761,590.79038" id="Fill-76" fill="#FEFEFE"></path>
                            <path d="M596.106672,590.79038 C594.689272,590.79038 593.539158,591.940219 593.539158,593.35728 C593.539158,594.775126 594.689272,595.923393 596.106672,595.923393 C597.525644,595.923393 598.675758,594.775126 598.675758,593.35728 C598.675758,591.940219 597.525644,590.79038 596.106672,590.79038" id="Fill-78" fill="#FEFEFE"></path>
                            <path d="M606.096076,590.79038 C604.67789,590.79038 603.528563,591.940219 603.528563,593.35728 C603.528563,594.775126 604.67789,595.923393 606.096076,595.923393 C607.514262,595.923393 608.66359,594.775126 608.66359,593.35728 C608.66359,591.940219 607.514262,590.79038 606.096076,590.79038" id="Fill-80" fill="#FEFEFE"></path>
                            <path d="M616.083987,590.79038 C614.666587,590.79038 613.516473,591.940219 613.516473,593.35728 C613.516473,594.775126 614.666587,595.923393 616.083987,595.923393 C617.502959,595.923393 618.653073,594.775126 618.653073,593.35728 C618.653073,591.940219 617.502959,590.79038 616.083987,590.79038" id="Fill-82" fill="#FEFEFE"></path>
                            <path d="M626.073391,590.79038 C624.655205,590.79038 623.505877,591.940219 623.505877,593.35728 C623.505877,594.775126 624.655205,595.923393 626.073391,595.923393 C627.491577,595.923393 628.640904,594.775126 628.640904,593.35728 C628.640904,591.940219 627.491577,590.79038 626.073391,590.79038" id="Fill-84" fill="#FEFEFE"></path>
                            <path d="M636.061302,590.79038 C634.643902,590.79038 633.493788,591.940219 633.493788,593.35728 C633.493788,594.775126 634.643902,595.923393 636.061302,595.923393 C637.480273,595.923393 638.630387,594.775126 638.630387,593.35728 C638.630387,591.940219 637.480273,590.79038 636.061302,590.79038" id="Fill-86" fill="#FEFEFE"></path>
                            <path d="M646.050706,590.79038 C644.63252,590.79038 643.483192,591.940219 643.483192,593.35728 C643.483192,594.775126 644.63252,595.923393 646.050706,595.923393 C647.468891,595.923393 648.618219,594.775126 648.618219,593.35728 C648.618219,591.940219 647.468891,590.79038 646.050706,590.79038" id="Fill-88" fill="#FEFEFE"></path>
                            <path d="M586.118761,606.520067 C584.700576,606.520067 583.551248,607.668334 583.551248,609.086966 C583.551248,610.503241 584.700576,611.65308 586.118761,611.65308 C587.536947,611.65308 588.686275,610.503241 588.686275,609.086966 C588.686275,607.668334 587.536947,606.520067 586.118761,606.520067" id="Fill-90" fill="#FEFEFE"></path>
                            <path d="M596.106672,606.520067 C594.689272,606.520067 593.539158,607.668334 593.539158,609.086966 C593.539158,610.503241 594.689272,611.65308 596.106672,611.65308 C597.525644,611.65308 598.675758,610.503241 598.675758,609.086966 C598.675758,607.668334 597.525644,606.520067 596.106672,606.520067" id="Fill-92" fill="#FEFEFE"></path>
                            <path d="M606.096076,606.520067 C604.67789,606.520067 603.528563,607.668334 603.528563,609.086966 C603.528563,610.503241 604.67789,611.65308 606.096076,611.65308 C607.514262,611.65308 608.66359,610.503241 608.66359,609.086966 C608.66359,607.668334 607.514262,606.520067 606.096076,606.520067" id="Fill-94" fill="#FEFEFE"></path>
                            <path d="M616.083987,606.520067 C614.666587,606.520067 613.516473,607.668334 613.516473,609.086966 C613.516473,610.503241 614.666587,611.65308 616.083987,611.65308 C617.502959,611.65308 618.653073,610.503241 618.653073,609.086966 C618.653073,607.668334 617.502959,606.520067 616.083987,606.520067" id="Fill-96" fill="#FEFEFE"></path>
                            <path d="M626.073391,606.520067 C624.655205,606.520067 623.505877,607.668334 623.505877,609.086966 C623.505877,610.503241 624.655205,611.65308 626.073391,611.65308 C627.491577,611.65308 628.640904,610.503241 628.640904,609.086966 C628.640904,607.668334 627.491577,606.520067 626.073391,606.520067" id="Fill-98" fill="#FEFEFE"></path>
                            <path d="M636.061302,606.520067 C634.643902,606.520067 633.493788,607.668334 633.493788,609.086966 C633.493788,610.503241 634.643902,611.65308 636.061302,611.65308 C637.480273,611.65308 638.630387,610.503241 638.630387,609.086966 C638.630387,607.668334 637.480273,606.520067 636.061302,606.520067" id="Fill-100" fill="#FEFEFE"></path>
                            <path d="M646.050706,606.520067 C644.63252,606.520067 643.483192,607.668334 643.483192,609.086966 C643.483192,610.503241 644.63252,611.65308 646.050706,611.65308 C647.468891,611.65308 648.618219,610.503241 648.618219,609.086966 C648.618219,607.668334 647.468891,606.520067 646.050706,606.520067" id="Fill-102" fill="#FEFEFE"></path>
                            <path d="M636.061302,598.548531 C634.643902,598.548531 633.493788,599.69837 633.493788,601.115431 C633.493788,602.533277 634.643902,603.681544 636.061302,603.681544 C637.480273,603.681544 638.630387,602.533277 638.630387,601.115431 C638.630387,599.69837 637.480273,598.548531 636.061302,598.548531" id="Fill-104" fill="#FEFEFE"></path>
                            <path d="M646.050706,598.548531 C644.63252,598.548531 643.483192,599.69837 643.483192,601.115431 C643.483192,602.533277 644.63252,603.681544 646.050706,603.681544 C647.468891,603.681544 648.618219,602.533277 648.618219,601.115431 C648.618219,599.69837 647.468891,598.548531 646.050706,598.548531" id="Fill-106" fill="#FEFEFE"></path>
                            <path d="M656.038616,598.548531 C654.621217,598.548531 653.471103,599.69837 653.471103,601.115431 C653.471103,602.533277 654.621217,603.681544 656.038616,603.681544 C657.457588,603.681544 658.607702,602.533277 658.607702,601.115431 C658.607702,599.69837 657.457588,598.548531 656.038616,598.548531" id="Fill-108" fill="#FEFEFE"></path>
                            <path d="M386.419274,297.098335 L320.560115,353.960738" id="Fill-110" fill="#98B0DC"></path>
                            <path d="M385.647684,296.206522 L319.789311,353.068139 C319.297191,353.494122 319.242162,354.237627 319.66746,354.731987 C320.093545,355.224775 320.838014,355.278219 321.331706,354.853023 L387.190078,297.991405 C387.682198,297.565423 387.737228,296.821132 387.311143,296.327558 C386.885058,295.833984 386.14059,295.781325 385.647684,296.206522" id="Fill-112" fill="#98B0DC"></path>
                            <path d="M400.862913,313.819649 L335.004541,370.682053" id="Fill-114" fill="#98B0DC"></path>
                            <path d="M400.092109,312.927837 L334.233736,369.79024 C333.74083,370.215437 333.685801,370.959727 334.111886,371.453301 C334.53797,371.94609 335.282439,371.999534 335.775345,371.574337 L401.633718,314.71272 C402.126624,314.286737 402.180867,313.542446 401.754782,313.049658 C401.328698,312.556084 400.585015,312.50264 400.092109,312.927837" id="Fill-116" fill="#98B0DC"></path>
                            <path d="M415.308125,330.543243 L349.449752,387.40486" id="Fill-118" fill="#98B0DC"></path>
                            <path d="M414.53732,329.650644 L348.678948,386.512262 C348.186042,386.938244 348.131013,387.681749 348.557097,388.175323 C348.983182,388.668111 349.727651,388.722342 350.220557,388.297145 L416.078929,331.434742 C416.571049,331.009545 416.626865,330.264468 416.20078,329.77168 C415.774695,329.278106 415.030226,329.225447 414.53732,329.650644" id="Fill-120" fill="#98B0DC"></path>
                            <path d="M429.75255,347.265343 L363.894178,404.126961" id="Fill-122" fill="#98B0DC"></path>
                            <path d="M428.981824,346.372745 L363.123452,403.234362 C362.631332,403.660345 362.576303,404.404635 363.001601,404.897423 C363.427686,405.390212 364.172941,405.444442 364.665847,405.019245 L430.523433,348.156842 C431.016339,347.731645 431.071369,346.987354 430.645284,346.49378 C430.219985,346.001778 429.47473,345.947548 428.981824,346.372745" id="Fill-124" fill="#98B0DC"></path>
                            <path d="M444.197762,363.987444 L378.339389,420.849061" id="Fill-126" fill="#98B0DC"></path>
                            <path d="M443.427036,363.094766 L377.568663,419.956384 C377.076544,420.382366 377.020728,421.125871 377.446027,421.619445 C377.872111,422.112233 378.617366,422.166464 379.110272,421.741267 L444.967859,364.878864 C445.461551,364.453667 445.515794,363.709376 445.089709,363.215802 C444.663625,362.723014 443.919156,362.66957 443.427036,363.094766" id="Fill-128" fill="#98B0DC"></path>
                            <path d="M319.514557,354.863083 L377.293045,421.751798" id="Fill-130" fill="#98B0DC"></path>
                            <path d="M320.406662,354.093249 C319.980577,353.599675 319.236895,353.545444 318.743989,353.971427 C318.251083,354.396624 318.195267,355.140915 318.621352,355.634489 L376.400626,422.522418 C376.82671,423.015993 377.571179,423.069437 378.064085,422.64424 C378.556205,422.219043 378.61202,421.473967 378.185936,420.981178 L320.406662,354.093249 Z" id="Fill-132" fill="#98B0DC"></path>
                            <path d="M336.241051,340.421326 L394.019539,407.310042" id="Fill-134" fill="#98B0DC"></path>
                            <path d="M337.13347,339.651492 C336.707386,339.157918 335.962917,339.104474 335.470011,339.52967 C334.977891,339.955653 334.922075,340.699158 335.34816,341.192732 L393.127434,408.079876 C393.553518,408.57345 394.297201,408.62768 394.790107,408.202483 C395.283013,407.777287 395.338829,407.032996 394.912744,406.539422 L337.13347,339.651492 Z" id="Fill-136" fill="#98B0DC"></path>
                            <path d="M352.966365,325.981141 L410.744853,392.869071" id="Fill-138" fill="#98B0DC"></path>
                            <path d="M353.859178,325.210521 C353.433093,324.717733 352.688624,324.663503 352.195718,325.0887 C351.702812,325.514682 351.647783,326.258187 352.073867,326.750975 L409.853927,393.639691 C410.279226,394.132479 411.022909,394.187495 411.516601,393.762298 C412.008721,393.336316 412.06375,392.592025 411.637665,392.099237 L353.859178,325.210521 Z" id="Fill-140" fill="#98B0DC"></path>
                            <path d="M369.693173,311.539384 L427.471661,378.427314" id="Fill-142" fill="#98B0DC"></path>
                            <path d="M370.585986,310.768764 C370.159901,310.27519 369.415432,310.221746 368.922526,310.646943 C368.42962,311.07214 368.374591,311.81643 368.800676,312.310004 L426.579949,379.197934 C427.006034,379.690722 427.749717,379.745738 428.242623,379.319756 C428.736315,378.894559 428.790558,378.149482 428.364473,377.656694 L370.585986,310.768764 Z" id="Fill-144" fill="#98B0DC"></path>
                            <path d="M386.419274,297.098335 L444.197762,363.987051" id="Fill-146" fill="#98B0DC"></path>
                            <path d="M387.3113,296.327794 C386.885216,295.83422 386.140747,295.781561 385.647841,296.206758 C385.155721,296.631955 385.099905,297.37546 385.52599,297.869034 L443.305264,364.756963 C443.731348,365.250537 444.475817,365.304768 444.967937,364.878785 C445.461629,364.453588 445.515873,363.709297 445.089788,363.215723 L387.3113,296.327794 Z" id="Fill-148" fill="#98B0DC"></path>
                            <path d="M284.229092,70.4097535 C281.189898,70.4097535 278.726154,72.8736941 278.726154,75.9113751 L278.726154,127.073312 C278.726154,130.112565 281.189898,132.574934 284.229092,132.574934 C287.268286,132.574934 289.732029,130.112565 289.732029,127.073312 L289.732029,75.9113751 C289.732029,72.8736941 287.268286,70.4097535 284.229092,70.4097535" id="Fill-152" fill="#FEFEFE"></path>
                            <path d="M304.893566,70.4097535 C301.854372,70.4097535 299.390628,72.8736941 299.390628,75.9113751 L299.390628,127.073312 C299.390628,130.112565 301.854372,132.574934 304.893566,132.574934 C307.93276,132.574934 310.396504,130.112565 310.396504,127.073312 L310.396504,75.9113751 C310.396504,72.8736941 307.93276,70.4097535 304.893566,70.4097535" id="Fill-154" fill="#FEFEFE"></path>
                            <path d="M609.927693,259.596295 C608.951315,260.640032 607.625893,261.214558 606.195915,261.214558 C604.89565,261.214558 603.65513,260.724914 602.70548,259.836009 L557.897417,217.916796 C555.840104,215.992014 555.732404,212.752345 557.657646,210.695525 C558.619874,209.667507 559.980672,209.078048 561.389424,209.078048 C562.68969,209.078048 563.929423,209.567692 564.879859,210.456597 L609.687922,252.375024 C611.746021,254.300592 611.852935,257.539475 609.927693,259.596295 L609.927693,259.596295 Z M565.417574,209.882071 C564.320131,208.856411 562.890154,208.292102 561.389424,208.292102 C559.762913,208.292102 558.193789,208.971945 557.082982,210.158724 C554.86294,212.531494 554.986363,216.269453 557.360487,218.490537 L602.168551,260.40975 C603.265208,261.435409 604.695185,262.000504 606.195915,262.000504 C607.820854,262.000504 609.39155,261.319875 610.501571,260.133882 C612.723972,257.760326 612.598976,254.022367 610.225638,251.801284 L565.417574,209.882071 Z" id="Fill-156" fill="#FEFEFE"></path>
                            <path d="M433.646429,615.565361 C425.474566,615.565361 418.102202,620.824912 414.022167,624.411969 C410.329696,620.716451 403.504481,615.565361 394.149486,615.565361 C384.864458,615.565361 377.962988,620.646502 374.184042,624.321585 C370.295824,620.685013 363.288226,615.565361 354.651758,615.565361 C341.583067,615.565361 331.978868,627.30818 331.577154,627.808041 C330.092147,629.651871 330.384589,632.348451 332.228073,633.832317 C334.070771,635.316183 336.768783,635.024597 338.252217,633.180768 C338.325328,633.09117 345.784167,624.133744 354.651758,624.133744 C363.538216,624.133744 370.688105,633.050301 370.750995,633.131253 C371.58587,634.199354 372.826389,634.762877 374.084203,634.776238 C374.086562,634.776238 374.08892,634.776238 374.091278,634.777024 C374.105429,634.777024 374.118793,634.779382 374.132157,634.779382 C374.135302,634.779382 374.138447,634.778596 374.141591,634.778596 C374.230424,634.784098 374.319257,634.788813 374.40809,634.788813 C375.74609,634.788813 377.062079,634.1632 377.896953,632.988211 C377.959844,632.900185 384.405356,624.133744 394.149486,624.133744 C403.845663,624.133744 410.041184,632.843597 410.091497,632.915904 C410.944452,634.160842 412.339054,634.811606 413.743089,634.774666 C414.985181,634.821823 416.236706,634.332965 417.121893,633.329312 C417.203651,633.23657 425.467491,624.133744 433.646429,624.133744 C440.460638,624.133744 447.674203,630.74355 449.87302,633.284513 C450.720472,634.271661 451.919327,634.778596 453.126042,634.778596 C454.114213,634.778596 455.1071,634.440639 455.914459,633.746649 C457.710776,632.205409 457.918315,629.500969 456.376706,627.705082 C455.951408,627.209151 445.818927,615.565361 433.646429,615.565361" id="Fill-158" fill="#FEFEFE"></path>
                            <path d="M364.528431,620.776104 C364.372776,620.666072 360.66301,618.093671 355.260697,618.008789 C349.900836,617.912903 345.869541,620.351694 345.701308,620.454653 C345.052748,620.854699 344.850711,621.703521 345.249281,622.351926 C345.648637,623.000331 346.497662,623.20232 347.147009,622.803845 C347.180812,622.78341 350.516379,620.762743 354.982406,620.762743 C355.060233,620.762743 355.138847,620.764315 355.21746,620.765101 C359.734586,620.836622 362.909781,623.010549 362.938082,623.030197 C363.179425,623.199962 363.45693,623.2817 363.732077,623.2817 C364.165237,623.2817 364.591321,623.078926 364.860179,622.697742 C365.298842,622.075273 365.150263,621.215448 364.528431,620.776104" id="Fill-160" fill="#FEFEFE"></path>
                            <path d="M388.29326,618.88952 C384.611009,619.104083 379.785718,622.879767 379.248003,623.30968 C378.652113,623.785177 378.555419,624.652075 379.031816,625.247037 C379.303032,625.587351 379.703961,625.764975 380.109606,625.764975 C380.411481,625.764975 380.714143,625.666732 380.969636,625.464744 C382.243959,624.448515 386.071646,621.781801 388.454418,621.642688 C389.214609,621.59789 389.794776,620.945554 389.750753,620.185545 C389.705943,619.425535 389.058955,618.847079 388.29326,618.88952" id="Fill-162" fill="#FEFEFE"></path>
                            <path d="M424.281136,621.093076 C420.403138,623.025718 419.389811,623.894974 417.55183,625.472367 L416.934715,625.998951 C416.355334,626.491739 416.285368,627.362567 416.778274,627.942595 C417.051062,628.263261 417.438626,628.42831 417.829335,628.42831 C418.144575,628.42831 418.462959,628.320635 418.722383,628.10057 L419.34736,627.564555 C421.07371,626.085405 421.940029,625.341114 425.511436,623.560947 C426.1938,623.220632 426.47052,622.392245 426.13091,621.711616 C425.7913,621.030201 424.961928,620.753548 424.281136,621.093076" id="Fill-164" fill="#FEFEFE"></path>
                        </g>
                    </g>
                    <g id="Page-1-Copy" transform="translate(669.000000, 0.000000)">
                        <polygon id="Fill-3" fill="#020303" points="465.294509 486.15619 539.875208 495.42879 514.617383 439.762634"></polygon>
                        <polygon id="Fill-4" fill="#B5C89F" points="149.161398 575.602903 213.723794 612.327718 192.000147 552.20827"></polygon>
                        <polygon id="Fill-5" fill="#B5C89F" points="445.653727 131.372129 456.389351 83.4992343 386.261231 108.185254"></polygon>
                        <polygon id="Fill-6" fill="#FBCD88" points="608.196486 395.229709 626.700499 331.770291 559.911814 347.12373"></polygon>
                        <polygon id="Fill-8" fill="#98B0DC" points="41.7809616 238.251149 95.7304493 192.317979 22.2628952 182.584992"></polygon>
                        <polygon id="Fill-9" fill="#E69283" points="105.200459 570.02144 105.748752 544.415008 85.7121464 561.866899"></polygon>
                        <polygon id="Fill-10" fill="#020303" points="221.730016 228.23124 235.986689 172.565084 182.55574 200.419501"></polygon>
                        <g id="Group-170">
                            <path d="M20.0170932,331.510742 C13.9811566,331.510742 9.08825887,336.40247 9.08825887,342.437749 C9.08825887,348.472242 13.9811566,353.36397 20.0170932,353.36397 C26.0530297,353.36397 30.9459275,348.472242 30.9459275,342.437749 C30.9459275,336.40247 26.0530297,331.510742 20.0170932,331.510742" id="Fill-13" fill="#FEFEFE"></path>
                            <path d="M569.542419,538.346958 C567.728022,540.160135 567.728022,543.099573 569.542419,544.912751 C571.35603,546.725142 574.295385,546.725142 576.108996,544.912751 C577.922607,543.099573 577.922607,540.160135 576.108996,538.346958 C574.295385,536.533781 571.35603,536.533781 569.542419,538.346958" id="Fill-15" fill="#FEFEFE"></path>
                            <path d="M524.332012,310.008126 C521.822673,310.008126 519.788158,312.041368 519.788158,314.550894 C519.788158,317.060419 521.822673,319.094447 524.332012,319.094447 C526.841352,319.094447 528.875867,317.060419 528.875867,314.550894 C528.875867,312.041368 526.841352,310.008126 524.332012,310.008126" id="Fill-19" fill="#FEFEFE"></path>
                            <path d="M329.462532,300.922198 C326.953193,300.922198 324.918678,302.95544 324.918678,305.464965 C324.918678,307.974491 326.953193,310.008519 329.462532,310.008519 C331.971872,310.008519 334.006386,307.974491 334.006386,305.464965 C334.006386,302.95544 331.971872,300.922198 329.462532,300.922198" id="Fill-21" fill="#FEFEFE"></path>
                            <path d="M256.772813,286.833488 C254.263473,286.833488 252.228959,288.86673 252.228959,291.376256 C252.228959,293.885781 254.263473,295.919809 256.772813,295.919809 C259.282152,295.919809 261.316667,293.885781 261.316667,291.376256 C261.316667,288.86673 259.282152,286.833488 256.772813,286.833488" id="Fill-23" fill="#FEFEFE"></path>
                            <path d="M95.8053596,79.4450667 C93.29602,79.4450667 91.2615053,81.4783089 91.2615053,83.9878343 C91.2615053,86.4973597 93.29602,88.5313878 95.8053596,88.5313878 C98.3146992,88.5313878 100.349214,86.4973597 100.349214,83.9878343 C100.349214,81.4783089 98.3146992,79.4450667 95.8053596,79.4450667" id="Fill-25" fill="#FEFEFE"></path>
                            <path d="M106.491829,479.599778 C103.982489,479.599778 101.947975,481.63302 101.947975,484.142546 C101.947975,486.652071 103.982489,488.686099 106.491829,488.686099 C109.001168,488.686099 111.035683,486.652071 111.035683,484.142546 C111.035683,481.63302 109.001168,479.599778 106.491829,479.599778" id="Fill-27" fill="#FEFEFE"></path>
                            <path d="M498.219944,573.480392 C495.710604,573.480392 493.67609,575.513635 493.67609,578.02316 C493.67609,580.532685 495.710604,582.566714 498.219944,582.566714 C500.729284,582.566714 502.763798,580.532685 502.763798,578.02316 C502.763798,575.513635 500.729284,573.480392 498.219944,573.480392" id="Fill-29" fill="#020303"></path>
                            <path d="M4.5439329,502.710754 C2.0345933,502.710754 7.8613396e-05,504.612743 7.8613396e-05,506.959578 C7.8613396e-05,509.307199 2.0345933,511.209188 4.5439329,511.209188 C7.0532725,511.209188 9.08778719,509.307199 9.08778719,506.959578 C9.08778719,504.612743 7.0532725,502.710754 4.5439329,502.710754" id="Fill-31" fill="#FEFEFE"></path>
                            <path d="M315.997708,526.219262 C313.488369,526.219262 311.453854,528.121251 311.453854,530.468086 C311.453854,532.815706 313.488369,534.717696 315.997708,534.717696 C318.507048,534.717696 320.541563,532.815706 320.541563,530.468086 C320.541563,528.121251 318.507048,526.219262 315.997708,526.219262" id="Fill-33" fill="#FEFEFE"></path>
                            <path d="M461.260878,336.056418 C458.751538,336.056418 456.717024,337.958407 456.717024,340.305242 C456.717024,342.652862 458.751538,344.554852 461.260878,344.554852 C463.770218,344.554852 465.804732,342.652862 465.804732,340.305242 C465.804732,337.958407 463.770218,336.056418 461.260878,336.056418" id="Fill-39" fill="#FEFEFE"></path>
                            <path d="M363.951094,502.140472 C348.113639,502.140472 335.273713,514.823282 335.273713,530.468322 C335.273713,546.113362 348.113639,558.796171 363.951094,558.796171 C379.788549,558.796171 392.629261,546.113362 392.629261,530.468322 C392.629261,514.823282 379.788549,502.140472 363.951094,502.140472" id="Fill-41" fill="#E69283"></path>
                            <g id="Group-45">
                                <mask id="mask-4" fill="white">
                                    <use xlink:href="#path-3"></use>
                                </mask>
                                <g id="Clip-44"></g>
                            </g>
                            <path d="M194.872389,405.282616 C194.872389,405.282616 176.395096,417.343742 183.85708,432.764787 C194.20732,454.154306 214.449483,428.174077 220.850186,441.499005 C225.133043,450.413204 203.850825,459.86106 213.826079,474.907209 C222.731404,488.336667 244.319429,472.942344 252.347429,486.088862 C261.077447,500.385219 237.768575,513.662204 237.768575,513.662204" id="Stroke-46" stroke="#FEFEFE" stroke-width="24" stroke-linecap="round" stroke-linejoin="round"></path>
                            <path d="M570.07133,86.4905219 C553.530286,86.4905219 540.121199,99.8979738 540.121199,116.434277 C540.121199,132.972151 553.530286,146.376459 570.07133,146.376459 C586.613161,146.376459 600.022248,132.972151 600.022248,116.434277 C600.022248,99.8979738 586.613161,86.4905219 570.07133,86.4905219" id="Fill-48" fill="#98B0DC"></path>
                            <path d="M551.194917,123.360975 C551.194917,123.360975 547.080292,109.140069 556.803197,101.532899 C566.526102,93.9249418 578.038248,97.1158824 578.038248,97.1158824" id="Fill-50" fill="#98B0DC"></path>
                            <path d="M578.027871,118.735055 C576.457175,118.735055 575.184424,120.007501 575.184424,121.577821 C575.184424,123.149713 576.457175,124.42216 578.027871,124.42216 C579.598566,124.42216 580.872889,123.149713 580.872889,121.577821 C580.872889,120.007501 579.598566,118.735055 578.027871,118.735055" id="Fill-52" fill="#98B0DC"></path>
                            <path d="M585.268951,114.375491 C584.455302,114.375491 583.793377,115.035686 583.793377,115.84914 C583.793377,116.664952 584.455302,117.325146 585.268951,117.325146 C586.084171,117.325146 586.744524,116.664952 586.744524,115.84914 C586.744524,115.035686 586.084171,114.375491 585.268951,114.375491" id="Fill-54" fill="#98B0DC"></path>
                            <path d="M586.744445,121.249453 C585.930797,121.249453 585.268872,121.910434 585.268872,122.726245 C585.268872,123.539699 585.930797,124.199894 586.744445,124.199894 C587.561239,124.199894 588.221591,123.539699 588.221591,122.726245 C588.221591,121.910434 587.561239,121.249453 586.744445,121.249453" id="Fill-56" fill="#98B0DC"></path>
                            <path d="M472.341986,218.187161 C467.398776,218.187161 465.490043,215.15734 462.543613,209.801118 C459.714317,204.657102 456.194009,198.25793 447.642443,198.25793 C438.812587,198.25793 434.77972,205.015493 431.834862,209.949662 C428.895507,214.872827 427.288649,217.030249 424.239235,217.030249 C421.664647,217.030249 420.733078,215.642268 418.639603,210.511613 C416.649898,205.631675 413.64215,198.25793 404.342185,198.25793 C395.385761,198.25793 391.978656,205.024925 389.489756,209.966953 C386.908092,215.093678 385.613329,217.030249 382.227451,217.030249 C379.330547,217.030249 378.409198,215.765662 376.281133,210.736394 C374.179011,205.766858 371.002244,198.25793 360.527009,198.25793 C350.201139,198.25793 346.672184,205.366025 344.093664,210.556412 C341.712465,215.352254 340.604016,217.030249 337.510579,217.030249 C335.288178,217.030249 333.487145,218.831637 333.487145,221.05272 C333.487145,223.276161 335.288178,225.076764 337.510579,225.076764 C345.868755,225.076764 349.010146,218.752257 351.302513,214.134824 C353.857448,208.987664 355.428144,206.304445 360.527009,206.304445 C365.448207,206.304445 366.706022,208.760526 368.868676,213.871532 C370.870173,218.599783 373.609064,225.076764 382.227451,225.076764 C390.891433,225.076764 394.236433,218.433948 396.678951,213.585448 C399.282627,208.41078 400.706315,206.304445 404.342185,206.304445 C407.896297,206.304445 409.041694,208.29053 411.187053,213.551652 C413.171255,218.415086 415.888134,225.076764 424.239235,225.076764 C432.17683,225.076764 435.818989,218.975465 438.744979,214.071948 C441.707132,209.110272 443.579703,206.304445 447.642443,206.304445 C451.092785,206.304445 452.608452,208.438288 455.491205,213.677404 C458.405404,218.976251 462.398178,226.233676 472.341986,226.233676 C474.564387,226.233676 476.36542,224.433074 476.36542,222.210419 C476.36542,219.98855 474.564387,218.187161 472.341986,218.187161" id="Fill-58" fill="#E69283"></path>
                            <path d="M614.790403,620.461412 C585.518705,620.461412 565.855923,610.709394 565.855923,601.600281 C565.855923,592.491167 585.518705,582.73915 614.790403,582.73915 C644.062101,582.73915 663.724884,592.491167 663.724884,601.600281 C663.724884,610.709394 644.062101,620.461412 614.790403,620.461412 M614.790403,578.023474 C584.705057,578.023474 561.139119,588.379884 561.139119,601.600281 C561.139119,614.820678 584.705057,625.177087 614.790403,625.177087 C644.87575,625.177087 668.441688,614.820678 668.441688,601.600281 C668.441688,588.379884 644.87575,578.023474 614.790403,578.023474" id="Fill-60" fill="#FEFEFE"></path>
                            <path d="M666.087924,604.61737 C665.035291,603.847929 663.559717,604.077425 662.791664,605.127449 L614.790325,670.698133 L566.788985,605.127449 C566.018574,604.075853 564.543,603.847929 563.492725,604.61737 C562.440878,605.386811 562.212899,606.861246 562.982524,607.912056 L612.887094,676.082649 C613.33126,676.689399 614.038781,677.047791 614.790325,677.047791 C615.541869,677.047791 616.250175,676.689399 616.693555,676.082649 L666.597339,607.912056 C667.366964,606.861246 667.138199,605.386811 666.087924,604.61737" id="Fill-62" fill="#FEFEFE"></path>
                            <path d="M576.129357,598.548531 C574.711958,598.548531 573.561844,599.69837 573.561844,601.115431 C573.561844,602.533277 574.711958,603.681544 576.129357,603.681544 C577.548329,603.681544 578.698443,602.533277 578.698443,601.115431 C578.698443,599.69837 577.548329,598.548531 576.129357,598.548531" id="Fill-64" fill="#FEFEFE"></path>
                            <path d="M586.118761,598.548531 C584.700576,598.548531 583.551248,599.69837 583.551248,601.115431 C583.551248,602.533277 584.700576,603.681544 586.118761,603.681544 C587.536947,603.681544 588.686275,602.533277 588.686275,601.115431 C588.686275,599.69837 587.536947,598.548531 586.118761,598.548531" id="Fill-66" fill="#FEFEFE"></path>
                            <path d="M596.106672,598.548531 C594.689272,598.548531 593.539158,599.69837 593.539158,601.115431 C593.539158,602.533277 594.689272,603.681544 596.106672,603.681544 C597.525644,603.681544 598.675758,602.533277 598.675758,601.115431 C598.675758,599.69837 597.525644,598.548531 596.106672,598.548531" id="Fill-68" fill="#FEFEFE"></path>
                            <path d="M606.096076,598.548531 C604.67789,598.548531 603.528563,599.69837 603.528563,601.115431 C603.528563,602.533277 604.67789,603.681544 606.096076,603.681544 C607.514262,603.681544 608.66359,602.533277 608.66359,601.115431 C608.66359,599.69837 607.514262,598.548531 606.096076,598.548531" id="Fill-70" fill="#FEFEFE"></path>
                            <path d="M616.083987,598.548531 C614.666587,598.548531 613.516473,599.69837 613.516473,601.115431 C613.516473,602.533277 614.666587,603.681544 616.083987,603.681544 C617.502959,603.681544 618.653073,602.533277 618.653073,601.115431 C618.653073,599.69837 617.502959,598.548531 616.083987,598.548531" id="Fill-72" fill="#FEFEFE"></path>
                            <path d="M626.073391,598.548531 C624.655205,598.548531 623.505877,599.69837 623.505877,601.115431 C623.505877,602.533277 624.655205,603.681544 626.073391,603.681544 C627.491577,603.681544 628.640904,602.533277 628.640904,601.115431 C628.640904,599.69837 627.491577,598.548531 626.073391,598.548531" id="Fill-74" fill="#FEFEFE"></path>
                            <path d="M586.118761,590.79038 C584.700576,590.79038 583.551248,591.940219 583.551248,593.35728 C583.551248,594.775126 584.700576,595.923393 586.118761,595.923393 C587.536947,595.923393 588.686275,594.775126 588.686275,593.35728 C588.686275,591.940219 587.536947,590.79038 586.118761,590.79038" id="Fill-76" fill="#FEFEFE"></path>
                            <path d="M596.106672,590.79038 C594.689272,590.79038 593.539158,591.940219 593.539158,593.35728 C593.539158,594.775126 594.689272,595.923393 596.106672,595.923393 C597.525644,595.923393 598.675758,594.775126 598.675758,593.35728 C598.675758,591.940219 597.525644,590.79038 596.106672,590.79038" id="Fill-78" fill="#FEFEFE"></path>
                            <path d="M606.096076,590.79038 C604.67789,590.79038 603.528563,591.940219 603.528563,593.35728 C603.528563,594.775126 604.67789,595.923393 606.096076,595.923393 C607.514262,595.923393 608.66359,594.775126 608.66359,593.35728 C608.66359,591.940219 607.514262,590.79038 606.096076,590.79038" id="Fill-80" fill="#FEFEFE"></path>
                            <path d="M616.083987,590.79038 C614.666587,590.79038 613.516473,591.940219 613.516473,593.35728 C613.516473,594.775126 614.666587,595.923393 616.083987,595.923393 C617.502959,595.923393 618.653073,594.775126 618.653073,593.35728 C618.653073,591.940219 617.502959,590.79038 616.083987,590.79038" id="Fill-82" fill="#FEFEFE"></path>
                            <path d="M626.073391,590.79038 C624.655205,590.79038 623.505877,591.940219 623.505877,593.35728 C623.505877,594.775126 624.655205,595.923393 626.073391,595.923393 C627.491577,595.923393 628.640904,594.775126 628.640904,593.35728 C628.640904,591.940219 627.491577,590.79038 626.073391,590.79038" id="Fill-84" fill="#FEFEFE"></path>
                            <path d="M636.061302,590.79038 C634.643902,590.79038 633.493788,591.940219 633.493788,593.35728 C633.493788,594.775126 634.643902,595.923393 636.061302,595.923393 C637.480273,595.923393 638.630387,594.775126 638.630387,593.35728 C638.630387,591.940219 637.480273,590.79038 636.061302,590.79038" id="Fill-86" fill="#FEFEFE"></path>
                            <path d="M646.050706,590.79038 C644.63252,590.79038 643.483192,591.940219 643.483192,593.35728 C643.483192,594.775126 644.63252,595.923393 646.050706,595.923393 C647.468891,595.923393 648.618219,594.775126 648.618219,593.35728 C648.618219,591.940219 647.468891,590.79038 646.050706,590.79038" id="Fill-88" fill="#FEFEFE"></path>
                            <path d="M586.118761,606.520067 C584.700576,606.520067 583.551248,607.668334 583.551248,609.086966 C583.551248,610.503241 584.700576,611.65308 586.118761,611.65308 C587.536947,611.65308 588.686275,610.503241 588.686275,609.086966 C588.686275,607.668334 587.536947,606.520067 586.118761,606.520067" id="Fill-90" fill="#FEFEFE"></path>
                            <path d="M596.106672,606.520067 C594.689272,606.520067 593.539158,607.668334 593.539158,609.086966 C593.539158,610.503241 594.689272,611.65308 596.106672,611.65308 C597.525644,611.65308 598.675758,610.503241 598.675758,609.086966 C598.675758,607.668334 597.525644,606.520067 596.106672,606.520067" id="Fill-92" fill="#FEFEFE"></path>
                            <path d="M606.096076,606.520067 C604.67789,606.520067 603.528563,607.668334 603.528563,609.086966 C603.528563,610.503241 604.67789,611.65308 606.096076,611.65308 C607.514262,611.65308 608.66359,610.503241 608.66359,609.086966 C608.66359,607.668334 607.514262,606.520067 606.096076,606.520067" id="Fill-94" fill="#FEFEFE"></path>
                            <path d="M616.083987,606.520067 C614.666587,606.520067 613.516473,607.668334 613.516473,609.086966 C613.516473,610.503241 614.666587,611.65308 616.083987,611.65308 C617.502959,611.65308 618.653073,610.503241 618.653073,609.086966 C618.653073,607.668334 617.502959,606.520067 616.083987,606.520067" id="Fill-96" fill="#FEFEFE"></path>
                            <path d="M626.073391,606.520067 C624.655205,606.520067 623.505877,607.668334 623.505877,609.086966 C623.505877,610.503241 624.655205,611.65308 626.073391,611.65308 C627.491577,611.65308 628.640904,610.503241 628.640904,609.086966 C628.640904,607.668334 627.491577,606.520067 626.073391,606.520067" id="Fill-98" fill="#FEFEFE"></path>
                            <path d="M636.061302,606.520067 C634.643902,606.520067 633.493788,607.668334 633.493788,609.086966 C633.493788,610.503241 634.643902,611.65308 636.061302,611.65308 C637.480273,611.65308 638.630387,610.503241 638.630387,609.086966 C638.630387,607.668334 637.480273,606.520067 636.061302,606.520067" id="Fill-100" fill="#FEFEFE"></path>
                            <path d="M646.050706,606.520067 C644.63252,606.520067 643.483192,607.668334 643.483192,609.086966 C643.483192,610.503241 644.63252,611.65308 646.050706,611.65308 C647.468891,611.65308 648.618219,610.503241 648.618219,609.086966 C648.618219,607.668334 647.468891,606.520067 646.050706,606.520067" id="Fill-102" fill="#FEFEFE"></path>
                            <path d="M636.061302,598.548531 C634.643902,598.548531 633.493788,599.69837 633.493788,601.115431 C633.493788,602.533277 634.643902,603.681544 636.061302,603.681544 C637.480273,603.681544 638.630387,602.533277 638.630387,601.115431 C638.630387,599.69837 637.480273,598.548531 636.061302,598.548531" id="Fill-104" fill="#FEFEFE"></path>
                            <path d="M646.050706,598.548531 C644.63252,598.548531 643.483192,599.69837 643.483192,601.115431 C643.483192,602.533277 644.63252,603.681544 646.050706,603.681544 C647.468891,603.681544 648.618219,602.533277 648.618219,601.115431 C648.618219,599.69837 647.468891,598.548531 646.050706,598.548531" id="Fill-106" fill="#FEFEFE"></path>
                            <path d="M656.038616,598.548531 C654.621217,598.548531 653.471103,599.69837 653.471103,601.115431 C653.471103,602.533277 654.621217,603.681544 656.038616,603.681544 C657.457588,603.681544 658.607702,602.533277 658.607702,601.115431 C658.607702,599.69837 657.457588,598.548531 656.038616,598.548531" id="Fill-108" fill="#FEFEFE"></path>
                            <path d="M386.419274,297.098335 L320.560115,353.960738" id="Fill-110" fill="#98B0DC"></path>
                            <path d="M385.647684,296.206522 L319.789311,353.068139 C319.297191,353.494122 319.242162,354.237627 319.66746,354.731987 C320.093545,355.224775 320.838014,355.278219 321.331706,354.853023 L387.190078,297.991405 C387.682198,297.565423 387.737228,296.821132 387.311143,296.327558 C386.885058,295.833984 386.14059,295.781325 385.647684,296.206522" id="Fill-112" fill="#98B0DC"></path>
                            <path d="M400.862913,313.819649 L335.004541,370.682053" id="Fill-114" fill="#98B0DC"></path>
                            <path d="M400.092109,312.927837 L334.233736,369.79024 C333.74083,370.215437 333.685801,370.959727 334.111886,371.453301 C334.53797,371.94609 335.282439,371.999534 335.775345,371.574337 L401.633718,314.71272 C402.126624,314.286737 402.180867,313.542446 401.754782,313.049658 C401.328698,312.556084 400.585015,312.50264 400.092109,312.927837" id="Fill-116" fill="#98B0DC"></path>
                            <path d="M415.308125,330.543243 L349.449752,387.40486" id="Fill-118" fill="#98B0DC"></path>
                            <path d="M414.53732,329.650644 L348.678948,386.512262 C348.186042,386.938244 348.131013,387.681749 348.557097,388.175323 C348.983182,388.668111 349.727651,388.722342 350.220557,388.297145 L416.078929,331.434742 C416.571049,331.009545 416.626865,330.264468 416.20078,329.77168 C415.774695,329.278106 415.030226,329.225447 414.53732,329.650644" id="Fill-120" fill="#98B0DC"></path>
                            <path d="M429.75255,347.265343 L363.894178,404.126961" id="Fill-122" fill="#98B0DC"></path>
                            <path d="M428.981824,346.372745 L363.123452,403.234362 C362.631332,403.660345 362.576303,404.404635 363.001601,404.897423 C363.427686,405.390212 364.172941,405.444442 364.665847,405.019245 L430.523433,348.156842 C431.016339,347.731645 431.071369,346.987354 430.645284,346.49378 C430.219985,346.001778 429.47473,345.947548 428.981824,346.372745" id="Fill-124" fill="#98B0DC"></path>
                            <path d="M444.197762,363.987444 L378.339389,420.849061" id="Fill-126" fill="#98B0DC"></path>
                            <path d="M443.427036,363.094766 L377.568663,419.956384 C377.076544,420.382366 377.020728,421.125871 377.446027,421.619445 C377.872111,422.112233 378.617366,422.166464 379.110272,421.741267 L444.967859,364.878864 C445.461551,364.453667 445.515794,363.709376 445.089709,363.215802 C444.663625,362.723014 443.919156,362.66957 443.427036,363.094766" id="Fill-128" fill="#98B0DC"></path>
                            <path d="M319.514557,354.863083 L377.293045,421.751798" id="Fill-130" fill="#98B0DC"></path>
                            <path d="M320.406662,354.093249 C319.980577,353.599675 319.236895,353.545444 318.743989,353.971427 C318.251083,354.396624 318.195267,355.140915 318.621352,355.634489 L376.400626,422.522418 C376.82671,423.015993 377.571179,423.069437 378.064085,422.64424 C378.556205,422.219043 378.61202,421.473967 378.185936,420.981178 L320.406662,354.093249 Z" id="Fill-132" fill="#98B0DC"></path>
                            <path d="M336.241051,340.421326 L394.019539,407.310042" id="Fill-134" fill="#98B0DC"></path>
                            <path d="M337.13347,339.651492 C336.707386,339.157918 335.962917,339.104474 335.470011,339.52967 C334.977891,339.955653 334.922075,340.699158 335.34816,341.192732 L393.127434,408.079876 C393.553518,408.57345 394.297201,408.62768 394.790107,408.202483 C395.283013,407.777287 395.338829,407.032996 394.912744,406.539422 L337.13347,339.651492 Z" id="Fill-136" fill="#98B0DC"></path>
                            <path d="M352.966365,325.981141 L410.744853,392.869071" id="Fill-138" fill="#98B0DC"></path>
                            <path d="M353.859178,325.210521 C353.433093,324.717733 352.688624,324.663503 352.195718,325.0887 C351.702812,325.514682 351.647783,326.258187 352.073867,326.750975 L409.853927,393.639691 C410.279226,394.132479 411.022909,394.187495 411.516601,393.762298 C412.008721,393.336316 412.06375,392.592025 411.637665,392.099237 L353.859178,325.210521 Z" id="Fill-140" fill="#98B0DC"></path>
                            <path d="M369.693173,311.539384 L427.471661,378.427314" id="Fill-142" fill="#98B0DC"></path>
                            <path d="M370.585986,310.768764 C370.159901,310.27519 369.415432,310.221746 368.922526,310.646943 C368.42962,311.07214 368.374591,311.81643 368.800676,312.310004 L426.579949,379.197934 C427.006034,379.690722 427.749717,379.745738 428.242623,379.319756 C428.736315,378.894559 428.790558,378.149482 428.364473,377.656694 L370.585986,310.768764 Z" id="Fill-144" fill="#98B0DC"></path>
                            <path d="M386.419274,297.098335 L444.197762,363.987051" id="Fill-146" fill="#98B0DC"></path>
                            <path d="M387.3113,296.327794 C386.885216,295.83422 386.140747,295.781561 385.647841,296.206758 C385.155721,296.631955 385.099905,297.37546 385.52599,297.869034 L443.305264,364.756963 C443.731348,365.250537 444.475817,365.304768 444.967937,364.878785 C445.461629,364.453588 445.515873,363.709297 445.089788,363.215723 L387.3113,296.327794 Z" id="Fill-148" fill="#98B0DC"></path>
                            <path d="M263.564696,70.4097535 C260.525502,70.4097535 258.061758,72.8736941 258.061758,75.9113751 L258.061758,127.073312 C258.061758,130.112565 260.525502,132.574934 263.564696,132.574934 C266.60389,132.574934 269.067633,130.112565 269.067633,127.073312 L269.067633,75.9113751 C269.067633,72.8736941 266.60389,70.4097535 263.564696,70.4097535" id="Fill-150" fill="#FEFEFE"></path>
                            <path d="M284.229092,70.4097535 C281.189898,70.4097535 278.726154,72.8736941 278.726154,75.9113751 L278.726154,127.073312 C278.726154,130.112565 281.189898,132.574934 284.229092,132.574934 C287.268286,132.574934 289.732029,130.112565 289.732029,127.073312 L289.732029,75.9113751 C289.732029,72.8736941 287.268286,70.4097535 284.229092,70.4097535" id="Fill-152" fill="#FEFEFE"></path>
                            <path d="M304.893566,70.4097535 C301.854372,70.4097535 299.390628,72.8736941 299.390628,75.9113751 L299.390628,127.073312 C299.390628,130.112565 301.854372,132.574934 304.893566,132.574934 C307.93276,132.574934 310.396504,130.112565 310.396504,127.073312 L310.396504,75.9113751 C310.396504,72.8736941 307.93276,70.4097535 304.893566,70.4097535" id="Fill-154" fill="#FEFEFE"></path>
                            <path d="M609.927693,259.596295 C608.951315,260.640032 607.625893,261.214558 606.195915,261.214558 C604.89565,261.214558 603.65513,260.724914 602.70548,259.836009 L557.897417,217.916796 C555.840104,215.992014 555.732404,212.752345 557.657646,210.695525 C558.619874,209.667507 559.980672,209.078048 561.389424,209.078048 C562.68969,209.078048 563.929423,209.567692 564.879859,210.456597 L609.687922,252.375024 C611.746021,254.300592 611.852935,257.539475 609.927693,259.596295 L609.927693,259.596295 Z M565.417574,209.882071 C564.320131,208.856411 562.890154,208.292102 561.389424,208.292102 C559.762913,208.292102 558.193789,208.971945 557.082982,210.158724 C554.86294,212.531494 554.986363,216.269453 557.360487,218.490537 L602.168551,260.40975 C603.265208,261.435409 604.695185,262.000504 606.195915,262.000504 C607.820854,262.000504 609.39155,261.319875 610.501571,260.133882 C612.723972,257.760326 612.598976,254.022367 610.225638,251.801284 L565.417574,209.882071 Z" id="Fill-156" fill="#FEFEFE"></path>
                            <path d="M433.646429,615.565361 C425.474566,615.565361 418.102202,620.824912 414.022167,624.411969 C410.329696,620.716451 403.504481,615.565361 394.149486,615.565361 C384.864458,615.565361 377.962988,620.646502 374.184042,624.321585 C370.295824,620.685013 363.288226,615.565361 354.651758,615.565361 C341.583067,615.565361 331.978868,627.30818 331.577154,627.808041 C330.092147,629.651871 330.384589,632.348451 332.228073,633.832317 C334.070771,635.316183 336.768783,635.024597 338.252217,633.180768 C338.325328,633.09117 345.784167,624.133744 354.651758,624.133744 C363.538216,624.133744 370.688105,633.050301 370.750995,633.131253 C371.58587,634.199354 372.826389,634.762877 374.084203,634.776238 C374.086562,634.776238 374.08892,634.776238 374.091278,634.777024 C374.105429,634.777024 374.118793,634.779382 374.132157,634.779382 C374.135302,634.779382 374.138447,634.778596 374.141591,634.778596 C374.230424,634.784098 374.319257,634.788813 374.40809,634.788813 C375.74609,634.788813 377.062079,634.1632 377.896953,632.988211 C377.959844,632.900185 384.405356,624.133744 394.149486,624.133744 C403.845663,624.133744 410.041184,632.843597 410.091497,632.915904 C410.944452,634.160842 412.339054,634.811606 413.743089,634.774666 C414.985181,634.821823 416.236706,634.332965 417.121893,633.329312 C417.203651,633.23657 425.467491,624.133744 433.646429,624.133744 C440.460638,624.133744 447.674203,630.74355 449.87302,633.284513 C450.720472,634.271661 451.919327,634.778596 453.126042,634.778596 C454.114213,634.778596 455.1071,634.440639 455.914459,633.746649 C457.710776,632.205409 457.918315,629.500969 456.376706,627.705082 C455.951408,627.209151 445.818927,615.565361 433.646429,615.565361" id="Fill-158" fill="#FEFEFE"></path>
                            <path d="M364.528431,620.776104 C364.372776,620.666072 360.66301,618.093671 355.260697,618.008789 C349.900836,617.912903 345.869541,620.351694 345.701308,620.454653 C345.052748,620.854699 344.850711,621.703521 345.249281,622.351926 C345.648637,623.000331 346.497662,623.20232 347.147009,622.803845 C347.180812,622.78341 350.516379,620.762743 354.982406,620.762743 C355.060233,620.762743 355.138847,620.764315 355.21746,620.765101 C359.734586,620.836622 362.909781,623.010549 362.938082,623.030197 C363.179425,623.199962 363.45693,623.2817 363.732077,623.2817 C364.165237,623.2817 364.591321,623.078926 364.860179,622.697742 C365.298842,622.075273 365.150263,621.215448 364.528431,620.776104" id="Fill-160" fill="#FEFEFE"></path>
                            <path d="M388.29326,618.88952 C384.611009,619.104083 379.785718,622.879767 379.248003,623.30968 C378.652113,623.785177 378.555419,624.652075 379.031816,625.247037 C379.303032,625.587351 379.703961,625.764975 380.109606,625.764975 C380.411481,625.764975 380.714143,625.666732 380.969636,625.464744 C382.243959,624.448515 386.071646,621.781801 388.454418,621.642688 C389.214609,621.59789 389.794776,620.945554 389.750753,620.185545 C389.705943,619.425535 389.058955,618.847079 388.29326,618.88952" id="Fill-162" fill="#FEFEFE"></path>
                            <path d="M424.281136,621.093076 C420.403138,623.025718 419.389811,623.894974 417.55183,625.472367 L416.934715,625.998951 C416.355334,626.491739 416.285368,627.362567 416.778274,627.942595 C417.051062,628.263261 417.438626,628.42831 417.829335,628.42831 C418.144575,628.42831 418.462959,628.320635 418.722383,628.10057 L419.34736,627.564555 C421.07371,626.085405 421.940029,625.341114 425.511436,623.560947 C426.1938,623.220632 426.47052,622.392245 426.13091,621.711616 C425.7913,621.030201 424.961928,620.753548 424.281136,621.093076" id="Fill-164" fill="#FEFEFE"></path>
                            <path d="M172.49485,149.646387 C162.33171,149.646387 158.220229,142.171255 155.763561,137.705511 C155.051324,136.410272 153.859544,134.241847 153.26051,133.914893 C153.252649,133.914107 153.15281,133.895245 152.973571,133.895245 C152.092315,133.895245 151.468911,134.479988 149.287389,138.136209 C146.921126,142.099734 142.961369,148.733118 134.476625,148.733118 C125.259205,148.733118 122.198785,141.229692 120.554979,137.198575 C120.132825,136.160341 119.441814,134.468199 118.979567,133.904676 C118.923751,133.89996 118.849069,133.895245 118.752374,133.895245 C118.500025,133.895245 118.364024,133.924325 118.333365,133.936114 C117.806655,134.263853 116.783895,136.294738 116.173855,137.507452 C114.1983,141.430108 110.520765,148.733118 101.272685,148.733118 C91.880743,148.733118 88.7896643,141.424607 87.1285632,137.499593 C85.6034633,133.895245 85.519347,133.895245 84.1216008,133.895245 C82.6303047,133.895245 82.3205679,133.895245 80.3214293,137.92086 C78.4457136,141.699688 74.9537066,148.733118 65.9320333,148.733118 C62.0249475,148.733118 58.8568276,145.566542 58.8568276,141.659605 C58.8568276,137.752667 62.0249475,134.586091 65.9320333,134.586091 C65.9532589,134.586091 65.9721261,134.585305 65.989421,134.584519 C66.4422342,134.057935 67.1584022,132.614939 67.6465914,131.630934 C69.7086208,127.477996 73.5465268,119.748218 84.1216008,119.748218 C94.9820415,119.748218 98.3506255,127.710636 100.161092,131.98854 C100.510922,132.814569 101.008544,133.992702 101.372524,134.583733 C101.430698,134.581375 101.473936,134.57666 101.504595,134.57273 C102.036022,134.120025 102.969163,132.266765 103.534393,131.146006 C105.539821,127.162832 109.273957,119.748218 118.752374,119.748218 C128.719767,119.748218 131.93191,127.625754 133.65826,131.858073 C133.975858,132.635373 134.412163,133.70426 134.77457,134.388033 C135.44357,133.720765 136.481267,131.983038 137.135331,130.88743 C139.621872,126.72113 143.784452,119.748218 152.973571,119.748218 C162.035338,119.748218 165.870885,126.721916 168.163252,130.888215 C170.590833,135.302874 171.101034,135.49936 172.49485,135.49936 C176.402722,135.49936 179.570056,138.665937 179.570056,142.572874 C179.570056,146.479811 176.402722,149.646387 172.49485,149.646387" id="Fill-166" fill="#FEFEFE"></path>
                            <path d="M118.729891,311.98871 L162.429505,311.98871 L140.560831,275.612774 L118.729891,311.98871 Z M178.624651,321.420061 L101.947503,321.420061 L140.846197,256.99843 L178.624651,321.420061 Z" id="Fill-168" fill="#FBCD88"></path>
                        </g>
                    </g>
                    <g id="Page-1-Copy-2" transform="translate(1338.000000, 0.000000)">
                        <polygon id="Fill-4" fill="#B5C89F" points="149.161398 575.602903 213.723794 612.327718 192.000147 552.20827"></polygon>
                        <polygon id="Fill-8" fill="#98B0DC" points="41.7809616 238.251149 95.7304493 192.317979 22.2628952 182.584992"></polygon>
                        <polygon id="Fill-9" fill="#E69283" points="105.200459 570.02144 105.748752 544.415008 85.7121464 561.866899"></polygon>
                        <polygon id="Fill-10" fill="#020303" points="221.730016 228.23124 235.986689 172.565084 182.55574 200.419501"></polygon>
                        <g id="Group-170">
                            <path d="M20.0170932,331.510742 C13.9811566,331.510742 9.08825887,336.40247 9.08825887,342.437749 C9.08825887,348.472242 13.9811566,353.36397 20.0170932,353.36397 C26.0530297,353.36397 30.9459275,348.472242 30.9459275,342.437749 C30.9459275,336.40247 26.0530297,331.510742 20.0170932,331.510742" id="Fill-13" fill="#FEFEFE"></path>
                            <path d="M329.462532,300.922198 C326.953193,300.922198 324.918678,302.95544 324.918678,305.464965 C324.918678,307.974491 326.953193,310.008519 329.462532,310.008519 C331.971872,310.008519 334.006386,307.974491 334.006386,305.464965 C334.006386,302.95544 331.971872,300.922198 329.462532,300.922198" id="Fill-21" fill="#FEFEFE"></path>
                            <path d="M256.772813,286.833488 C254.263473,286.833488 252.228959,288.86673 252.228959,291.376256 C252.228959,293.885781 254.263473,295.919809 256.772813,295.919809 C259.282152,295.919809 261.316667,293.885781 261.316667,291.376256 C261.316667,288.86673 259.282152,286.833488 256.772813,286.833488" id="Fill-23" fill="#FEFEFE"></path>
                            <path d="M95.8053596,79.4450667 C93.29602,79.4450667 91.2615053,81.4783089 91.2615053,83.9878343 C91.2615053,86.4973597 93.29602,88.5313878 95.8053596,88.5313878 C98.3146992,88.5313878 100.349214,86.4973597 100.349214,83.9878343 C100.349214,81.4783089 98.3146992,79.4450667 95.8053596,79.4450667" id="Fill-25" fill="#FEFEFE"></path>
                            <path d="M106.491829,479.599778 C103.982489,479.599778 101.947975,481.63302 101.947975,484.142546 C101.947975,486.652071 103.982489,488.686099 106.491829,488.686099 C109.001168,488.686099 111.035683,486.652071 111.035683,484.142546 C111.035683,481.63302 109.001168,479.599778 106.491829,479.599778" id="Fill-27" fill="#FEFEFE"></path>
                            <path d="M4.5439329,502.710754 C2.0345933,502.710754 7.8613396e-05,504.612743 7.8613396e-05,506.959578 C7.8613396e-05,509.307199 2.0345933,511.209188 4.5439329,511.209188 C7.0532725,511.209188 9.08778719,509.307199 9.08778719,506.959578 C9.08778719,504.612743 7.0532725,502.710754 4.5439329,502.710754" id="Fill-31" fill="#FEFEFE"></path>
                            <path d="M315.997708,526.219262 C313.488369,526.219262 311.453854,528.121251 311.453854,530.468086 C311.453854,532.815706 313.488369,534.717696 315.997708,534.717696 C318.507048,534.717696 320.541563,532.815706 320.541563,530.468086 C320.541563,528.121251 318.507048,526.219262 315.997708,526.219262" id="Fill-33" fill="#FEFEFE"></path>
                            <path d="M363.951094,502.140472 C348.113639,502.140472 335.273713,514.823282 335.273713,530.468322 C335.273713,546.113362 348.113639,558.796171 363.951094,558.796171 C379.788549,558.796171 392.629261,546.113362 392.629261,530.468322 C392.629261,514.823282 379.788549,502.140472 363.951094,502.140472" id="Fill-41" fill="#E69283"></path>
                            <g id="Group-45">
                                <mask id="mask-6" fill="white">
                                    <use xlink:href="#path-5"></use>
                                </mask>
                                <g id="Clip-44"></g>
                            </g>
                            <path d="M194.872389,405.282616 C194.872389,405.282616 176.395096,417.343742 183.85708,432.764787 C194.20732,454.154306 214.449483,428.174077 220.850186,441.499005 C225.133043,450.413204 203.850825,459.86106 213.826079,474.907209 C222.731404,488.336667 244.319429,472.942344 252.347429,486.088862 C261.077447,500.385219 237.768575,513.662204 237.768575,513.662204" id="Stroke-46" stroke="#FEFEFE" stroke-width="24" stroke-linecap="round" stroke-linejoin="round"></path>
                            <path d="M472.341986,218.187161 C467.398776,218.187161 465.490043,215.15734 462.543613,209.801118 C459.714317,204.657102 456.194009,198.25793 447.642443,198.25793 C438.812587,198.25793 434.77972,205.015493 431.834862,209.949662 C428.895507,214.872827 427.288649,217.030249 424.239235,217.030249 C421.664647,217.030249 420.733078,215.642268 418.639603,210.511613 C416.649898,205.631675 413.64215,198.25793 404.342185,198.25793 C395.385761,198.25793 391.978656,205.024925 389.489756,209.966953 C386.908092,215.093678 385.613329,217.030249 382.227451,217.030249 C379.330547,217.030249 378.409198,215.765662 376.281133,210.736394 C374.179011,205.766858 371.002244,198.25793 360.527009,198.25793 C350.201139,198.25793 346.672184,205.366025 344.093664,210.556412 C341.712465,215.352254 340.604016,217.030249 337.510579,217.030249 C335.288178,217.030249 333.487145,218.831637 333.487145,221.05272 C333.487145,223.276161 335.288178,225.076764 337.510579,225.076764 C345.868755,225.076764 349.010146,218.752257 351.302513,214.134824 C353.857448,208.987664 355.428144,206.304445 360.527009,206.304445 C365.448207,206.304445 366.706022,208.760526 368.868676,213.871532 C370.870173,218.599783 373.609064,225.076764 382.227451,225.076764 C390.891433,225.076764 394.236433,218.433948 396.678951,213.585448 C399.282627,208.41078 400.706315,206.304445 404.342185,206.304445 C407.896297,206.304445 409.041694,208.29053 411.187053,213.551652 C413.171255,218.415086 415.888134,225.076764 424.239235,225.076764 C432.17683,225.076764 435.818989,218.975465 438.744979,214.071948 C441.707132,209.110272 443.579703,206.304445 447.642443,206.304445 C451.092785,206.304445 452.608452,208.438288 455.491205,213.677404 C458.405404,218.976251 462.398178,226.233676 472.341986,226.233676 C474.564387,226.233676 476.36542,224.433074 476.36542,222.210419 C476.36542,219.98855 474.564387,218.187161 472.341986,218.187161" id="Fill-58" fill="#E69283"></path>
                            <path d="M386.419274,297.098335 L320.560115,353.960738" id="Fill-110" fill="#98B0DC"></path>
                            <path d="M385.647684,296.206522 L319.789311,353.068139 C319.297191,353.494122 319.242162,354.237627 319.66746,354.731987 C320.093545,355.224775 320.838014,355.278219 321.331706,354.853023 L387.190078,297.991405 C387.682198,297.565423 387.737228,296.821132 387.311143,296.327558 C386.885058,295.833984 386.14059,295.781325 385.647684,296.206522" id="Fill-112" fill="#98B0DC"></path>
                            <path d="M400.862913,313.819649 L335.004541,370.682053" id="Fill-114" fill="#98B0DC"></path>
                            <path d="M400.092109,312.927837 L334.233736,369.79024 C333.74083,370.215437 333.685801,370.959727 334.111886,371.453301 C334.53797,371.94609 335.282439,371.999534 335.775345,371.574337 L401.633718,314.71272 C402.126624,314.286737 402.180867,313.542446 401.754782,313.049658 C401.328698,312.556084 400.585015,312.50264 400.092109,312.927837" id="Fill-116" fill="#98B0DC"></path>
                            <path d="M415.308125,330.543243 L349.449752,387.40486" id="Fill-118" fill="#98B0DC"></path>
                            <path d="M414.53732,329.650644 L348.678948,386.512262 C348.186042,386.938244 348.131013,387.681749 348.557097,388.175323 C348.983182,388.668111 349.727651,388.722342 350.220557,388.297145 L416.078929,331.434742 C416.571049,331.009545 416.626865,330.264468 416.20078,329.77168 C415.774695,329.278106 415.030226,329.225447 414.53732,329.650644" id="Fill-120" fill="#98B0DC"></path>
                            <path d="M429.75255,347.265343 L363.894178,404.126961" id="Fill-122" fill="#98B0DC"></path>
                            <path d="M428.981824,346.372745 L363.123452,403.234362 C362.631332,403.660345 362.576303,404.404635 363.001601,404.897423 C363.427686,405.390212 364.172941,405.444442 364.665847,405.019245 L430.523433,348.156842 C431.016339,347.731645 431.071369,346.987354 430.645284,346.49378 C430.219985,346.001778 429.47473,345.947548 428.981824,346.372745" id="Fill-124" fill="#98B0DC"></path>
                            <path d="M444.197762,363.987444 L378.339389,420.849061" id="Fill-126" fill="#98B0DC"></path>
                            <path d="M443.427036,363.094766 L377.568663,419.956384 C377.076544,420.382366 377.020728,421.125871 377.446027,421.619445 C377.872111,422.112233 378.617366,422.166464 379.110272,421.741267 L444.967859,364.878864 C445.461551,364.453667 445.515794,363.709376 445.089709,363.215802 C444.663625,362.723014 443.919156,362.66957 443.427036,363.094766" id="Fill-128" fill="#98B0DC"></path>
                            <path d="M319.514557,354.863083 L377.293045,421.751798" id="Fill-130" fill="#98B0DC"></path>
                            <path d="M320.406662,354.093249 C319.980577,353.599675 319.236895,353.545444 318.743989,353.971427 C318.251083,354.396624 318.195267,355.140915 318.621352,355.634489 L376.400626,422.522418 C376.82671,423.015993 377.571179,423.069437 378.064085,422.64424 C378.556205,422.219043 378.61202,421.473967 378.185936,420.981178 L320.406662,354.093249 Z" id="Fill-132" fill="#98B0DC"></path>
                            <path d="M336.241051,340.421326 L394.019539,407.310042" id="Fill-134" fill="#98B0DC"></path>
                            <path d="M337.13347,339.651492 C336.707386,339.157918 335.962917,339.104474 335.470011,339.52967 C334.977891,339.955653 334.922075,340.699158 335.34816,341.192732 L393.127434,408.079876 C393.553518,408.57345 394.297201,408.62768 394.790107,408.202483 C395.283013,407.777287 395.338829,407.032996 394.912744,406.539422 L337.13347,339.651492 Z" id="Fill-136" fill="#98B0DC"></path>
                            <path d="M352.966365,325.981141 L410.744853,392.869071" id="Fill-138" fill="#98B0DC"></path>
                            <path d="M353.859178,325.210521 C353.433093,324.717733 352.688624,324.663503 352.195718,325.0887 C351.702812,325.514682 351.647783,326.258187 352.073867,326.750975 L409.853927,393.639691 C410.279226,394.132479 411.022909,394.187495 411.516601,393.762298 C412.008721,393.336316 412.06375,392.592025 411.637665,392.099237 L353.859178,325.210521 Z" id="Fill-140" fill="#98B0DC"></path>
                            <path d="M369.693173,311.539384 L427.471661,378.427314" id="Fill-142" fill="#98B0DC"></path>
                            <path d="M370.585986,310.768764 C370.159901,310.27519 369.415432,310.221746 368.922526,310.646943 C368.42962,311.07214 368.374591,311.81643 368.800676,312.310004 L426.579949,379.197934 C427.006034,379.690722 427.749717,379.745738 428.242623,379.319756 C428.736315,378.894559 428.790558,378.149482 428.364473,377.656694 L370.585986,310.768764 Z" id="Fill-144" fill="#98B0DC"></path>
                            <path d="M387.3113,296.327794 C386.885216,295.83422 386.140747,295.781561 385.647841,296.206758 C385.155721,296.631955 385.099905,297.37546 385.52599,297.869034 L443.305264,364.756963 C443.731348,365.250537 444.475817,365.304768 444.967937,364.878785 C445.461629,364.453588 445.515873,363.709297 445.089788,363.215723 L387.3113,296.327794 Z" id="Fill-148" fill="#98B0DC"></path>
                            <path d="M263.564696,70.4097535 C260.525502,70.4097535 258.061758,72.8736941 258.061758,75.9113751 L258.061758,127.073312 C258.061758,130.112565 260.525502,132.574934 263.564696,132.574934 C266.60389,132.574934 269.067633,130.112565 269.067633,127.073312 L269.067633,75.9113751 C269.067633,72.8736941 266.60389,70.4097535 263.564696,70.4097535" id="Fill-150" fill="#FEFEFE"></path>
                            <path d="M284.229092,70.4097535 C281.189898,70.4097535 278.726154,72.8736941 278.726154,75.9113751 L278.726154,127.073312 C278.726154,130.112565 281.189898,132.574934 284.229092,132.574934 C287.268286,132.574934 289.732029,130.112565 289.732029,127.073312 L289.732029,75.9113751 C289.732029,72.8736941 287.268286,70.4097535 284.229092,70.4097535" id="Fill-152" fill="#FEFEFE"></path>
                            <path d="M304.893566,70.4097535 C301.854372,70.4097535 299.390628,72.8736941 299.390628,75.9113751 L299.390628,127.073312 C299.390628,130.112565 301.854372,132.574934 304.893566,132.574934 C307.93276,132.574934 310.396504,130.112565 310.396504,127.073312 L310.396504,75.9113751 C310.396504,72.8736941 307.93276,70.4097535 304.893566,70.4097535" id="Fill-154" fill="#FEFEFE"></path>
                            <path d="M433.646429,615.565361 C425.474566,615.565361 418.102202,620.824912 414.022167,624.411969 C410.329696,620.716451 403.504481,615.565361 394.149486,615.565361 C384.864458,615.565361 377.962988,620.646502 374.184042,624.321585 C370.295824,620.685013 363.288226,615.565361 354.651758,615.565361 C341.583067,615.565361 331.978868,627.30818 331.577154,627.808041 C330.092147,629.651871 330.384589,632.348451 332.228073,633.832317 C334.070771,635.316183 336.768783,635.024597 338.252217,633.180768 C338.325328,633.09117 345.784167,624.133744 354.651758,624.133744 C363.538216,624.133744 370.688105,633.050301 370.750995,633.131253 C371.58587,634.199354 372.826389,634.762877 374.084203,634.776238 C374.086562,634.776238 374.08892,634.776238 374.091278,634.777024 C374.105429,634.777024 374.118793,634.779382 374.132157,634.779382 C374.135302,634.779382 374.138447,634.778596 374.141591,634.778596 C374.230424,634.784098 374.319257,634.788813 374.40809,634.788813 C375.74609,634.788813 377.062079,634.1632 377.896953,632.988211 C377.959844,632.900185 384.405356,624.133744 394.149486,624.133744 C403.845663,624.133744 410.041184,632.843597 410.091497,632.915904 C410.944452,634.160842 412.339054,634.811606 413.743089,634.774666 C414.985181,634.821823 416.236706,634.332965 417.121893,633.329312 C417.203651,633.23657 425.467491,624.133744 433.646429,624.133744 C440.460638,624.133744 447.674203,630.74355 449.87302,633.284513 C450.720472,634.271661 451.919327,634.778596 453.126042,634.778596 C454.114213,634.778596 455.1071,634.440639 455.914459,633.746649 C457.710776,632.205409 457.918315,629.500969 456.376706,627.705082 C455.951408,627.209151 445.818927,615.565361 433.646429,615.565361" id="Fill-158" fill="#FEFEFE"></path>
                            <path d="M364.528431,620.776104 C364.372776,620.666072 360.66301,618.093671 355.260697,618.008789 C349.900836,617.912903 345.869541,620.351694 345.701308,620.454653 C345.052748,620.854699 344.850711,621.703521 345.249281,622.351926 C345.648637,623.000331 346.497662,623.20232 347.147009,622.803845 C347.180812,622.78341 350.516379,620.762743 354.982406,620.762743 C355.060233,620.762743 355.138847,620.764315 355.21746,620.765101 C359.734586,620.836622 362.909781,623.010549 362.938082,623.030197 C363.179425,623.199962 363.45693,623.2817 363.732077,623.2817 C364.165237,623.2817 364.591321,623.078926 364.860179,622.697742 C365.298842,622.075273 365.150263,621.215448 364.528431,620.776104" id="Fill-160" fill="#FEFEFE"></path>
                            <path d="M388.29326,618.88952 C384.611009,619.104083 379.785718,622.879767 379.248003,623.30968 C378.652113,623.785177 378.555419,624.652075 379.031816,625.247037 C379.303032,625.587351 379.703961,625.764975 380.109606,625.764975 C380.411481,625.764975 380.714143,625.666732 380.969636,625.464744 C382.243959,624.448515 386.071646,621.781801 388.454418,621.642688 C389.214609,621.59789 389.794776,620.945554 389.750753,620.185545 C389.705943,619.425535 389.058955,618.847079 388.29326,618.88952" id="Fill-162" fill="#FEFEFE"></path>
                            <path d="M172.49485,149.646387 C162.33171,149.646387 158.220229,142.171255 155.763561,137.705511 C155.051324,136.410272 153.859544,134.241847 153.26051,133.914893 C153.252649,133.914107 153.15281,133.895245 152.973571,133.895245 C152.092315,133.895245 151.468911,134.479988 149.287389,138.136209 C146.921126,142.099734 142.961369,148.733118 134.476625,148.733118 C125.259205,148.733118 122.198785,141.229692 120.554979,137.198575 C120.132825,136.160341 119.441814,134.468199 118.979567,133.904676 C118.923751,133.89996 118.849069,133.895245 118.752374,133.895245 C118.500025,133.895245 118.364024,133.924325 118.333365,133.936114 C117.806655,134.263853 116.783895,136.294738 116.173855,137.507452 C114.1983,141.430108 110.520765,148.733118 101.272685,148.733118 C91.880743,148.733118 88.7896643,141.424607 87.1285632,137.499593 C85.6034633,133.895245 85.519347,133.895245 84.1216008,133.895245 C82.6303047,133.895245 82.3205679,133.895245 80.3214293,137.92086 C78.4457136,141.699688 74.9537066,148.733118 65.9320333,148.733118 C62.0249475,148.733118 58.8568276,145.566542 58.8568276,141.659605 C58.8568276,137.752667 62.0249475,134.586091 65.9320333,134.586091 C65.9532589,134.586091 65.9721261,134.585305 65.989421,134.584519 C66.4422342,134.057935 67.1584022,132.614939 67.6465914,131.630934 C69.7086208,127.477996 73.5465268,119.748218 84.1216008,119.748218 C94.9820415,119.748218 98.3506255,127.710636 100.161092,131.98854 C100.510922,132.814569 101.008544,133.992702 101.372524,134.583733 C101.430698,134.581375 101.473936,134.57666 101.504595,134.57273 C102.036022,134.120025 102.969163,132.266765 103.534393,131.146006 C105.539821,127.162832 109.273957,119.748218 118.752374,119.748218 C128.719767,119.748218 131.93191,127.625754 133.65826,131.858073 C133.975858,132.635373 134.412163,133.70426 134.77457,134.388033 C135.44357,133.720765 136.481267,131.983038 137.135331,130.88743 C139.621872,126.72113 143.784452,119.748218 152.973571,119.748218 C162.035338,119.748218 165.870885,126.721916 168.163252,130.888215 C170.590833,135.302874 171.101034,135.49936 172.49485,135.49936 C176.402722,135.49936 179.570056,138.665937 179.570056,142.572874 C179.570056,146.479811 176.402722,149.646387 172.49485,149.646387" id="Fill-166" fill="#FEFEFE"></path>
                            <path d="M118.729891,311.98871 L162.429505,311.98871 L140.560831,275.612774 L118.729891,311.98871 Z M178.624651,321.420061 L101.947503,321.420061 L140.846197,256.99843 L178.624651,321.420061 Z" id="Fill-168" fill="#FBCD88"></path>
                        </g>
                    </g>
                </g>
            </g>
        </g>
    </g>
</svg>