<?xml version="1.0" encoding="UTF-8"?>
<svg width="1440px" height="173px" viewBox="0 0 1440 173" version="1.1" xmlns="http://www.w3.org/2000/svg"
     xmlns:xlink="http://www.w3.org/1999/xlink">
    <!-- Generator: Sketch 42 (36781) - http://www.bohemiancoding.com/sketch -->
    <title>Combined Shape</title>
    <desc>Created with Sketch.</desc>
    <defs></defs>
    <g id="Desktop-new" stroke="none" stroke-width="1" fill="none" fill-rule="evenodd">
        <g id="Startsida-alternativ-huvud-i-topp-täckande-topp-ny2" fill="#FFFFFF">
            <g id="Bitmap" transform="translate(-1.000000, -1.000000)">
                <path d="M1033.56399,174 L1454,174 L1454,0 L1041.625,0 L1,0 L1,174 L417.993268,174 C548.426532,172.964627 491.097656,157.522525 491.097656,151.685919 C491.097656,143.266858 584.058799,161.974348 593.660328,163.194806 C601.244968,164.158887 639.468809,171.095732 641.135346,166.971013 C643.287168,161.644531 616.665176,150.400032 610.796786,147.129901 C601.597687,142.003713 585.429431,134.536757 606.275355,131.88086 C620.348603,130.087562 646.253321,131.226566 659.621131,133.25354 C695.522708,138.697528 723.290445,145.948167 759.002643,151.685919 C773.298411,153.982622 788.3659,155.280527 767.474998,150.731185 C754.216082,147.844282 740.916922,145.563603 727.788203,142.214689 C716.647967,139.373186 708.057249,135.869379 725.07061,136.567737 C735.877066,137.009718 747.062279,138.855093 757.622541,140.124956 C765.455742,141.067673 793.053037,143.600723 788.969547,140.728508 C781.02982,135.148321 758.2759,127.857623 762.43751,125.122944 C772.85337,118.27957 853.064964,138.151394 855.259396,137.475736 C857.453829,136.801413 845.470855,132.264089 850.101178,130.010115 C855.455878,127.403624 877.28184,130.835326 883.289897,131.886201 C896.260011,134.154863 925.658777,142.157271 927.666197,141.376125 C929.358774,140.715155 926.645916,136.703936 939.450323,138.84174 C943.138484,139.060728 947.193568,140.03015 950.661576,140.737855 C957.749096,142.187983 966.290101,144.025346 972.111147,146.824119 C990.20397,155.52355 953.966244,149.640251 946.412378,148.17677 C945.212187,158.821723 902.123667,148.892487 892.718618,147.267436 C885.264176,145.978879 876.602441,143.182776 869.89368,144.984086 C868.302894,145.411379 860.954978,147.386277 860.654339,151.64319 C860.353699,155.901438 875.613281,159.61682 890.228516,161.536624 C904.84375,163.456428 928.278203,166.891512 923.743164,162.451916 C910.946173,149.92425 953.71618,170.914473 1033.56399,174 Z"
                      id="Combined-Shape"></path>
            </g>
        </g>
    </g>
</svg>