<?xml version="1.0" encoding="UTF-8"?>
<svg width="1440px" height="163px" viewBox="0 0 1440 163" version="1.1" xmlns="http://www.w3.org/2000/svg" xmlns:xlink="http://www.w3.org/1999/xlink">
    <!-- Generator: Sketch 42 (36781) - http://www.bohemiancoding.com/sketch -->
    <title>Combined Shape</title>
    <desc>Created with Sketch.</desc>
    <defs></defs>
    <g id="Desktop-working" stroke="none" stroke-width="1" fill="none" fill-rule="evenodd">
        <g id="Working-undersidor" fill="#FFFFFF">
            <g id="Head" transform="translate(0.000000, -3.000000)">
                <path d="M1082.2964,166 L1440,166 L1440,0 L1031.31452,0 L0,0 L0,166 L525.919043,166 C628.621286,161.608406 548.942705,142.507939 548.942705,134.97067 C548.942705,122.951904 648.20693,149.658084 657.722555,151.400367 C665.239335,152.776657 703.121187,162.679462 704.772814,156.791153 C706.905384,149.187248 680.521578,133.134982 674.705693,128.466653 C665.588898,121.14868 649.5653,110.489107 670.224716,106.697638 C684.17205,104.137587 709.844998,105.763591 723.093206,108.657231 C758.673572,116.428883 786.192871,126.77965 821.585551,134.97067 C835.753415,138.249366 850.686095,140.10221 829.982104,133.607724 C816.841815,129.48648 803.661643,126.230659 790.650387,121.449863 C779.609823,117.39343 771.095966,112.391513 787.957109,113.388465 C798.666879,114.019423 809.752018,116.653817 820.217797,118.466631 C827.980914,119.812421 855.331297,123.428517 851.284341,119.328242 C843.415651,111.362155 820.86531,100.954202 824.989686,97.0502663 C835.312356,87.2808966 914.806296,115.64924 916.981095,114.684693 C919.155894,113.722053 907.280132,107.244723 911.869027,104.027026 C917.175818,100.306087 938.806503,105.205069 944.760807,106.705263 C957.614876,109.943928 986.750611,121.367895 988.740071,120.252758 C990.417505,119.309179 987.728919,113.582899 1000.41876,116.634755 C1004.07393,116.947375 1008.09273,118.331289 1011.52971,119.341585 C1018.55382,121.411738 1027.01841,124.034695 1032.78737,128.030129 C1050.71832,140.449142 1014.80481,132.050344 1007.31853,129.961128 C1006.12908,145.157502 963.42607,130.982861 954.105169,128.662993 C946.717422,126.823493 938.133183,122.831871 931.484446,125.40336 C929.907893,126.01335 922.625718,128.832647 922.327769,134.909671 C922.029819,140.988602 937.152873,146.292556 951.637345,149.033203 C966.121817,151.77385 989.346602,156.677659 984.852138,150.339844 C972.792665,133.33432 1010.52535,159.59214 1082.2964,166 Z" id="Combined-Shape"></path>
            </g>
        </g>
    </g>
</svg>