<?xml version="1.0" encoding="UTF-8"?>
<svg width="265px" height="62px" viewBox="0 0 265 62" version="1.1" xmlns="http://www.w3.org/2000/svg" xmlns:xlink="http://www.w3.org/1999/xlink">
    <!-- Generator: Sketch 42 (36781) - http://www.bohemiancoding.com/sketch -->
    <title>HB</title>
    <desc>Created with Sketch.</desc>
    <defs></defs>
    <g id="Desktop-new" stroke="none" stroke-width="1" fill="none" fill-rule="evenodd">
        <g id="Startsida-alternativ-huvud-i-topp-täckande-topp-ny2" transform="translate(-179.000000, -41.000000)">
            <g id="HB" transform="translate(179.210599, 41.000000)">
                <g id="Group">
                    <path d="M18.5719621,49.5408182 C18.5719621,49.5408182 11.4801062,56.5503409 4.56835217,46.7804091 C4.56835217,46.7804091 13.3981907,41.1355909 18.5719621,49.5408182" id="Fill-1" fill="#E36729"></path>
                    <path d="M0,25.7856591 C0,25.7856591 12.1949719,22.5475682 15.4187947,34.9792727 C15.4187947,34.9792727 4.80733345,40.61 0,25.7856591" id="Fill-3" fill="#E36729"></path>
                    <path d="M45.4632433,4.92265909 C45.4632433,4.92265909 51.9441384,14.3776591 42.5019536,21.1265 C42.5019536,21.1265 34.4978127,13.7957045 45.4632433,4.92265909" id="Fill-5" fill="#E36729"></path>
                    <path d="M24.6801849,0.358613636 C24.6801849,0.358613636 37.4431703,8.58136364 30.2106965,20.0527727 C30.2106965,20.0527727 16.8499115,14.8652045 24.6801849,0.358613636" id="Fill-6" fill="#E36729"></path>
                    <path d="M8.62895573,8.91672727 C8.62895573,8.91672727 20.590488,9.51065909 20.0681927,22.8885682 C20.0681927,22.8885682 8.87555669,25.1705909 8.62895573,8.91672727" id="Fill-7" fill="#E36729"></path>
                    <path d="M27.4315867,49.42175 C27.4315867,49.42175 15.6868693,55.7436364 26.2526124,61.2306364 C26.2526124,61.2306364 34.2241965,64.8787727 34.3932151,53.9082955 C34.3932151,53.9082955 42.0648604,54.3845682 46.8126217,47.0234773 C46.8126217,47.0234773 53.2699649,45.9504545 54.0949699,42.1219545 C54.5687762,39.9315227 51.2064136,30.8344318 44.3867886,34.2141364 C44.3867886,34.2141364 38.4441209,22.6074545 30.2051549,34.0048864 C30.2051549,34.0048864 14.7912091,39.9498409 27.4315867,49.42175" id="Fill-9" fill="#6EBE96"></path>
                    <path d="M26.6945546,34.4938409 C26.6945546,34.4938409 19.4274458,31.6319773 24.0366672,23.3845682 C24.0366672,23.3845682 30.9137863,27.9641136 26.6945546,34.4938409" id="Fill-11" fill="#004C80"></path>
                    <path d="M36.9742129,13.3680455 C36.9742129,13.3680455 43.2625375,21.1870909 35.5673405,27.6238182 C35.5673405,27.6238182 28.1145883,21.7436818 36.9742129,13.3680455" id="Fill-12" fill="#004C80"></path>
                    <path d="M66.0170183,40.8784318 C66.0170183,40.8784318 62.9760681,50.9590682 52.8709701,47.8463864 C52.8709701,47.8463864 53.5512009,37.8488864 66.0170183,40.8784318" id="Fill-13" fill="#004C80"></path>
                    <path d="M63.7581257,23.4064091 C63.7581257,23.4064091 63.4983635,35.5126136 52.9395474,35.2188182 C52.9395474,35.2188182 50.9438805,23.9355227 63.7581257,23.4064091" id="Fill-14" fill="#004C80"></path>
                    <path d="M52.2918735,15.02725 C52.2918735,15.02725 55.8052445,23.9355227 46.2113586,27.9528409 C46.2113586,27.9528409 40.9246772,20.5501818 52.2918735,15.02725" id="Fill-15" fill="#004C80"></path>
                    <path d="M29.0130193,39.0952273 C29.0130193,39.0952273 20.7006272,32.6169318 20.3078667,42.1191364 C20.3078667,42.1191364 20.3598191,49.1265455 28.1422962,45.6418636 C28.1422962,45.6418636 30.3284554,51.39025 37.0725762,52.42875 C37.0725762,52.42875 40.162708,57.4606136 42.9182659,56.1219773 C45.6745166,54.7833409 49.9186855,50.3087727 45.2969955,46.4499773 C45.2969955,46.4499773 51.5167429,38.3047273 40.7805958,36.0494773 C40.7805958,36.0494773 31.529596,26.7748409 29.0130193,39.0952273" id="Fill-16" fill="#004C80"></path>
                </g>
                <path d="M201.56027,39.9914091 L199.514036,33.0903864 C199.216868,32.0800682 199.143442,31.5897045 199.049235,31.1120227 C199.010443,30.9013636 198.738905,30.9225 198.707734,31.1120227 C198.61699,31.5897045 198.541486,32.0962727 198.275489,33.0600909 L196.074784,39.9864773 C196.074784,39.9864773 195.810865,40.5120682 196.501486,40.5120682 L201.131489,40.5120682 C201.820725,40.5120682 201.56027,39.9914091 201.56027,39.9914091 Z M209.289409,48.4776591 C208.069565,48.4642727 204.716901,48.4825909 204.477919,48.4776591 C203.99303,48.4706136 203.81085,47.7914318 203.81085,47.7914318 L202.664432,44.1151136 C202.664432,44.1151136 202.522429,43.5951591 202.086721,43.5951591 L195.501229,43.5951591 C195.049589,43.5951591 194.873643,44.1214545 194.873643,44.1214545 L193.606696,47.9922273 C193.606696,47.9922273 193.48201,48.4544091 192.989501,48.4621591 C192.095226,48.4755455 189.307804,48.4755455 188.991933,48.4776591 C188.142683,48.484 188.475179,47.7984773 188.475179,47.7984773 L196.072013,26.3387273 C196.072013,26.3387273 196.286057,25.6694091 196.803503,25.6651818 C197.06188,25.6623636 201.463292,25.6546136 201.463292,25.6546136 C201.463292,25.6546136 201.969655,25.5757045 202.235652,26.3330909 C203.134083,28.9032727 209.772913,47.7590227 209.788845,47.7914318 C210.000811,48.2529091 209.67455,48.4825909 209.289409,48.4776591 L209.289409,48.4776591 Z" id="Fill-17" fill="#004C80"></path>
                <path d="M94.2064181,47.7463409 C94.2064181,47.7463409 94.1288357,48.4797727 94.9025809,48.4889318 C95.9908116,48.4889318 99.0303763,48.484 99.2686649,48.484 C100.013317,48.484 99.9606715,47.8083409 99.9606715,47.7498636 C99.9606715,47.6885682 99.9675985,26.4084773 99.9675985,26.4084773 C99.9675985,26.4084773 100.019551,25.6863182 99.2645087,25.6827955 C98.1471846,25.6806818 95.1609578,25.6827955 94.9005028,25.6806818 C94.1496167,25.6743409 94.2098816,26.3915682 94.2098816,26.3915682 L94.2064181,47.7463409" id="Fill-18" fill="#004C80"></path>
                <path d="M85.154223,48.4889318 C84.3811706,48.4797727 84.4545967,47.7463409 84.4545967,47.7463409 C84.4545967,47.7463409 84.4483624,39.3911364 84.4545967,39.1248182 C84.4442062,38.6076818 83.9607021,38.6076818 83.9607021,38.6076818 C83.9607021,38.6076818 79.1422854,38.6147273 78.8340342,38.6147273 C78.2459325,38.6147273 78.3131243,39.1375 78.3131243,39.1375 C78.3131243,39.1375 78.3131243,47.5166591 78.3152024,47.7392955 C78.3221294,48.0098409 78.2431617,48.4797727 77.6072637,48.4875227 C77.3419598,48.4889318 74.3474206,48.4875227 73.261268,48.4875227 C72.5865788,48.4875227 72.5505585,47.8682273 72.5533293,47.802 C72.5574855,47.7695909 72.5685687,26.6353409 72.5685687,26.5543182 C72.5685687,26.3232273 72.5533293,25.6806818 73.3776415,25.6729318 C73.6297841,25.6722273 76.5058717,25.6729318 77.620425,25.6729318 C78.2660208,25.6877273 78.3152024,26.1942955 78.3152024,26.3662045 C78.3152024,26.4176364 78.3221294,34.57275 78.3221294,34.57275 C78.3221294,34.57275 78.256323,35.0962273 78.8388831,35.0962273 C79.1651445,35.0962273 82.7935037,35.0983409 83.9496189,35.0962273 C84.5384133,35.0962273 84.4615237,34.57275 84.4615237,34.57275 L84.4615237,26.3915682 C84.4615237,26.3915682 84.3991808,25.6743409 85.1521449,25.6806818 C85.4125999,25.6827955 88.3967487,25.6806818 89.5113019,25.6827955 C90.2711931,25.6863182 90.2178552,26.4084773 90.2178552,26.4084773 C90.2178552,26.4084773 90.2130063,47.6885682 90.2130063,47.7498636 C90.2130063,47.8083409 90.2642661,48.484 89.520307,48.484 C89.2799403,48.484 86.2424537,48.4889318 85.154223,48.4889318 Z" id="Fill-19" fill="#004C80"></path>
                <path d="M127.722676,48.5030227 C127.397107,48.4959773 124.588211,48.4959773 123.572714,48.4959773 C123.403695,48.4959773 122.963139,48.44525 122.906337,47.8083409 C122.720001,45.7165455 121.775852,35.3688864 121.775852,35.3688864 C121.642854,34.0210909 121.692728,33.4165909 121.685801,33.2686364 C121.684416,33.1664773 121.497387,33.0932045 121.43158,33.2601818 C121.420497,33.2982273 121.315207,33.9104773 120.855947,35.3688864 C120.855947,35.3688864 117.657062,45.79475 116.937347,47.9471364 C116.726074,48.4959773 116.337469,48.4889318 116.337469,48.4889318 L114.332105,48.4959773 C114.332105,48.4959773 113.906787,48.5523409 113.66365,47.8231364 C112.965409,45.7123182 109.806007,35.3667727 109.806007,35.3667727 C109.34744,33.9069545 109.31142,33.4947955 109.273321,33.3588182 C109.221369,33.1819773 109.021179,33.2559545 109.01633,33.3855909 C109.01633,33.449 109.050965,33.9083636 108.922816,35.3667727 C108.922816,35.3667727 107.929485,45.7257045 107.749383,47.802 C107.655176,48.4889318 107.250639,48.4959773 107.087855,48.4959773 L103.693628,48.4959773 C102.824983,48.4959773 103.025173,47.8160909 103.025173,47.8160909 L105.476636,26.3598636 C105.476636,26.3598636 105.538979,25.7032273 106.121539,25.6806818 C106.397234,25.6708182 109.691712,25.6806818 110.63309,25.6806818 C111.152615,25.6806818 111.300852,26.3598636 111.300852,26.3598636 L114.889728,38.4519773 C115.312274,39.8448636 115.423799,40.4902273 115.441116,40.5458864 C115.467439,40.6318409 115.617755,40.71075 115.689796,40.5543409 C115.741055,40.4486591 115.842882,39.8448636 116.265429,38.4519773 L120.044796,26.3739545 C120.044796,26.3739545 120.226976,25.6806818 120.719485,25.6877273 C120.899587,25.6905455 124.147655,25.6806818 125.208177,25.6806818 C125.820523,25.6877273 125.881481,26.3662045 125.881481,26.3662045 C125.881481,26.3662045 128.285148,47.3320682 128.331559,47.8231364 C128.38074,48.3149091 128.071104,48.5114773 127.722676,48.5030227" id="Fill-20" fill="#004C80"></path>
                <path d="M142.696065,48.5002045 C140.879114,48.50725 132.322199,48.5135909 132.119931,48.5058409 C131.897575,48.4959773 131.45494,48.4628636 131.452862,47.8210227 C131.452862,47.6610909 131.459789,28.9857045 131.459789,26.3676136 C131.463945,25.7722727 131.929439,25.6884318 132.122702,25.6884318 C133.230328,25.6884318 136.324616,25.6877273 136.522036,25.6884318 C137.196725,25.69125 137.183563,26.2887045 137.181485,26.3739545 C137.181485,26.4599091 137.174558,44.3708636 137.174558,44.3708636 C137.174558,44.3708636 137.133689,44.8732045 137.684385,44.888 C138.011339,44.8992727 142.61017,44.8922273 142.61017,44.8922273 C142.61017,44.8922273 143.345817,44.8238864 143.357593,45.6179091 C143.367983,46.4006591 143.361056,47.6885682 143.359671,47.8160909 C143.352744,47.9732045 143.334041,48.4973864 142.696065,48.5002045" id="Fill-21" fill="#004C80"></path>
                <path d="M158.346221,39.9745 L156.340857,33.0720682 C156.050615,32.06175 155.973726,31.5706818 155.886446,31.0944091 C155.848347,30.8816364 155.583043,30.9041818 155.549101,31.0944091 C155.463206,31.5706818 155.416796,32.0575227 155.124476,33.0424773 L152.970874,39.9695682 C152.970874,39.9695682 152.710419,40.4951591 153.386494,40.4951591 L157.925753,40.4951591 C158.601827,40.4951591 158.346221,39.9745 158.346221,39.9745 Z M165.922967,48.46075 C164.726675,48.4480682 161.439816,48.4628636 161.205684,48.46075 C160.729107,48.4537045 160.554547,47.7731136 160.554547,47.7731136 L159.427525,44.0967955 C159.427525,44.0967955 159.291063,43.5768409 158.862975,43.5768409 L152.406324,43.5768409 C151.965767,43.5768409 151.794671,44.1038409 151.794671,44.1038409 L150.551275,47.9753182 C150.551275,47.9753182 150.430746,48.4382045 149.946549,48.44525 C149.069591,48.4572273 146.333429,48.4558182 146.027949,48.46075 C145.196017,48.4656818 145.522278,47.7794545 145.522278,47.7794545 L152.966025,26.3204091 C152.966025,26.3204091 153.177299,25.6510909 153.683662,25.6454545 C153.93719,25.6433409 158.249936,25.6362955 158.249936,25.6362955 C158.249936,25.6362955 158.748679,25.5580909 159.007056,26.3140682 C159.888863,28.8856591 166.397466,47.74 166.41132,47.7731136 C166.617744,48.2345909 166.300488,48.4628636 165.922967,48.46075 L165.922967,48.46075 Z" id="Fill-22" fill="#004C80"></path>
                <path d="M176.663963,28.5009773 C175.914462,28.5009773 175.552873,28.5390227 174.993172,28.6418864 C174.891345,28.6665455 174.497892,28.7222045 174.486809,29.1569091 C174.464642,30.1855455 174.486809,34.7066136 174.486809,34.9806818 C174.486809,35.5386818 174.999406,35.5126136 174.999406,35.5126136 L175.666475,35.5112045 C179.423677,35.5126136 180.678848,34.41775 180.678848,31.9264773 C180.678848,29.5979545 179.387656,28.5030909 176.663963,28.5009773 M175.666475,38.1046364 C175.666475,38.1046364 175.363766,38.0954773 175.010489,38.1025227 C174.450788,38.1137955 174.497892,38.6210682 174.497892,38.6210682 L174.486809,45.08175 C174.486809,45.08175 174.493736,45.4607955 174.999406,45.5911364 C175.550102,45.73275 175.93455,45.7813636 176.76856,45.7813636 C179.531738,45.7813636 181.154732,44.7844318 181.154732,42.16 C181.154732,39.4362273 179.754787,38.1046364 175.666475,38.1046364 M176.91472,49.00325 C173.533654,49.00325 171.339183,48.7524318 169.468202,47.9422045 C169.443957,47.9302273 168.799054,47.5948636 168.814986,47.1594545 C168.823299,46.8529773 168.81845,27.3180455 168.81845,27.2017955 C168.81845,26.9904318 168.983312,26.72975 169.484134,26.5134545 C171.197179,25.7722727 173.454686,25.4763636 176.626557,25.4777727 C183.293095,25.4784773 186.386691,28.1395455 186.386691,31.5622273 C186.386691,34.4395909 184.174209,35.9282955 182.211099,36.518 C182.069788,36.5891591 182.142522,36.7554318 182.215948,36.7758636 C184.432586,37.4212273 187.121645,39.308 187.121645,42.3579773 C187.121645,46.9135682 183.214128,49.0053636 176.91472,49.00325" id="Fill-23" fill="#004C80"></path>
                <path d="M219.840605,29.0124773 C219.276055,29.0124773 219.05647,29.0040227 218.656089,29.1068864 C218.559112,29.1308409 218.156653,29.28725 218.14557,29.6352955 C218.136565,29.7938182 218.14557,42.8131136 218.14557,44.6540909 C218.156653,45.0500455 218.56396,45.1761591 218.662324,45.1958864 C219.080714,45.2747955 219.344633,45.2917045 219.910568,45.2917045 C223.554859,45.2924091 224.954805,43.06675 224.957575,37.05275 C224.959654,31.4037045 223.487667,29.0124773 219.840605,29.0124773 M219.870391,49.0145227 C216.715839,49.0145227 214.670297,48.6305455 212.890753,47.9633409 C212.819405,47.9330455 212.244464,47.6575682 212.241694,47.2806364 C212.241694,47.0622273 212.246542,29.4126591 212.246542,27.2335 C212.246542,27.0947045 212.369843,26.8058409 212.911534,26.5564318 C214.777666,25.8687955 216.612626,25.4890455 219.584999,25.4890455 C227.835741,25.4890455 231.004148,30.5082273 231.001377,37.1527955 C230.997221,43.73325 228.049093,49.0166364 219.870391,49.0145227" id="Fill-24" fill="#004C80"></path>
                <g id="Group-28" transform="translate(234.132378, 25.363636)" fill="#004C80">
                    <path d="M12.4533488,23.3260909 C12.3681468,23.3260909 2.66897057,23.3239773 0.816692526,23.3239773 C0.636590697,23.3239773 0.155857352,23.2852273 0.148930359,22.6405682 C0.148930359,22.5010682 0.151008457,1.1315 0.151008457,1.1315 C0.151008457,1.1315 0.0845093199,0.455840909 0.819463324,0.455840909 L12.4533488,0.455840909 C12.9978105,0.455840909 13.1238818,0.905340909 13.1238818,1.14418182 C13.1238818,1.23436364 13.1169548,2.60611364 13.1190329,3.39731818 C13.1190329,4.05747727 12.6286017,4.08706818 12.4581977,4.08565909 C12.30996,4.08354545 7.90785571,4.08706818 6.66723118,4.08706818 C6.42617181,4.09552273 6.15878987,4.21881818 6.15878987,4.60631818 L6.15878987,9.3775 C6.16294606,9.87702273 6.49544175,9.889 6.67346548,9.90309091 C6.82655203,9.91647727 10.4348229,9.90097727 11.5708498,9.89886364 C11.7883574,9.89886364 12.2337631,9.99256818 12.2337631,10.5865 L12.2337631,12.7388864 C12.2289142,12.9495455 12.1707275,13.4159545 11.5569959,13.4215909 C11.4239976,13.423 7.8087997,13.4187727 6.65822609,13.4187727 C6.47327537,13.423 6.15394097,13.5758864 6.15186287,13.95 C6.14978477,14.1064091 6.15186287,17.9842273 6.15394097,19.1777273 C6.15394097,19.6222955 6.48020236,19.7033182 6.66723118,19.7019091 C6.82655203,19.6990909 11.1794747,19.6990909 12.4464218,19.7019091 C13.0830125,19.7019091 13.1218037,20.2528636 13.1148767,20.3965909 C13.1079497,20.5107273 13.1190329,21.8486591 13.1190329,22.6384545 C13.1190329,22.8047273 13.0456067,23.3155227 12.4533488,23.3260909" id="Fill-25"></path>
                    <path d="M29.5651007,4.08918182 C28.6528157,4.08354545 26.463193,4.08918182 26.3454341,4.08565909 C26.2082797,4.08143182 25.8328366,4.2005 25.8328366,4.61618182 C25.8328366,6.95104545 25.8328366,22.4968409 25.8314512,22.6483182 C25.8314512,22.8462955 25.7587178,23.3303182 25.1720015,23.3282045 C24.0345891,23.3232727 20.6708411,23.3282045 20.4865831,23.3282045 C20.2552215,23.3282045 19.8299041,23.2119545 19.8299041,22.6426818 C19.8299041,22.5694091 19.8326749,6.95809091 19.834753,4.61406818 C19.834753,4.43159091 19.7987326,4.08847727 19.3290825,4.08847727 C18.4251098,4.08847727 16.3206892,4.09270455 16.0775518,4.09059091 C15.3987064,4.08565909 15.4084042,3.40929545 15.4084042,3.40929545 L15.4035553,1.14981818 C15.4035553,1.14981818 15.3474467,0.486840909 16.0824007,0.466409091 C16.3497826,0.457954545 27.5444967,0.466409091 29.5581737,0.466409091 C30.1275726,0.474159091 30.2217797,0.980727273 30.2238578,1.14981818 C30.2259359,1.91847727 30.2217797,3.27825 30.2238578,3.41140909 C30.2259359,3.65377273 30.0957084,4.09270455 29.5651007,4.08918182" id="Fill-27"></path>
                </g>
            </g>
        </g>
    </g>
</svg>