<?xml version="1.0" encoding="UTF-8"?><!DOCTYPE svg PUBLIC "-//W3C//DTD SVG 1.1//EN" "http://www.w3.org/Graphics/SVG/1.1/DTD/svg11.dtd"><svg xmlns="http://www.w3.org/2000/svg" xmlns:xlink="http://www.w3.org/1999/xlink"><defs><ellipse id="a" cx="12.618" cy="12.618" rx="12.5" ry="12.5"/><mask id="b" x="0" y="0" width="25" height="25" fill="#fff"><use xlink:href="#a"/></mask></defs><symbol id="arrow-right" viewBox="0 0 7 14"><title>Path 2 Copy</title><path d="M1 1l5 6-5 6" stroke-width="2" stroke="#004B93" fill="none" fill-rule="evenodd" stroke-linecap="round" stroke-linejoin="round"/></symbol><symbol id="calendar" viewBox="0 0 24 24"><title>Shape</title><path d="M5 0v4h2V0H5zm12 0v4h2V0h-2zM1 3c-.6 0-1 .4-1 1v3c0 .6.4 1 1 1v16h22V8c.6 0 1-.4 1-1V4c0-.6-.4-1-1-1h-3v2h-4V3H8v2H4V3H1zm2 5h18v14H3V8zm2 2v2h2v-2H5zm4 0v2h2v-2H9zm4 0v2h2v-2h-2zm4 0v2h2v-2h-2zm-5 3v4h4v-4h-4zm-7 1v2h2v-2H5zm4 0v2h2v-2H9zm8 0v2h2v-2h-2zM5 18v2h2v-2H5zm4 0v2h2v-2H9zm4 0v2h2v-2h-2zm4 0v2h2v-2h-2z" fill="#909AA4" fill-rule="evenodd"/></symbol><symbol id="edit" viewBox="0 0 17 17"><title>Shape</title><path d="M12.75 0L1.992 10.758 0 17l6.242-1.992L17 4.25s-.07-1.487-1.417-2.833C14.238.07 12.75 0 12.75 0zM2.767 11.466s.854.213 1.704 1.063c.921.85 1.063 1.638 1.063 1.638l.022.044-2.523.797-1.063-1.063.797-2.479z" fill="#004B93" fill-rule="evenodd" opacity=".7"/></symbol><symbol id="facebook" viewBox="0 0 23 23"><title>Facebook</title><path d="M18.688 0H4.313A4.312 4.312 0 0 0 0 4.313v14.375A4.312 4.312 0 0 0 4.313 23h14.375A4.312 4.312 0 0 0 23 18.687V4.313A4.312 4.312 0 0 0 18.687 0zm-.585 12.386H15.95v7.965h-3.594v-7.965h-1.394V9.703h1.394V7.994c.001-2.24.932-3.57 3.572-3.57h2.676v2.672H17.05c-1.028 0-1.095.383-1.095 1.1l-.005 1.506h2.446l-.293 2.684z" fill="#004B93" fill-rule="evenodd"/></symbol><symbol id="mail" viewBox="0 0 23 18"><title>Message</title><path d="M2.3 0C1.035 0 0 1.012 0 2.25v13.5C0 16.988 1.035 18 2.3 18h18.4c1.265 0 2.3-1.012 2.3-2.25V2.25C23 1.012 21.965 0 20.7 0H2.3zm0 2.25h18.4v13.5H2.3V2.25zm1.15.668v2.25l8.05 4.957 8.05-4.957v-2.25L11.5 7.875 3.45 2.918z" fill="#004B93" fill-rule="evenodd"/></symbol><symbol id="marker" viewBox="0 0 14 24"><title>Shape</title><path d="M7 0C3.1 0 0 3.1 0 7c0 6 7 17 7 17s7-11.1 7-17c0-3.9-3.1-7-7-7zm0 9c-1.1 0-2-.9-2-2s.9-2 2-2 2 .9 2 2-.9 2-2 2z" fill="#004B93" fill-rule="evenodd"/></symbol><symbol id="telephone" viewBox="0 0 19 20"><title>Phone</title><path d="M16.872 13.92c-1.232-1.033-2.481-1.659-3.698-.627l-.726.623c-.532.453-1.52 2.568-5.34-1.743-3.82-4.306-1.547-4.977-1.014-5.425l.73-.625c1.21-1.034.753-2.336-.12-3.676l-.526-.812C5.3.298 4.346-.58 3.133.453l-.655.562A6.026 6.026 0 0 0 .079 5.01c-.438 2.84.943 6.091 4.105 9.659 3.159 3.569 6.251 5.362 9.18 5.33 2.435-.025 3.905-1.307 4.365-1.773l.658-.562c1.21-1.032.458-2.083-.774-3.119l-.741-.625z" fill="#004B93" fill-rule="evenodd"/></symbol><symbol id="time" viewBox="0 0 26 26"><title>Time icon</title><g stroke="#909AA4" fill="none" fill-rule="evenodd"><use mask="url(#b)" stroke-width="4" xlink:href="#a"/><path stroke-width="2" stroke-linecap="round" stroke-linejoin="round" d="M11.915 6.04v8.127l6.921-3.086"/></g></symbol></svg>