<?xml version="1.0" encoding="UTF-8"?>
<svg width="203px" height="406px" viewBox="0 0 203 406" version="1.1" xmlns="http://www.w3.org/2000/svg" xmlns:xlink="http://www.w3.org/1999/xlink">
    <!-- Generator: Sketch 47.1 (45422) - http://www.bohemiancoding.com/sketch -->
    <title>Page 1@2x</title>
    <desc>Created with Sketch.</desc>
    <defs>
        <path d="M4.1947027,0.123157895 C2.37272973,0.424421053 1.06172973,1.33578947 0.500405405,2.69052632 L3.42451351,3.94105263 C3.54013514,3.66315789 4.04116216,3.41305263 4.70381081,3.30315789 C6.22864865,3.04989474 8.03321622,3.57094737 8.56594595,4.18484211 C9.80048649,5.61221053 8.91716216,7.06357895 6.47108108,9.77684211 C6.09810811,10.1898947 5.74627027,10.5814737 5.44727027,10.9458947 C3.49289189,13.3332632 1.77597297,15.8627368 2.42991892,18.1875789 C2.67794595,19.0654737 3.37975676,20.2484211 5.32356757,20.9002105 C7.53343243,21.6429474 9.82286486,20.9627368 12.0370811,20.3033684 C14.4116757,19.5972632 16.4611622,18.9858947 18.0879459,20.0513684 C18.8444595,20.5490526 19.255973,21.0378947 19.3112973,21.504 C19.4598649,22.7753684 17.4538919,24.9164211 15.8426486,26.6362105 C13.3312973,29.3178947 10.4836486,32.3576842 11.7859459,35.5724211 L14.7212432,34.3477895 C14.2021892,33.0650526 16.2951892,30.8298947 18.1426486,28.8568421 C20.4252432,26.4176842 22.7861622,23.8989474 22.4629189,21.1250526 C22.2925946,19.6610526 21.3999459,18.3909474 19.8098378,17.3469474 C16.9652973,15.4793684 13.8745946,16.3995789 11.1438108,17.2117895 C9.31872973,17.7555789 7.59435135,18.2709474 6.31940541,17.8421053 C5.84510811,17.6829474 5.53181081,17.4802105 5.48145946,17.3002105 C5.37516216,16.9225263 5.54610811,15.8665263 7.88713514,13.0061053 C8.15691892,12.6764211 8.47456757,12.3246316 8.81148649,11.952 C10.7198649,9.83621053 14.2711892,5.89831579 10.9492432,2.06021053 C9.73397297,0.653052632 7.46754054,0.0214736842 5.50383784,0.0214736842 C5.0457027,0.0214736842 4.60372973,0.0562105263 4.1947027,0.123157895 Z" id="path-1"></path>
        <path d="M19.624375,0.115578947 C18.193125,0.397894737 17.00625,1.39705263 16.095625,3.08589474 C14.46625,6.10610526 15.60625,9.16926316 16.6125,11.8755789 C17.285625,13.6850526 17.92375,15.3928421 17.59625,16.7166316 C17.475625,17.2098947 17.29875,17.5421053 17.124375,17.6058947 C16.760625,17.7423158 15.704375,17.6475789 12.706875,15.4901053 C12.361875,15.2406316 11.99,14.9444211 11.596875,14.6317895 C9.365625,12.8564211 5.2125,9.55263158 1.675,13.2044211 C0.075,14.8534737 -0.240625,18.0347368 0.27125,20.1922105 C0.704375,22.0149474 1.7025,23.2762105 3.08125,23.7435789 L4.09625,20.6873684 C3.813125,20.5913684 3.52875,20.1018947 3.37125,19.4393684 C3.006875,17.9128421 3.385,16.0458947 3.95125,15.4597895 C5.266875,14.1031579 6.765625,14.8888421 9.626875,17.1656842 C10.061875,17.5124211 10.475,17.8395789 10.85625,18.1162105 C13.36,19.9168421 15.985,21.4686316 18.23,20.6311579 C19.0775,20.3153684 20.191875,19.5151579 20.69,17.4978947 C21.25625,15.2027368 20.413125,12.9347368 19.59625,10.7406316 C18.720625,8.38610526 17.964375,6.35557895 18.893125,4.62821053 C19.328125,3.82547368 19.78,3.37073684 20.235,3.27978947 C21.479375,3.03536842 23.741875,4.90673684 25.56,6.41242105 C28.394375,8.75557895 31.6075,11.4145263 34.6825,9.85515789 L33.25375,6.97263158 C32.026875,7.59473684 29.664375,5.64 27.579375,3.91578947 C25.2675,2.00463158 22.88625,0.0347368421 20.4625,0.0347368421 C20.183125,0.0347368421 19.904375,0.0606315789 19.624375,0.115578947 Z" id="path-3"></path>
        <path d="M0.470029412,10.4913529 C0.470029412,4.99058824 4.94920588,0.5145 10.4542941,0.5145 C15.9606176,0.5145 20.4385588,4.99058824 20.4385588,10.4913529 C20.4385588,15.9927353 15.9606176,20.4682059 10.4542941,20.4682059 C4.94920588,20.4682059 0.470029412,15.9927353 0.470029412,10.4913529 Z M3.62311765,10.4913529 C3.62311765,14.2559118 6.68726471,17.3175882 10.4542941,17.3175882 C14.2213235,17.3175882 17.2860882,14.2559118 17.2860882,10.4913529 C17.2860882,6.72741176 14.2213235,3.66511765 10.4542941,3.66511765 C6.68726471,3.66511765 3.62311765,6.72741176 3.62311765,10.4913529 Z" id="path-5"></path>
        <path d="M0.303545455,10.4376364 C0.303545455,4.77018182 4.91781818,0.158454545 10.5903636,0.158454545 C16.2622727,0.158454545 20.8771818,4.77018182 20.8771818,10.4376364 C20.8771818,16.1057273 16.2622727,20.7168182 10.5903636,20.7168182 C4.91781818,20.7168182 0.303545455,16.1057273 0.303545455,10.4376364 Z M3.55154545,10.4376364 C3.55154545,14.3156364 6.70918182,17.4707273 10.5903636,17.4707273 C14.4709091,17.4707273 17.6285455,14.3156364 17.6285455,10.4376364 C17.6285455,6.55963636 14.4709091,3.40454545 10.5903636,3.40454545 C6.70918182,3.40454545 3.55154545,6.55963636 3.55154545,10.4376364 Z" id="path-7"></path>
        <path d="M0.491586207,8.709 L3.6602069,8.709 C3.6602069,5.8962 6.02875862,3.6078 8.94041379,3.6078 C11.8526897,3.6078 14.2212414,5.8962 14.2212414,8.709 L17.3898621,8.709 C17.3898621,4.2084 13.5993103,0.5466 8.94041379,0.5466 C4.28213793,0.5466 0.491586207,4.2084 0.491586207,8.709 Z" id="path-9"></path>
        <path d="M0.5826,3.41742857 C3.3954,3.41742857 5.6832,5.87121429 5.6832,8.88685714 C5.6832,11.9031429 3.3954,14.3562857 0.5826,14.3562857 L0.5826,17.6380714 C5.0832,17.6380714 8.745,13.7121429 8.745,8.88685714 C8.745,4.06221429 5.0832,0.136285714 0.5826,0.136285714 L0.5826,3.41742857 Z" id="path-11"></path>
        <path d="M0.0411428571,9.23271429 C0.0411428571,14.058 3.9645,17.9839286 8.78592857,17.9839286 L8.78592857,14.7021429 C5.77285714,14.7021429 3.321,12.2483571 3.321,9.23271429 C3.321,6.21771429 5.77285714,3.76392857 8.78592857,3.76392857 L8.78592857,0.482142857 C3.9645,0.482142857 0.0411428571,4.40742857 0.0411428571,9.23271429 Z" id="path-13"></path>
        <path d="M4.1947027,0.198315789 C2.37272973,0.498947368 1.06172973,1.41031579 0.500405405,2.76442105 L3.42451351,4.01557895 C3.54013514,3.73768421 4.04116216,3.48694737 4.70381081,3.37768421 C6.22864865,3.12442105 8.03321622,3.64484211 8.56594595,4.25936842 C9.80048649,5.68673684 8.91716216,7.13810526 6.47108108,9.85073684 C6.09810811,10.2637895 5.74627027,10.656 5.44727027,11.0197895 C3.49289189,13.4077895 1.77597297,15.9372632 2.42991892,18.2621053 C2.67794595,19.1393684 3.37975676,20.3229474 5.32356757,20.9747368 C7.53343243,21.7174737 9.82286486,21.0372632 12.0370811,20.3772632 C14.4116757,19.6717895 16.4611622,19.0597895 18.0879459,20.1252632 C18.8444595,20.6235789 19.255973,21.1124211 19.3112973,21.5785263 C19.4598649,22.8498947 17.4538919,24.9903158 15.8426486,26.7101053 C13.3312973,29.3924211 10.4836486,32.4322105 11.7859459,35.6469474 L14.7212432,34.4216842 C14.2021892,33.1389474 16.2951892,30.9044211 18.1426486,28.932 C20.4252432,26.4928421 22.7861622,23.9734737 22.4629189,21.1995789 C22.2925946,19.7349474 21.3999459,18.4654737 19.8098378,17.4208421 C16.9652973,15.5538947 13.8745946,16.4741053 11.1438108,17.2863158 C9.31872973,17.8301053 7.59435135,18.3448421 6.31940541,17.9166316 C5.84510811,17.7574737 5.53181081,17.5547368 5.48145946,17.3741053 C5.37516216,16.9970526 5.54610811,15.9404211 7.88713514,13.0806316 C8.15691892,12.7509474 8.47456757,12.3985263 8.81148649,12.0258947 C10.7198649,9.91010526 14.2711892,5.97221053 10.9492432,2.13410526 C9.73397297,0.727578947 7.46754054,0.096 5.50508108,0.096 C5.0457027,0.096 4.60372973,0.130736842 4.1947027,0.198315789 Z" id="path-15"></path>
        <path d="M19.624375,0.190105263 C18.193125,0.471789474 17.00625,1.47157895 16.095625,3.16042105 C14.46625,6.18063158 15.60625,9.24442105 16.6125,11.9501053 C17.285625,13.7595789 17.92375,15.468 17.59625,16.7911579 C17.475625,17.2844211 17.29875,17.6166316 17.124375,17.6797895 C16.760625,17.8162105 15.704375,17.7221053 12.706875,15.564 C12.361875,15.3151579 11.99,15.0189474 11.596875,14.7056842 C9.365625,12.9303158 5.2125,9.62715789 1.675,13.2783158 C0.075,14.928 -0.240625,18.1092632 0.27125,20.2661053 C0.704375,22.0901053 1.7025,23.3507368 3.08125,23.8187368 L4.09625,20.7618947 C3.813125,20.6652632 3.52875,20.1764211 3.37125,19.5138947 C3.006875,17.9873684 3.385,16.1204211 3.95125,15.5336842 C5.266875,14.1770526 6.765625,14.9633684 9.626875,17.2402105 C10.061875,17.5869474 10.475,17.9141053 10.85625,18.1901053 C13.36,19.9913684 15.985,21.5425263 18.23,20.7056842 C19.0775,20.3898947 20.191875,19.5896842 20.69,17.5724211 C21.25625,15.2772632 20.413125,13.0086316 19.59625,10.8151579 C18.720625,8.46063158 17.964375,6.43073684 18.893125,4.70273684 C19.328125,3.89936842 19.78,3.44526316 20.235,3.35494737 C21.479375,3.10989474 23.741875,4.98126316 25.56,6.48694737 C28.394375,8.83010526 31.6075,11.4884211 34.6825,9.92905263 L33.25375,7.04715789 C32.026875,7.66926316 29.664375,5.71452632 27.579375,3.98968421 C25.2675,2.07915789 22.88625,0.109263158 20.4625,0.109263158 C20.18375,0.109263158 19.905,0.135157895 19.624375,0.190105263 Z" id="path-17"></path>
        <path d="M0.470029412,10.5642353 C0.470029412,5.06285294 4.94920588,0.586764706 10.4542941,0.586764706 C15.9606176,0.586764706 20.4385588,5.06285294 20.4385588,10.5642353 C20.4385588,16.065 15.9606176,20.5410882 10.4542941,20.5410882 C4.94920588,20.5410882 0.470029412,16.065 0.470029412,10.5642353 Z M3.62311765,10.5642353 C3.62311765,14.3281765 6.68726471,17.3904706 10.4542941,17.3904706 C14.2213235,17.3904706 17.2860882,14.3281765 17.2860882,10.5642353 C17.2860882,6.79967647 14.2213235,3.73738235 10.4542941,3.73738235 C6.68726471,3.73738235 3.62311765,6.79967647 3.62311765,10.5642353 Z" id="path-19"></path>
        <path d="M0.303545455,10.5127273 C0.303545455,4.84463636 4.91781818,0.232909091 10.5903636,0.232909091 C16.2622727,0.232909091 20.8771818,4.84463636 20.8771818,10.5127273 C20.8771818,16.1808182 16.2622727,20.7919091 10.5903636,20.7919091 C4.91781818,20.7919091 0.303545455,16.1808182 0.303545455,10.5127273 Z M3.55154545,10.5127273 C3.55154545,14.3907273 6.70918182,17.5458182 10.5903636,17.5458182 C14.4709091,17.5458182 17.6285455,14.3907273 17.6285455,10.5127273 C17.6285455,6.63409091 14.4709091,3.479 10.5903636,3.479 C6.70918182,3.479 3.55154545,6.63409091 3.55154545,10.5127273 Z" id="path-21"></path>
        <path d="M0.547448276,8.87014286 L3.71606897,8.87014286 C3.71606897,5.85642857 6.08462069,3.40392857 8.99627586,3.40392857 C11.907931,3.40392857 14.2771034,5.85642857 14.2771034,8.87014286 L17.4457241,8.87014286 C17.4457241,4.04871429 13.6551724,0.125357143 8.99627586,0.125357143 C4.33737931,0.125357143 0.547448276,4.04871429 0.547448276,8.87014286 Z" id="path-23"></path>
        <path d="M0.491586207,8.76407143 L3.6602069,8.76407143 C3.6602069,5.74971429 6.02875862,3.2985 8.94041379,3.2985 C11.8526897,3.2985 14.2212414,5.74971429 14.2212414,8.76407143 L17.3898621,8.76407143 C17.3898621,3.94135714 13.5993103,0.0186428571 8.94041379,0.0186428571 C4.28213793,0.0186428571 0.491586207,3.94135714 0.491586207,8.76407143 Z" id="path-25"></path>
        <path d="M0.5826,3.49392857 C3.3954,3.49392857 5.6832,5.94642857 5.6832,8.96271429 C5.6832,11.979 3.3954,14.4321429 0.5826,14.4321429 L0.5826,17.7139286 C5.0832,17.7139286 8.745,13.7873571 8.745,8.96271429 C8.745,4.13742857 5.0832,0.212142857 0.5826,0.212142857 L0.5826,3.49392857 Z" id="path-27"></path>
        <path d="M0.0411428571,8.98758621 C0.0411428571,13.6464828 3.9645,17.4370345 8.78592857,17.4370345 L8.78592857,14.2684138 C5.77285714,14.2684138 3.321,11.8992414 3.321,8.98758621 C3.321,6.07593103 5.77285714,3.70737931 8.78592857,3.70737931 L8.78592857,0.538758621 C3.9645,0.538758621 0.0411428571,4.32868966 0.0411428571,8.98758621 Z" id="path-29"></path>
    </defs>
    <g id="Page-1" stroke="none" stroke-width="1" fill="none" fill-rule="evenodd">
        <g id="För-lärare" transform="translate(-1233.000000, -147.000000)">
            <g id="Group-5" transform="translate(0.000000, 147.000000)">
                <g id="Group-4">
                    <g id="Page-1" transform="translate(1233.000000, 0.000000)">
                        <g id="Group-3" transform="translate(176.000000, 43.000000)">
                            <mask id="mask-2" fill="white">
                                <use xlink:href="#path-1"></use>
                            </mask>
                            <g id="Clip-2"></g>
                            <polygon id="Fill-1" fill="#54A559" mask="url(#mask-2)" points="-2.88805405 39.0151579 25.8812162 39.0151579 25.8812162 -3.42063158 -2.88805405 -3.42063158"></polygon>
                        </g>
                        <g id="Group-6" transform="translate(0.000000, 172.000000)">
                            <mask id="mask-4" fill="white">
                                <use xlink:href="#path-3"></use>
                            </mask>
                            <g id="Clip-5"></g>
                            <polygon id="Fill-4" fill="#54A559" mask="url(#mask-4)" points="39.181625 24.4657895 37.02225 -4.68284211 -4.854 -1.51547368 -2.694625 27.6331579"></polygon>
                        </g>
                        <g id="Group-9" transform="translate(182.000000, 117.000000)">
                            <mask id="mask-6" fill="white">
                                <use xlink:href="#path-5"></use>
                            </mask>
                            <g id="Clip-8"></g>
                            <polygon id="Fill-7" fill="#54A559" mask="url(#mask-6)" points="-2.89614706 23.8356176 23.8053529 23.8356176 23.8053529 -2.85229412 -2.89614706 -2.85229412"></polygon>
                        </g>
                        <g id="Group-12" transform="translate(92.000000, 35.000000)">
                            <mask id="mask-8" fill="white">
                                <use xlink:href="#path-7"></use>
                            </mask>
                            <g id="Clip-11"></g>
                            <polygon id="Fill-10" fill="#54A559" mask="url(#mask-8)" points="-3.16527273 24.1862727 24.346 24.1862727 24.346 -3.31036364 -3.16527273 -3.31036364"></polygon>
                        </g>
                        <path d="M18,148 L42,134.499686 L18,121 L18,148 Z M21.2862162,126.545108 L35.4282112,134.499686 L21.2862162,142.45552 L21.2862162,126.545108 Z" id="Fill-13" fill="#54A559"></path>
                        <path d="M97,201 L124,201 L110.500314,177 L97,201 Z M110.500314,183.571789 L118.45552,197.714427 L102.54448,197.714427 L110.500314,183.571789 Z" id="Fill-14" fill="#54A559"></path>
                        <path d="M133,38 L160,38 L146.5,14 L133,38 Z M146.5,20.5713213 L154.455021,34.7136956 L138.544979,34.7136956 L146.5,20.5713213 Z" id="Fill-15" fill="#54A559"></path>
                        <path d="M16,13.5 L40,27 L40,0 L16,13.5 Z M22.5724325,13.5 L36.7144275,5.54560669 L36.7144275,21.4550209 L22.5724325,13.5 Z" id="Fill-16" fill="#54A559"></path>
                        <g id="Group-19" transform="translate(75.000000, 137.000000)">
                            <mask id="mask-10" fill="white">
                                <use xlink:href="#path-9"></use>
                            </mask>
                            <g id="Clip-18"></g>
                            <polygon id="Fill-17" fill="#54A559" mask="url(#mask-10)" points="-2.8917931 11.9796 20.7732414 11.9796 20.7732414 -2.7234 -2.8917931 -2.7234"></polygon>
                        </g>
                        <g id="Group-22" transform="translate(58.000000, 43.000000)">
                            <mask id="mask-12" fill="white">
                                <use xlink:href="#path-11"></use>
                            </mask>
                            <g id="Clip-21"></g>
                            <polygon id="Fill-20" fill="#54A559" mask="url(#mask-12)" points="-2.6874 21.1422857 12.0156 21.1422857 12.0156 -3.36792857 -2.6874 -3.36792857"></polygon>
                        </g>
                        <g id="Group-25" transform="translate(181.000000, 174.000000)">
                            <mask id="mask-14" fill="white">
                                <use xlink:href="#path-13"></use>
                            </mask>
                            <g id="Clip-24"></g>
                            <polygon id="Fill-23" fill="#54A559" mask="url(#mask-14)" points="-3.46307143 21.4881429 12.2901429 21.4881429 12.2901429 -3.02207143 -3.46307143 -3.02207143"></polygon>
                        </g>
                        <polygon id="Fill-26" fill="#54A559" points="155 88.6514412 164.128009 96 166 93.3492094 156.870773 86"></polygon>
                        <polygon id="Fill-27" fill="#54A559" points="71 10.1285145 73.6507906 12 81 2.87026788 78.3485588 1"></polygon>
                        <polygon id="Fill-28" fill="#54A559" points="53 172.651919 62.1280093 180 64 177.349382 54.8707731 170"></polygon>
                        <polygon id="Fill-29" fill="#54A559" points="147 183.129227 149.651441 185 157 175.871991 154.34986 174"></polygon>
                        <polygon id="Fill-30" fill="#54A559" points="65 98.6506181 74.1291233 106 76 103.348081 66.8714855 96"></polygon>
                        <polygon id="Fill-31" fill="#54A559" points="4 40.6514412 13.1285145 48 15 45.3492094 5.87026788 38"></polygon>
                        <path d="M124,146 L155,146 L155,129.003095 L148.76105,134.667904 L144.124714,130.458752 L139.491519,134.667286 L134.861465,130.456276 L130.233296,134.666048 L124,129 L124,146 Z M144.124714,134.753313 L148.76105,138.962465 L151.792887,136.20897 L151.792887,142.8436 L127.207113,142.8436 L127.207113,136.213303 L130.233296,138.964941 L134.861465,134.755789 L139.491519,138.964322 L144.124714,134.753313 Z" id="Fill-32" fill="#54A559"></path>
                        <path d="M7,70 L7,86.9969055 L13.2397049,81.3320955 L17.8761349,85.5418669 L22.5087954,81.3327144 L27.1383147,85.5437236 L31.7672057,81.3339522 L38,87 L38,70 L7,70 Z M10.2071782,73.1570191 L34.7934501,73.1570191 L34.7934501,79.7873161 L31.7672057,77.035059 L27.1383147,81.2442114 L22.5087954,77.0362968 L17.8761349,81.2466871 L13.2397049,77.0375346 L10.2071782,79.7910296 L10.2071782,73.1570191 Z" id="Fill-33" fill="#54A559"></path>
                        <polygon id="Fill-34" fill="#54A559" points="114 81.7237256 118.452893 86.3574575 114.001309 90.9905601 118.454202 95.6299559 114.002617 100.269981 119.499709 106 121.954493 103.821901 118.545144 100.269981 122.998691 95.6286973 118.546452 90.9918188 123 86.3574575 118.546452 81.7237256 121.95253 78.1787288 119.499709 76"></polygon>
                        <g id="Group-74" transform="translate(176.000000, 252.000000)">
                            <mask id="mask-16" fill="white">
                                <use xlink:href="#path-15"></use>
                            </mask>
                            <g id="Clip-73"></g>
                            <polygon id="Fill-72" fill="#54A559" mask="url(#mask-16)" points="-2.88805405 39.0890526 25.8812162 39.0890526 25.8812162 -3.34673684 -2.88805405 -3.34673684"></polygon>
                        </g>
                        <g id="Group-77" transform="translate(0.000000, 381.000000)">
                            <mask id="mask-18" fill="white">
                                <use xlink:href="#path-17"></use>
                            </mask>
                            <g id="Clip-76"></g>
                            <polygon id="Fill-75" fill="#54A559" mask="url(#mask-18)" points="39.181625 24.5401263 37.02225 -4.60850526 -4.854 -1.44113684 -2.694625 27.7081263"></polygon>
                        </g>
                        <g id="Group-80" transform="translate(182.000000, 326.000000)">
                            <mask id="mask-20" fill="white">
                                <use xlink:href="#path-19"></use>
                            </mask>
                            <g id="Clip-79"></g>
                            <polygon id="Fill-78" fill="#54A559" mask="url(#mask-20)" points="-2.89614706 23.9085 23.8053529 23.9085 23.8053529 -2.77941176 -2.89614706 -2.77941176"></polygon>
                        </g>
                        <g id="Group-83" transform="translate(92.000000, 244.000000)">
                            <mask id="mask-22" fill="white">
                                <use xlink:href="#path-21"></use>
                            </mask>
                            <g id="Clip-82"></g>
                            <polygon id="Fill-81" fill="#54A559" mask="url(#mask-22)" points="-3.16527273 24.2613636 24.346 24.2613636 24.346 -3.23527273 -3.16527273 -3.23527273"></polygon>
                        </g>
                        <path d="M18,357 L42,343.5 L18,330 L18,357 Z M21.2862162,335.545607 L35.4282112,343.5 L21.2862162,351.455021 L21.2862162,335.545607 Z" id="Fill-84" fill="#54A559"></path>
                        <path d="M130,351 L157,351 L143.499686,327 L130,351 Z M143.499686,333.571789 L151.454892,347.713784 L135.54448,347.713784 L143.499686,333.571789 Z" id="Fill-85" fill="#54A559"></path>
                        <path d="M133,247 L160,247 L146.5,223 L133,247 Z M146.5,229.571321 L154.455021,243.713696 L138.544979,243.713696 L146.5,229.571321 Z" id="Fill-86" fill="#54A559"></path>
                        <path d="M16,223.500314 L40,237 L40,210 L16,223.500314 Z M22.5724325,223.500314 L36.7144275,215.54448 L36.7144275,231.45552 L22.5724325,223.500314 Z" id="Fill-87" fill="#54A559"></path>
                        <g id="Group-90" transform="translate(178.000000, 211.000000)">
                            <mask id="mask-24" fill="white">
                                <use xlink:href="#path-23"></use>
                            </mask>
                            <g id="Clip-89"></g>
                            <polygon id="Fill-88" fill="#54A559" mask="url(#mask-24)" points="-2.83593103 12.3743571 20.8291034 12.3743571 20.8291034 -3.37885714 -2.83593103 -3.37885714"></polygon>
                        </g>
                        <g id="Group-93" transform="translate(75.000000, 347.000000)">
                            <mask id="mask-26" fill="white">
                                <use xlink:href="#path-25"></use>
                            </mask>
                            <g id="Clip-92"></g>
                            <polygon id="Fill-91" fill="#54A559" mask="url(#mask-26)" points="-2.8917931 12.2682857 20.7732414 12.2682857 20.7732414 -3.48492857 -2.8917931 -3.48492857"></polygon>
                        </g>
                        <g id="Group-96" transform="translate(58.000000, 252.000000)">
                            <mask id="mask-28" fill="white">
                                <use xlink:href="#path-27"></use>
                            </mask>
                            <g id="Clip-95"></g>
                            <polygon id="Fill-94" fill="#54A559" mask="url(#mask-28)" points="-2.6874 21.2181429 12.0156 21.2181429 12.0156 -3.29207143 -2.6874 -3.29207143"></polygon>
                        </g>
                        <g id="Group-99" transform="translate(181.000000, 383.000000)">
                            <mask id="mask-30" fill="white">
                                <use xlink:href="#path-29"></use>
                            </mask>
                            <g id="Clip-98"></g>
                            <polygon id="Fill-97" fill="#54A559" mask="url(#mask-30)" points="-3.46307143 20.8204138 12.2901429 20.8204138 12.2901429 -2.84462069 -3.46307143 -2.84462069"></polygon>
                        </g>
                        <polygon id="Fill-100" fill="#54A559" points="155 297.651441 164.128009 305 166 302.349209 156.870773 295"></polygon>
                        <polygon id="Fill-101" fill="#54A559" points="71 219.128009 73.6507906 221 81 211.870773 78.3485588 210"></polygon>
                        <polygon id="Fill-102" fill="#54A559" points="53 382.651441 62.1280093 390 64 387.349209 54.8707731 380"></polygon>
                        <polygon id="Fill-103" fill="#54A559" points="147 393.12933 149.651441 395 157 385.872496 154.34986 384"></polygon>
                        <polygon id="Fill-104" fill="#54A559" points="65 308.650791 74.1291233 316 76 313.348559 66.8714855 306"></polygon>
                        <polygon id="Fill-105" fill="#54A559" points="4 250.651919 13.1285145 258 15 255.349382 5.87026788 248"></polygon>
                        <path d="M95,406 L126,406 L126,389.003713 L119.761176,394.667904 L115.124934,390.459371 L110.491205,394.667904 L105.861873,390.456276 L101.233798,394.666667 L95,389 L95,406 Z M115.124934,394.753313 L119.761176,398.963084 L122.792952,396.209589 L122.792952,402.8436 L98.2076764,402.8436 L98.2076764,396.213922 L101.233798,398.96556 L105.861873,394.755789 L110.491205,398.964322 L115.124934,394.753313 Z" id="Fill-106" fill="#54A559"></path>
                        <path d="M7,279 L7,295.997524 L13.2397049,290.332508 L17.8761349,294.541814 L22.5087954,290.333127 L27.1383147,294.543671 L31.7672057,290.334365 L38,296 L38,279 L7,279 Z M10.2071782,282.157134 L34.7934501,282.157134 L34.7934501,288.787054 L31.7672057,286.035315 L27.1383147,290.244621 L22.5087954,286.036553 L17.8761349,290.247097 L13.2397049,286.037172 L10.2071782,288.791386 L10.2071782,282.157134 Z" id="Fill-107" fill="#54A559"></path>
                        <polygon id="Fill-108" fill="#54A559" points="114 290.723846 118.452893 295.357675 114.001309 299.990875 118.454202 304.629738 114.002617 309.27112 119.499709 315 121.954493 312.822484 118.545144 309.27112 122.998691 304.62848 118.546452 299.992133 123 295.357675 118.546452 290.723846 121.95253 287.178145 119.499709 285"></polygon>
                        <polygon id="Fill-109" fill="#54A559" points="122.642955 211.453548 118.009125 207.001309 113.370262 211.454202 108.72888 207.001963 103 212.499055 105.177516 214.954493 108.72888 211.545144 113.370891 215.998691 118.007867 211.546452 122.642955 216 127.276154 211.546452 130.821855 214.953838 133 212.499055 127.276154 207"></polygon>
                    </g>
                </g>
            </g>
        </g>
    </g>
</svg>