<?xml version="1.0" encoding="UTF-8"?>
<svg width="23px" height="23px" viewBox="0 0 23 23" version="1.1" xmlns="http://www.w3.org/2000/svg" xmlns:xlink="http://www.w3.org/1999/xlink">
    <!-- Generator: Sketch 47.1 (45422) - http://www.bohemiancoding.com/sketch -->
    <title>paper-clip-in-diagonal-position-rotated-to-right copy 3@2x</title>
    <desc>Created with Sketch.</desc>
    <defs></defs>
    <g id="Page-1" stroke="none" stroke-width="1" fill="none" fill-rule="evenodd" opacity="0.7">
        <g id="För-lärare" transform="translate(-226.000000, -1148.000000)" fill-rule="nonzero" fill="#000000">
            <g id="paper-clip-in-diagonal-position-rotated-to-right-copy-3" transform="translate(226.000000, 1148.000000)">
                <path d="M21.1246816,10.9337589 L14.3318175,17.7267006 C12.9260073,19.1309255 10.639852,19.1309255 9.23559311,17.7267006 C7.83058361,16.3224257 7.8313342,14.0362443 9.23559311,12.6319693 L16.0284573,5.83902757 L17.1606013,6.97118452 L10.3685378,13.7641263 C9.58667034,14.5444514 9.58667034,15.8142186 10.3677371,16.5945437 C11.1480533,17.37642 12.417806,17.37642 13.1981222,16.5945437 L19.9925376,9.80160194 C21.8643157,7.92820118 21.8643157,4.88201092 19.9925376,3.0086602 C18.1191582,1.13525944 15.0714515,1.13525944 13.1981222,3.0086602 L3.00802536,13.1980728 C1.134646,15.0714736 1.134646,18.1192151 3.00802536,19.9925157 C4.88140472,21.8643152 7.92831078,21.8643152 9.80169014,19.9925157 L9.804042,19.9894133 C10.4053168,20.2380624 11.0456725,20.3600101 11.6859781,20.3725202 L10.9338342,21.1246227 C8.43265905,23.6251258 4.37710649,23.6251258 1.87588133,21.1246227 C-0.625293778,18.6226183 -0.625293778,14.5678701 1.87588133,12.0658658 L12.0659782,1.87650324 C14.5679539,-0.625501081 18.6227059,-0.625501081 21.1246816,1.87650324 C23.6251061,4.37690628 23.6251061,8.43175457 21.1246816,10.9337589 Z" id="Shape"></path>
            </g>
        </g>
    </g>
</svg>