<?xml version="1.0" encoding="UTF-8"?>
<svg width="23px" height="18px" viewBox="0 0 23 18" version="1.1" xmlns="http://www.w3.org/2000/svg" xmlns:xlink="http://www.w3.org/1999/xlink">
    <!-- Generator: Sketch 42 (36781) - http://www.bohemiancoding.com/sketch -->
    <title>Message</title>
    <desc>Created with Sketch.</desc>
    <defs></defs>
    <g id="Desktop-working" stroke="none" stroke-width="1" fill="none" fill-rule="evenodd">
        <g id="Working-3-news" transform="translate(-187.000000, -3212.000000)" fill="#004B93">
            <g id="Footer-content" transform="translate(186.000000, 3108.000000)">
                <g id="Message" transform="translate(1.000000, 104.000000)">
                    <path d="M2.3,0 C1.035,0 0,1.0125 0,2.25 L0,15.75 C0,16.9875 1.035,18 2.3,18 L20.7,18 C21.965,18 23,16.9875 23,15.75 L23,2.25 C23,1.0125 21.965,0 20.7,0 L2.3,0 Z M2.3,2.25 L20.7,2.25 L20.7,15.75 L2.3,15.75 L2.3,2.25 Z M3.45,2.91796875 L3.45,5.16796875 L11.5,10.125 L19.55,5.16796875 L19.55,2.91796875 L11.5,7.875 L3.45,2.91796875 Z" id="Shape"></path>
                </g>
            </g>
        </g>
    </g>
</svg>