<?xml version="1.0" encoding="UTF-8"?>
<svg width="14px" height="24px" viewBox="0 0 14 24" version="1.1" xmlns="http://www.w3.org/2000/svg" xmlns:xlink="http://www.w3.org/1999/xlink">
    <!-- Generator: Sketch 42 (36781) - http://www.bohemiancoding.com/sketch -->
    <title>Shape</title>
    <desc>Created with Sketch.</desc>
    <defs></defs>
    <g id="Desktop-working" stroke="none" stroke-width="1" fill="none" fill-rule="evenodd">
        <g id="Working-3-news" transform="translate(-187.000000, -3120.000000)" fill="#004B93">
            <g id="Footer-content" transform="translate(186.000000, 3108.000000)">
                <g id="Marker" transform="translate(1.000000, 12.000000)">
                    <path d="M7,0 C3.1,0 0,3.1 0,7 C0,13 7,24 7,24 C7,24 14,12.9 14,7 C14,3.1 10.9,0 7,0 Z M7,9 C5.9,9 5,8.1 5,7 C5,5.9 5.9,5 7,5 C8.1,5 9,5.9 9,7 C9,8.1 8.1,9 7,9 Z" id="Shape"></path>
                </g>
            </g>
        </g>
    </g>
</svg>