<?xml version="1.0" encoding="UTF-8"?>
<svg width="19px" height="20px" viewBox="0 0 19 20" version="1.1" xmlns="http://www.w3.org/2000/svg" xmlns:xlink="http://www.w3.org/1999/xlink">
    <!-- Generator: Sketch 42 (36781) - http://www.bohemiancoding.com/sketch -->
    <title>Phone</title>
    <desc>Created with Sketch.</desc>
    <defs></defs>
    <g id="Desktop-working" stroke="none" stroke-width="1" fill="none" fill-rule="evenodd">
        <g id="Working-3-news" transform="translate(-187.000000, -3165.000000)" fill="#004B93">
            <g id="Footer-content" transform="translate(186.000000, 3108.000000)">
                <g id="Phone" transform="translate(1.000000, 57.000000)">
                    <path d="M16.8719701,13.9202988 C15.6404259,12.8869192 14.3905836,12.2609596 13.1741553,13.2927782 L12.4477988,13.9163963 C11.9163573,14.3690853 10.9282579,16.4842353 7.10792514,12.1727633 C3.28838796,7.86675482 5.56133479,7.19630688 6.0935719,6.74752042 L6.82390623,6.12312186 C8.03396998,5.08896176 7.57731213,3.78709078 6.70457056,2.44697538 L6.17790244,1.63525727 C5.30118302,0.298263865 4.34649761,-0.5797966 3.13325158,0.452802507 L2.47770093,1.0147612 C1.94148597,1.39798582 0.442629881,2.64366093 0.0790538567,5.01013144 C-0.358510287,7.84958386 1.02180569,11.1011393 4.18420109,14.6687966 C7.34261864,18.2380148 10.4350038,20.0308191 13.3642968,19.9995992 C15.7987446,19.9738428 17.2689601,18.6922647 17.7288003,18.2263073 L18.3867376,17.6635681 C19.5968014,16.6317495 18.8449866,15.5811989 17.6126469,14.5454778 L16.8719701,13.9202988 Z" id="Shape"></path>
                </g>
            </g>
        </g>
    </g>
</svg>